<?xml version="1.0" encoding="utf-8"?>
<!-- Generator: Adobe Illustrator 22.0.1, SVG Export Plug-In . SVG Version: 6.00 Build 0)  -->
<svg version="1.1" id="Layer_1" xmlns="http://www.w3.org/2000/svg" xmlns:xlink="http://www.w3.org/1999/xlink" x="0px" y="0px"
	 viewBox="0 0 646.6 147" style="enable-background:new 0 0 646.6 147;" xml:space="preserve">
<style type="text/css">
	.st0{fill:none;stroke:#000000;stroke-width:2;stroke-miterlimit:10;}
</style>
<g fill="none" fill-rule="evenodd" stroke="currentColor" stroke-width="1" class="lines">
	<path class="st0" d="M528.3,40.3c-28.9,0-51.5,23.1-51.5,52.5c0,29.1,22.5,51.8,51.1,51.8c28.9,0,51.5-23.1,51.5-52.6
		C579.4,63,557,40.3,528.3,40.3z M528.3,128.7c-19.2,0-34.2-16.1-34.2-36.6c0-20.4,14.6-35.9,33.9-35.9c19.2,0,34.2,16.1,34.2,36.6
		C562.1,113.3,547.6,128.7,528.3,128.7z"/>
	<path class="st0" d="M636.7,126.3c-1,0-1.8,0.3-2.9,0.6c-1.5,0.5-3.8,1.2-7.6,1.2c-10.1,0-14.7-4.3-14.7-14.1V58.2h25.1
		c4.3,0,8-3.6,8-7.8c0-4.3-3.7-8-8-8h-25.1V20.6c0-4.7-3.7-8.4-8.4-8.4c-4.7,0-8.2,3.6-8.2,8.4v21.9h-6.1c-4.3,0-8,3.6-8,7.8
		c0,4.3,3.7,8,8,8h6.1v56.7c0,18,11.4,29.2,29.8,29.2c6.2,0,10.9-1.4,14.4-2.6c3.4-1.4,5.3-4,5.3-7.4
		C644.6,129.9,641,126.3,636.7,126.3z"/>
	<path class="st0" d="M453.7,1.9c-4.8,0-8.3,3.6-8.3,8.4v44.3c-9.4-9-21.5-14.2-33.2-14.2h-1c-24,0-48.7,19.4-48.7,51.8v0.6
		c0.1,32.5,24.9,51.9,48.7,51.9h1c26.5,0,49.8-24.4,49.8-52.2V10.2C461.9,5.5,458.4,1.9,453.7,1.9z M412.1,128
		c-18.5,0-33.6-16-33.6-35.6c0-19.6,15.1-35.6,33.6-35.6c15.9,0,33.6,15.2,33.6,35.6C445.7,111.4,430,128,412.1,128z"/>
	<path class="st0" d="M127,1.9c-4.6,0-8.2,3.7-8.2,8.4v124.6c0,4.8,3.6,8.3,8.4,8.3c4.7,0,8.2-3.6,8.2-8.3V10.2
		C135.4,5.5,131.7,1.9,127,1.9z"/>
	<path class="st0" d="M301.5,40.3c-26.7,0-47.7,23-47.7,52.4c0,29.6,21.1,52,49.1,52c15.8,0,27.4-4.8,38.8-16.1
		c2.1-2.1,2.6-4.3,2.6-5.8c0-4.4-3.7-8-8.2-8c-2.1,0-4,0.8-5.6,2.4c-8.1,7.9-16.7,11.6-27.2,11.6c-16.5,0-29.1-11.5-31.9-28.7h68.2
		c4.3,0,8.2-3.7,8.2-8C347.7,62,328.3,40.3,301.5,40.3z M301.2,56.1c18.1,0,26.7,14.2,28.9,28.2h-58.6
		C274.3,67.6,286.3,56.1,301.2,56.1z"/>
	<path class="st0" d="M52.5,39.6l-0.7,0c-11.8,0-23.9,5.2-33.2,14.2V9.6c0-4.8-3.6-8.4-8.4-8.4C5.5,1.2,2,4.8,2,9.6v80.7L2,91l0,0.8
		C2,119.6,25.3,144,51.8,144h1c23.9,0,48.6-19.5,48.8-52v-0.5C101.5,59,76.6,39.6,52.5,39.6z M85.4,91.8c0,19.6-15.1,35.6-33.6,35.6
		c-17.9,0-33.6-16.6-33.6-35.6c0-20.4,17.7-35.6,33.6-35.6C70.3,56.2,85.4,72.2,85.4,91.8z"/>
	<path class="st0" d="M229.3,41.7c-4.8,0-8.4,3.6-8.4,8.3v51.1c0,16.8-9,27.1-24,27.6c-15.4-0.5-24.3-10.6-24.3-27.6V50.1
		c0-4.8-3.6-8.3-8.3-8.3c-4.7,0-8.2,3.6-8.2,8.3v52.7c0,25.3,16,41.8,40.7,41.9h0c24.7-0.1,40.7-16.5,40.7-41.9V50.1
		C237.5,45.3,233.9,41.7,229.3,41.7z"/>
	</g>
</svg>
