<?xml version="1.0" encoding="utf-8"?>
<!-- Generator: Adobe Illustrator 22.0.1, SVG Export Plug-In . SVG Version: 6.00 Build 0)  -->
<svg version="1.1" id="Layer_1" xmlns="http://www.w3.org/2000/svg" xmlns:xlink="http://www.w3.org/1999/xlink" x="0px" y="0px"
	 viewBox="0 0 714.767 895.86" enable-background="new 0 0 714.767 895.86" xml:space="preserve">
<g>
	<path fill="#222222" d="M357.043,448.608c-49.431,0-89.488,40.065-89.488,89.488c0,49.416,40.057,89.481,89.488,89.481
		c49.406,0,89.488-40.065,89.488-89.481C446.531,488.672,406.449,448.608,357.043,448.608z"/>
	<path fill="#222222" d="M357.043,181.735H179.651c-32.953,0-59.654-26.711-59.654-59.654V60.895h-0.025
		C119.943,27.979,93.27,1.303,60.334,1.303c-32.951,0-59.652,26.711-59.652,59.654v120.777v249.098v107.246
		c0,196.516,159.865,356.381,356.361,356.381c196.48,0,356.346-159.865,356.346-356.381
		C713.388,341.59,553.523,181.735,357.043,181.735z M357.043,775.143c-130.716,0-237.046-106.348-237.046-237.065V430.832V301.059
		h237.046c130.689,0,237.029,106.33,237.029,237.02C594.072,668.795,487.732,775.143,357.043,775.143z"/>
</g>
</svg>
