<svg width="540" height="42" viewBox="0 0 540 42" fill="none" xmlns="http://www.w3.org/2000/svg">
<rect width="540" height="42" rx="2" fill="white"/>
<path d="M20.3432 23.381C22.5984 23.381 24.4267 21.5049 24.4267 19.1905C24.4267 16.8762 22.5984 15 20.3432 15C18.088 15 16.2598 16.8762 16.2598 19.1905C16.2598 21.5049 18.088 23.381 20.3432 23.381Z" stroke="#2D3040" stroke-width="2" stroke-linecap="round" stroke-linejoin="round"/>
<path d="M23.2295 22.1523L27.999 27.0469" stroke="#2D3040" stroke-width="2" stroke-linecap="round" stroke-linejoin="round"/>
<rect x="42" y="8" width="177" height="26" rx="3" fill="#F6F3EC"/>
<path d="M57.2188 16.2727H50.5028V17.4318H53.1875V25H54.5341V17.4318H57.2188V16.2727ZM60.2102 25.1321C62.0298 25.1321 63.2145 23.7642 63.2145 21.7486C63.2145 19.7287 62.0298 18.3693 60.2102 18.3693C58.3864 18.3693 57.206 19.7287 57.206 21.7486C57.206 23.7642 58.3864 25.1321 60.2102 25.1321ZM60.2102 24.0156C59.0085 24.0156 58.4844 22.9929 58.4844 21.7486C58.4844 20.5085 59.0085 19.4815 60.2102 19.4815C61.4077 19.4815 61.9361 20.5085 61.9361 21.7486C61.9361 22.9929 61.4077 24.0156 60.2102 24.0156ZM68.4048 18.5866C68.2003 18.4673 67.8594 18.3565 67.5185 18.3565C66.8111 18.3565 66.1165 18.8381 65.929 19.4858H65.8523V18.4545H64.5568V25H65.8693V21.2969C65.8778 20.4872 66.4616 19.6222 67.3991 19.6222C67.6761 19.6222 67.8849 19.7074 67.983 19.7585L68.4048 18.5866ZM71.8001 25.1321C73.6197 25.1321 74.8043 23.7642 74.8043 21.7486C74.8043 19.7287 73.6197 18.3693 71.8001 18.3693C69.9762 18.3693 68.7958 19.7287 68.7958 21.7486C68.7958 23.7642 69.9762 25.1321 71.8001 25.1321ZM71.8001 24.0156C70.5984 24.0156 70.0742 22.9929 70.0742 21.7486C70.0742 20.5085 70.5984 19.4815 71.8001 19.4815C72.9975 19.4815 73.5259 20.5085 73.5259 21.7486C73.5259 22.9929 72.9975 24.0156 71.8001 24.0156ZM77.4592 21.2543C77.4592 20.125 78.1708 19.5284 78.9165 19.5284C79.6538 19.5284 80.1907 20.0568 80.1907 20.9304V25H81.4989V20.8622C81.4989 19.1193 80.5487 18.3693 79.3597 18.3693C78.4478 18.3693 77.8043 18.8253 77.4762 19.4304H77.408V18.4545H76.1467V25H77.4592V21.2543ZM85.9904 18.4545H84.712V17.0568H83.3995V18.4545H82.4918V19.5284H83.3995V23.3253C83.3995 24.4759 84.2944 25.0852 85.2106 25.0852C85.6964 25.0852 86.016 24.9957 86.1481 24.9446L85.9137 23.8665C85.82 23.8878 85.6708 23.9176 85.4833 23.9176C85.0785 23.9176 84.712 23.8026 84.712 23.0653V19.5284H85.9904V18.4545ZM89.9876 25.1321C91.8072 25.1321 92.9918 23.7642 92.9918 21.7486C92.9918 19.7287 91.8072 18.3693 89.9876 18.3693C88.1637 18.3693 86.9833 19.7287 86.9833 21.7486C86.9833 23.7642 88.1637 25.1321 89.9876 25.1321ZM89.9876 24.0156C88.7859 24.0156 88.2617 22.9929 88.2617 21.7486C88.2617 20.5085 88.7859 19.4815 89.9876 19.4815C91.185 19.4815 91.7134 20.5085 91.7134 21.7486C91.7134 22.9929 91.185 24.0156 89.9876 24.0156ZM95.8107 23.7855H94.5792V24.7784C94.5792 25.5114 94.315 26.0739 94.0337 26.7088L94.9201 26.9773C95.44 26.3381 95.7979 25.5412 95.8107 24.7273V23.7855ZM108.418 20.6406C108.418 17.8409 106.79 16.1534 104.578 16.1534C102.358 16.1534 100.726 17.8409 100.726 20.6406C100.726 23.4361 102.358 25.1193 104.578 25.1193C106.79 25.1193 108.418 23.4361 108.418 20.6406ZM107.084 20.6406C107.084 22.8097 105.998 23.8793 104.578 23.8793C103.155 23.8793 102.06 22.8097 102.06 20.6406C102.06 18.4716 103.155 17.3935 104.578 17.3935C105.998 17.3935 107.084 18.4716 107.084 20.6406ZM111.209 21.2543C111.209 20.125 111.921 19.5284 112.667 19.5284C113.404 19.5284 113.941 20.0568 113.941 20.9304V25H115.249V20.8622C115.249 19.1193 114.299 18.3693 113.11 18.3693C112.198 18.3693 111.554 18.8253 111.226 19.4304H111.158V18.4545H109.897V25H111.209V21.2543ZM119.74 18.4545H118.462V17.0568H117.15V18.4545H116.242V19.5284H117.15V23.3253C117.15 24.4759 118.044 25.0852 118.961 25.0852C119.446 25.0852 119.766 24.9957 119.898 24.9446L119.664 23.8665C119.57 23.8878 119.421 23.9176 119.233 23.9176C118.828 23.9176 118.462 23.8026 118.462 23.0653V19.5284H119.74V18.4545ZM124.9 25H126.187V20.6491C126.187 18.7656 124.746 18.3693 123.694 18.3693C122.513 18.3693 121.41 18.8594 120.996 20.0568L122.237 20.3423C122.407 19.8821 122.897 19.4474 123.702 19.4474C124.388 19.4474 124.87 19.7841 124.87 20.6321V20.6875C124.87 21.0753 124.171 21.071 123.421 21.1605C121.994 21.3139 120.839 21.7699 120.839 23.1463C120.839 24.4205 121.815 25.1406 123.021 25.1406C124.06 25.1406 124.623 24.6037 124.84 24.1861H124.9V25ZM124.87 22.7159C124.87 23.4233 124.265 24.0753 123.289 24.0753C122.607 24.0753 122.126 23.7557 122.126 23.1676C122.126 22.4901 122.684 22.2429 123.468 22.1449C123.835 22.098 124.721 21.9957 124.87 21.8253V22.7159ZM131.674 18.5866C131.47 18.4673 131.129 18.3565 130.788 18.3565C130.081 18.3565 129.386 18.8381 129.199 19.4858H129.122V18.4545H127.826V25H129.139V21.2969C129.147 20.4872 129.731 19.6222 130.669 19.6222C130.946 19.6222 131.154 19.7074 131.252 19.7585L131.674 18.5866ZM133.375 17.7045C133.86 17.7045 134.197 17.3509 134.197 16.929C134.197 16.5284 133.86 16.1534 133.375 16.1534C132.889 16.1534 132.552 16.5284 132.552 16.929C132.552 17.3509 132.889 17.7045 133.375 17.7045ZM134.035 18.4545H132.723V25H134.035V18.4545ZM138.409 25.1321C140.229 25.1321 141.414 23.7642 141.414 21.7486C141.414 19.7287 140.229 18.3693 138.409 18.3693C136.586 18.3693 135.405 19.7287 135.405 21.7486C135.405 23.7642 136.586 25.1321 138.409 25.1321ZM138.409 24.0156C137.208 24.0156 136.684 22.9929 136.684 21.7486C136.684 20.5085 137.208 19.4815 138.409 19.4815C139.607 19.4815 140.135 20.5085 140.135 21.7486C140.135 22.9929 139.607 24.0156 138.409 24.0156ZM144.233 23.7855H143.001V24.7784C143.001 25.5114 142.737 26.0739 142.456 26.7088L143.342 26.9773C143.862 26.3381 144.22 25.5412 144.233 24.7273V23.7855ZM156.55 19.0043C156.175 17.1974 154.748 16.1534 153 16.1534C150.772 16.1534 149.148 17.8537 149.148 20.6406C149.148 23.4233 150.772 25.1193 153 25.1193C154.748 25.1193 156.171 24.0795 156.542 22.2855L155.208 22.196C154.952 23.304 154.049 23.8793 153 23.8793C151.564 23.8793 150.482 22.8011 150.482 20.6406C150.482 18.4844 151.564 17.3935 153 17.3935C154.049 17.3935 154.965 17.9773 155.221 19.0938L156.55 19.0043ZM161.744 25H163.031V20.6491C163.031 18.7656 161.59 18.3693 160.538 18.3693C159.357 18.3693 158.254 18.8594 157.84 20.0568L159.08 20.3423C159.251 19.8821 159.741 19.4474 160.546 19.4474C161.232 19.4474 161.714 19.7841 161.714 20.6321V20.6875C161.714 21.0753 161.015 21.071 160.265 21.1605C158.837 21.3139 157.683 21.7699 157.683 23.1463C157.683 24.4205 158.658 25.1406 159.864 25.1406C160.904 25.1406 161.467 24.6037 161.684 24.1861H161.744V25ZM161.714 22.7159C161.714 23.4233 161.109 24.0753 160.133 24.0753C159.451 24.0753 158.969 23.7557 158.969 23.1676C158.969 22.4901 159.528 22.2429 160.312 22.1449C160.678 22.098 161.565 21.9957 161.714 21.8253V22.7159ZM165.983 21.2543C165.983 20.125 166.694 19.5284 167.44 19.5284C168.177 19.5284 168.714 20.0568 168.714 20.9304V25H170.022V20.8622C170.022 19.1193 169.072 18.3693 167.883 18.3693C166.971 18.3693 166.328 18.8253 166 19.4304H165.931V18.4545H164.67V25H165.983V21.2543ZM175.455 25H176.741V20.6491C176.741 18.7656 175.301 18.3693 174.249 18.3693C173.068 18.3693 171.964 18.8594 171.551 20.0568L172.791 20.3423C172.962 19.8821 173.452 19.4474 174.257 19.4474C174.943 19.4474 175.425 19.7841 175.425 20.6321V20.6875C175.425 21.0753 174.726 21.071 173.976 21.1605C172.548 21.3139 171.393 21.7699 171.393 23.1463C171.393 24.4205 172.369 25.1406 173.575 25.1406C174.615 25.1406 175.178 24.6037 175.395 24.1861H175.455V25ZM175.425 22.7159C175.425 23.4233 174.82 24.0753 173.844 24.0753C173.162 24.0753 172.68 23.7557 172.68 23.1676C172.68 22.4901 173.239 22.2429 174.023 22.1449C174.389 22.098 175.276 21.9957 175.425 21.8253V22.7159ZM183.917 25V16.2727H182.604V19.3835H182.536C182.314 18.9957 181.854 18.3693 180.767 18.3693C179.225 18.3693 178.061 19.6051 178.061 21.7401C178.061 23.8665 179.203 25.1236 180.755 25.1236C181.833 25.1236 182.314 24.5057 182.536 24.1051H182.634V25H183.917ZM179.331 21.7273C179.331 20.4233 179.898 19.4815 181.036 19.4815C182.157 19.4815 182.685 20.4105 182.685 21.7273C182.685 23.0526 182.152 24.0156 181.036 24.0156C179.911 24.0156 179.331 23.044 179.331 21.7273ZM189.353 25H190.64V20.6491C190.64 18.7656 189.2 18.3693 188.147 18.3693C186.967 18.3693 185.863 18.8594 185.45 20.0568L186.69 20.3423C186.86 19.8821 187.35 19.4474 188.156 19.4474C188.842 19.4474 189.323 19.7841 189.323 20.6321V20.6875C189.323 21.0753 188.624 21.071 187.874 21.1605C186.447 21.3139 185.292 21.7699 185.292 23.1463C185.292 24.4205 186.268 25.1406 187.474 25.1406C188.513 25.1406 189.076 24.6037 189.293 24.1861H189.353V25ZM189.323 22.7159C189.323 23.4233 188.718 24.0753 187.742 24.0753C187.06 24.0753 186.579 23.7557 186.579 23.1676C186.579 22.4901 187.137 22.2429 187.921 22.1449C188.288 22.098 189.174 21.9957 189.323 21.8253V22.7159Z" fill="#AE9F7E"/>
<path d="M202 25L209 18" stroke="#AE9F7E" stroke-width="2" stroke-linecap="round" stroke-linejoin="round"/>
<path d="M209 25L202 18" stroke="#AE9F7E" stroke-width="2" stroke-linecap="round" stroke-linejoin="round"/>
</svg>
