<svg width="13" height="19" viewBox="0 0 13 19" fill="none" xmlns="http://www.w3.org/2000/svg">
<path d="M12.0714 5.57143C12.0714 2.49786 9.57357 0 6.5 0C3.42643 0 0.928571 2.49786 0.928571 5.57143C0.928571 9.75 6.5 15.7857 6.5 15.7857C6.5 15.7857 12.0714 9.75 12.0714 5.57143ZM4.64286 5.57143C4.64286 4.55 5.47857 3.71429 6.5 3.71429C7.52143 3.71429 8.35714 4.55 8.35714 5.57143C8.35714 6.59286 7.53071 7.42857 6.5 7.42857C5.47857 7.42857 4.64286 6.59286 4.64286 5.57143ZM0 16.7143V18.5714H13V16.7143H0Z" fill="#334457"/>
</svg>
