<svg width="16" height="12" viewBox="0 0 16 12" fill="none" 
    xmlns="http://www.w3.org/2000/svg">
    <path d="M12.432 1.11062C12.6585 1.16344 12.868 1.27262 13.0411 1.42803C13.2141 1.58345 13.3452 1.78006 13.422 1.99962C13.4729 2.14072 13.499 2.2896 13.499 2.43962C13.5037 2.6747 13.4475 2.907 13.3359 3.11394C13.2242 3.32088 13.061 3.49543 12.862 3.62062L5.00895 8.49662C4.92873 8.54701 4.83537 8.57248 4.74068 8.56981C4.64598 8.56714 4.55421 8.53645 4.47695 8.48162L1.59895 6.46062C1.54406 6.41633 1.50901 6.35204 1.50151 6.28191C1.49401 6.21177 1.51467 6.14153 1.55895 6.08662C1.57164 6.06976 1.58681 6.05492 1.60395 6.04262L2.81195 4.97662C2.8475 4.94802 2.88977 4.92896 2.93474 4.92126C2.97972 4.91356 3.02591 4.91747 3.06895 4.93262L4.58295 5.83262L6.50295 4.49262L2.86395 2.24062C2.79729 2.18349 2.75598 2.10228 2.74904 2.01476C2.74211 1.92724 2.77012 1.84054 2.82695 1.77362C2.84288 1.75551 2.86064 1.73909 2.87995 1.72462L3.76895 1.06462C3.81325 1.03202 3.86494 1.01093 3.9194 1.00325C3.97386 0.995573 4.02937 1.00154 4.08095 1.02062L9.09895 2.88962L11.419 1.30562C11.5653 1.20512 11.7308 1.13592 11.9051 1.10237C12.0794 1.06881 12.2588 1.07162 12.432 1.11062Z" stroke="#536368" stroke-linecap="round" stroke-linejoin="round"/>
    <line x1="1" y1="11.5" x2="15" y2="11.5" stroke="#536368" stroke-linecap="round"/>
</svg>
