<svg width="16" height="16" viewBox="0 0 16 16" fill="none" 
    xmlns="http://www.w3.org/2000/svg">
    <path d="M14.0854 8.80828C14.2083 9.00581 14.2792 9.23117 14.2917 9.46344C14.3042 9.69571 14.2578 9.92738 14.1568 10.1369C14.0931 10.2728 14.0063 10.3965 13.9002 10.5025C13.7373 10.6721 13.5333 10.7966 13.308 10.864C13.0828 10.9314 12.8439 10.9394 12.6146 10.8872L3.61389 8.78212C3.52153 8.76102 3.43751 8.71302 3.37244 8.64417C3.30736 8.57532 3.26417 8.48873 3.24831 8.39533L2.64232 4.93122C2.63483 4.86108 2.6555 4.79084 2.69979 4.73594C2.74408 4.68104 2.80836 4.64598 2.87849 4.63847C2.89939 4.63552 2.92061 4.63575 2.94143 4.63918L4.54939 4.73959C4.59475 4.7445 4.63811 4.76091 4.67536 4.78727C4.7126 4.81362 4.7425 4.84906 4.76223 4.8902L5.19639 6.59716L7.50156 7.00728L6.5208 2.84171C6.51406 2.75418 6.54227 2.66754 6.59925 2.60075C6.65624 2.53396 6.73735 2.49246 6.82486 2.48533C6.84893 2.48379 6.8731 2.48474 6.89698 2.48816L7.99229 2.65009C8.04666 2.65835 8.09813 2.68 8.14207 2.71307C8.18601 2.74615 8.22104 2.78963 8.24402 2.83959L10.4707 7.70944L13.2312 8.22987C13.4058 8.26227 13.5717 8.33037 13.7187 8.4299C13.8657 8.52943 13.9906 8.65825 14.0854 8.80828Z" stroke="#536368" stroke-linecap="round" stroke-linejoin="round"/>
    <line x1="1.5" y1="13.6348" x2="15.5" y2="13.6348" stroke="#536368" stroke-linecap="round"/>
</svg>
