<svg width="155" height="15" viewBox="0 0 155 15" fill="none" xmlns="http://www.w3.org/2000/svg">
<path fill-rule="evenodd" clip-rule="evenodd" d="M14 6.91748C14 10.7379 10.866 13.835 7 13.835C3.13401 13.835 0 10.7379 0 6.91748C0 3.09706 3.13401 0 7 0C10.866 0 14 3.09706 14 6.91748ZM2.95937 6.41754C2.95937 6.08886 3.27438 5.76739 3.62444 5.76739C3.97449 5.76739 4.2895 6.08886 4.2895 6.41754V7.8C4.2114 7.76892 4.13578 7.73633 4.06287 7.70227C3.28422 7.33852 2.95937 6.88874 2.95937 6.41754ZM5.4895 6.41754V8.12848C5.96594 8.21196 6.478 8.25533 6.99793 8.25533C7.51786 8.25533 8.02992 8.21196 8.50636 8.12848V6.41754C8.50636 5.41274 9.37208 4.56739 10.3714 4.56739C11.3708 4.56739 12.2365 5.41274 12.2365 6.41754C12.2365 7.57154 11.4017 8.34064 10.4409 8.78949C10.2104 8.89716 9.96416 8.9912 9.70636 9.07201V11.4181C9.70636 11.7495 9.43773 12.0181 9.10636 12.0181C8.77499 12.0181 8.50636 11.7495 8.50636 11.4181V9.34427C8.01245 9.41904 7.50216 9.45533 6.99793 9.45533C6.4937 9.45533 5.98341 9.41904 5.4895 9.34427V11.4181C5.4895 11.7495 5.22087 12.0181 4.8895 12.0181C4.55812 12.0181 4.2895 11.7495 4.2895 11.4181V9.07201C4.0317 8.9912 3.78546 8.89716 3.55497 8.78949C2.59416 8.34064 1.75937 7.57154 1.75937 6.41754C1.75937 5.41274 2.62509 4.56739 3.62444 4.56739C4.62378 4.56739 5.4895 5.41274 5.4895 6.41754ZM9.93299 7.70227C9.86007 7.73633 9.78446 7.76892 9.70636 7.8V6.41754C9.70636 6.08886 10.0214 5.76739 10.3714 5.76739C10.7215 5.76739 11.0365 6.08886 11.0365 6.41754C11.0365 6.88874 10.7116 7.33852 9.93299 7.70227Z" fill="white"/>
<path d="M20.232 12H21.912V2.2H20.232V12ZM24.8786 2.2V12H26.5586V5.266L31.4586 12H32.9706V2.2H31.2906V8.948L26.3906 2.2H24.8786ZM40.6368 9.438C40.6368 10.236 39.7688 10.572 38.9288 10.572C37.4448 10.572 36.6048 9.102 36.6048 9.102L35.3448 10.166C35.3448 10.166 36.4788 12.168 38.9288 12.168C40.7768 12.168 42.3448 11.216 42.3448 9.438C42.3448 7.66 41.0988 6.988 39.6008 6.428C38.2568 5.924 37.4868 5.658 37.4868 4.804C37.4868 4.146 38.1448 3.628 38.9848 3.628C40.2028 3.628 41.0148 4.734 41.0148 4.734L42.1768 3.586C42.1768 3.586 41.0288 2.032 38.9848 2.032C37.0108 2.032 35.7788 3.418 35.7788 4.804C35.7788 6.624 37.4028 7.408 38.8448 7.912C40.0068 8.318 40.6368 8.612 40.6368 9.438ZM44.959 12H46.639V2.2H44.959V12ZM54.1975 10.6C52.2235 10.6 50.7535 8.99 50.7535 7.1C50.7535 5.21 52.1535 3.6 54.1275 3.6C55.7935 3.6 56.6055 4.622 56.6055 4.622L57.7535 3.502C57.7535 3.502 56.5355 2.032 54.1275 2.032C51.2575 2.032 49.0455 4.202 49.0455 7.1C49.0455 9.998 51.3275 12.168 54.1975 12.168C56.5775 12.168 57.8235 10.936 57.8235 10.936V6.484H53.9455V8.052H56.1715V10.124C56.1715 10.124 55.5975 10.6 54.1975 10.6ZM66.152 6.19H61.966V2.2H60.286V12H61.966V7.786H66.152V12H67.832V2.2H66.152V6.19ZM72.4593 12H74.1393V3.796H76.8413V2.2H69.7573V3.796H72.4593V12ZM83.6758 9.438C83.6758 10.236 82.8078 10.572 81.9678 10.572C80.4838 10.572 79.6438 9.102 79.6438 9.102L78.3838 10.166C78.3838 10.166 79.5178 12.168 81.9678 12.168C83.8158 12.168 85.3838 11.216 85.3838 9.438C85.3838 7.66 84.1378 6.988 82.6398 6.428C81.2958 5.924 80.5258 5.658 80.5258 4.804C80.5258 4.146 81.1838 3.628 82.0238 3.628C83.2418 3.628 84.0538 4.734 84.0538 4.734L85.2158 3.586C85.2158 3.586 84.0678 2.032 82.0238 2.032C80.0498 2.032 78.8178 3.418 78.8178 4.804C78.8178 6.624 80.4418 7.408 81.8838 7.912C83.0458 8.318 83.6758 8.612 83.6758 9.438Z" fill="white"/>
<path d="M20.232 12H20.032V12.2H20.232V12ZM21.912 12V12.2H22.112V12H21.912ZM21.912 2.2H22.112V2H21.912V2.2ZM20.232 2.2V2H20.032V2.2H20.232ZM20.232 12.2H21.912V11.8H20.232V12.2ZM22.112 12V2.2H21.712V12H22.112ZM21.912 2H20.232V2.4H21.912V2ZM20.032 2.2V12H20.432V2.2H20.032ZM24.8786 2.2V2H24.6786V2.2H24.8786ZM24.8786 12H24.6786V12.2H24.8786V12ZM26.5586 12V12.2H26.7586V12H26.5586ZM26.5586 5.266L26.7203 5.14832L26.3586 4.65122V5.266H26.5586ZM31.4586 12L31.2969 12.1177L31.3568 12.2H31.4586V12ZM32.9706 12V12.2H33.1706V12H32.9706ZM32.9706 2.2H33.1706V2H32.9706V2.2ZM31.2906 2.2V2H31.0906V2.2H31.2906ZM31.2906 8.948L31.1287 9.06551L31.4906 9.56381V8.948H31.2906ZM26.3906 2.2L26.5524 2.08248L26.4925 2H26.3906V2.2ZM24.6786 2.2V12H25.0786V2.2H24.6786ZM24.8786 12.2H26.5586V11.8H24.8786V12.2ZM26.7586 12V5.266H26.3586V12H26.7586ZM26.3969 5.38367L31.2969 12.1177L31.6203 11.8823L26.7203 5.14832L26.3969 5.38367ZM31.4586 12.2H32.9706V11.8H31.4586V12.2ZM33.1706 12V2.2H32.7706V12H33.1706ZM32.9706 2H31.2906V2.4H32.9706V2ZM31.0906 2.2V8.948H31.4906V2.2H31.0906ZM31.4524 8.83049L26.5524 2.08248L26.2287 2.31751L31.1287 9.06551L31.4524 8.83049ZM26.3906 2H24.8786V2.4H26.3906V2ZM36.6048 9.102L36.7784 9.00277L36.6593 8.79423L36.4757 8.94919L36.6048 9.102ZM35.3448 10.166L35.2157 10.0132L35.089 10.1202L35.1708 10.2646L35.3448 10.166ZM39.6008 6.428L39.5306 6.61527L39.5307 6.61534L39.6008 6.428ZM41.0148 4.734L40.8536 4.85236L40.9906 5.03902L41.1553 4.87628L41.0148 4.734ZM42.1768 3.586L42.3173 3.72828L42.4406 3.60651L42.3376 3.46716L42.1768 3.586ZM38.8448 7.912L38.7788 8.1008L38.7788 8.10081L38.8448 7.912ZM40.4368 9.438C40.4368 9.74889 40.2739 9.9735 39.9987 10.1305C39.7162 10.2917 39.3266 10.372 38.9288 10.372V10.772C39.3709 10.772 39.8354 10.6843 40.1969 10.478C40.5657 10.2675 40.8368 9.92511 40.8368 9.438H40.4368ZM38.9288 10.372C38.2562 10.372 37.7216 10.0391 37.3464 9.69049C37.1598 9.51704 37.0165 9.34315 36.92 9.21275C36.8719 9.1477 36.8357 9.09389 36.812 9.05693C36.8001 9.03846 36.7913 9.02424 36.7857 9.01497C36.7829 9.01034 36.7809 9.00694 36.7797 9.00488C36.7791 9.00385 36.7787 9.00315 36.7784 9.00279C36.7783 9.00262 36.7783 9.00253 36.7783 9.00252C36.7783 9.00252 36.7783 9.00254 36.7783 9.00258C36.7783 9.0026 36.7784 9.00265 36.7784 9.00266C36.7784 9.00271 36.7784 9.00277 36.6048 9.102C36.4311 9.20123 36.4312 9.2013 36.4312 9.20137C36.4312 9.20141 36.4313 9.20149 36.4313 9.20155C36.4314 9.20168 36.4315 9.20184 36.4316 9.20201C36.4318 9.20237 36.432 9.20281 36.4323 9.20334C36.433 9.20439 36.4338 9.2058 36.4348 9.20755C36.4369 9.21105 36.4398 9.21591 36.4435 9.22205C36.4509 9.23431 36.4616 9.25167 36.4756 9.2734C36.5035 9.31683 36.5446 9.37786 36.5984 9.45062C36.7058 9.59585 36.8653 9.78946 37.0741 9.98351C37.49 10.3699 38.1174 10.772 38.9288 10.772V10.372ZM36.4757 8.94919L35.2157 10.0132L35.4738 10.3188L36.7338 9.25481L36.4757 8.94919ZM35.3448 10.166C35.1708 10.2646 35.1708 10.2647 35.1709 10.2648C35.1709 10.2648 35.1709 10.2649 35.171 10.265C35.1711 10.2651 35.1712 10.2653 35.1713 10.2656C35.1716 10.266 35.1719 10.2666 35.1723 10.2673C35.1731 10.2687 35.1742 10.2706 35.1756 10.2729C35.1783 10.2775 35.1822 10.2841 35.1872 10.2923C35.1972 10.3088 35.2117 10.3322 35.2309 10.3615C35.2692 10.4201 35.3261 10.5025 35.4018 10.6009C35.5531 10.7973 35.781 11.0584 36.0886 11.3195C36.7047 11.8424 37.645 12.368 38.9288 12.368V11.968C37.7626 11.968 36.9108 11.4926 36.3474 11.0145C36.0654 10.7751 35.8565 10.5357 35.7187 10.3568C35.6498 10.2674 35.5989 10.1934 35.5657 10.1426C35.5491 10.1172 35.5369 10.0975 35.5291 10.0847C35.5252 10.0783 35.5224 10.0735 35.5207 10.0706C35.5198 10.0691 35.5192 10.0681 35.5189 10.0676C35.5188 10.0673 35.5187 10.0672 35.5187 10.0672C35.5186 10.0671 35.5187 10.0672 35.5187 10.0672C35.5187 10.0672 35.5187 10.0673 35.5187 10.0673C35.5188 10.0674 35.5188 10.0674 35.3448 10.166ZM38.9288 12.368C39.8843 12.368 40.7831 12.1223 41.4486 11.6306C42.12 11.1346 42.5448 10.3937 42.5448 9.438H42.1448C42.1448 10.2603 41.7856 10.8844 41.2109 11.3089C40.6304 11.7377 39.8213 11.968 38.9288 11.968V12.368ZM42.5448 9.438C42.5448 8.4937 42.2103 7.82774 41.6702 7.32927C41.1404 6.84041 40.4218 6.5214 39.6708 6.24066L39.5307 6.61534C40.2778 6.8946 40.9311 7.19159 41.3989 7.62323C41.8562 8.04526 42.1448 8.6043 42.1448 9.438H42.5448ZM39.671 6.24073C38.9883 5.9847 38.4865 5.80089 38.1494 5.57997C37.9852 5.47235 37.872 5.36298 37.7989 5.24307C37.7271 5.12528 37.6868 4.98544 37.6868 4.804H37.2868C37.2868 5.04956 37.3427 5.26322 37.4573 5.45124C37.5706 5.63715 37.7339 5.7859 37.9302 5.91453C38.314 6.16611 38.8693 6.3673 39.5306 6.61527L39.671 6.24073ZM37.6868 4.804C37.6868 4.2987 38.2076 3.828 38.9848 3.828V3.428C38.0819 3.428 37.2868 3.9933 37.2868 4.804H37.6868ZM38.9848 3.828C39.5324 3.828 39.9974 4.07711 40.3337 4.33883C40.5007 4.4688 40.6321 4.59899 40.7215 4.69642C40.7661 4.74502 40.8 4.78516 40.8223 4.81263C40.8335 4.82635 40.8417 4.83688 40.847 4.84369C40.8496 4.84709 40.8515 4.84956 40.8526 4.85102C40.8531 4.85176 40.8535 4.85224 40.8536 4.85247C40.8537 4.85258 40.8538 4.85263 40.8538 4.85261C40.8537 4.8526 40.8537 4.85258 40.8537 4.85254C40.8537 4.85251 40.8536 4.85247 40.8536 4.85246C40.8536 4.85241 40.8536 4.85236 41.0148 4.734C41.176 4.61564 41.176 4.61558 41.1759 4.61551C41.1759 4.61549 41.1758 4.61542 41.1758 4.61536C41.1757 4.61525 41.1756 4.61513 41.1755 4.61498C41.1753 4.6147 41.175 4.61435 41.1747 4.61393C41.1741 4.61309 41.1733 4.61199 41.1723 4.61063C41.1702 4.60791 41.1674 4.60417 41.1638 4.59947C41.1565 4.59008 41.1461 4.57684 41.1327 4.56033C41.1059 4.5273 41.0668 4.48104 41.0162 4.42596C40.9153 4.31601 40.7676 4.1697 40.5794 4.02317C40.2051 3.73189 39.6551 3.428 38.9848 3.428V3.828ZM41.1553 4.87628L42.3173 3.72828L42.0362 3.44372L40.8742 4.59172L41.1553 4.87628ZM42.1768 3.586C42.3376 3.46716 42.3376 3.46709 42.3375 3.46701C42.3375 3.46698 42.3374 3.46689 42.3374 3.46682C42.3373 3.46669 42.3372 3.46653 42.337 3.46634C42.3368 3.46597 42.3364 3.46551 42.336 3.46496C42.3352 3.46385 42.3341 3.46237 42.3327 3.46053C42.3299 3.45685 42.3259 3.45174 42.3209 3.44529C42.3108 3.43239 42.2962 3.41412 42.2772 3.39125C42.2391 3.34553 42.1832 3.28133 42.1099 3.20483C41.9635 3.052 41.7469 2.84916 41.4637 2.64639C40.8976 2.24098 40.0597 1.832 38.9848 1.832V2.232C39.9539 2.232 40.712 2.60002 41.2308 2.9716C41.4902 3.15734 41.6883 3.343 41.821 3.48154C41.8873 3.55073 41.9371 3.60794 41.9698 3.6472C41.9861 3.66683 41.9982 3.68195 42.0059 3.69181C42.0097 3.69674 42.0125 3.70035 42.0142 3.70255C42.015 3.70366 42.0156 3.7044 42.0159 3.70479C42.016 3.70498 42.0161 3.70508 42.0161 3.70509C42.0161 3.7051 42.0161 3.70508 42.0161 3.70503C42.016 3.70501 42.016 3.70496 42.016 3.70495C42.016 3.7049 42.0159 3.70484 42.1768 3.586ZM38.9848 1.832C36.9128 1.832 35.5788 3.29546 35.5788 4.804H35.9788C35.9788 3.54053 37.1088 2.232 38.9848 2.232V1.832ZM35.5788 4.804C35.5788 5.78451 36.0205 6.48855 36.6433 7.00541C37.2585 7.51594 38.0537 7.84737 38.7788 8.1008L38.9108 7.7232C38.1939 7.47263 37.456 7.16006 36.8988 6.69759C36.3491 6.24145 35.9788 5.64349 35.9788 4.804H35.5788ZM38.7788 8.10081C39.3648 8.30556 39.7826 8.47164 40.0564 8.67739C40.1892 8.77722 40.2818 8.88211 40.3424 8.9997C40.4027 9.11693 40.4368 9.25782 40.4368 9.438H40.8368C40.8368 9.20518 40.7921 8.99957 40.698 8.81668C40.6041 8.63414 40.4666 8.48528 40.2967 8.35761C39.965 8.10836 39.4867 7.92444 38.9107 7.72319L38.7788 8.10081ZM44.959 12H44.759V12.2H44.959V12ZM46.639 12V12.2H46.839V12H46.639ZM46.639 2.2H46.839V2H46.639V2.2ZM44.959 2.2V2H44.759V2.2H44.959ZM44.959 12.2H46.639V11.8H44.959V12.2ZM46.839 12V2.2H46.439V12H46.839ZM46.639 2H44.959V2.4H46.639V2ZM44.759 2.2V12H45.159V2.2H44.759ZM56.6055 4.622L56.4489 4.74641L56.5867 4.91979L56.7452 4.76516L56.6055 4.622ZM57.7535 3.502L57.8932 3.64516L58.0252 3.51639L57.9075 3.3744L57.7535 3.502ZM57.8235 10.936L57.9641 11.0782L58.0235 11.0195V10.936H57.8235ZM57.8235 6.484H58.0235V6.284H57.8235V6.484ZM53.9455 6.484V6.284H53.7455V6.484H53.9455ZM53.9455 8.052H53.7455V8.252H53.9455V8.052ZM56.1715 8.052H56.3715V7.852H56.1715V8.052ZM56.1715 10.124L56.2992 10.278L56.3715 10.218V10.124H56.1715ZM54.1975 10.4C52.3413 10.4 50.9535 8.88699 50.9535 7.1H50.5535C50.5535 9.09301 52.1058 10.8 54.1975 10.8V10.4ZM50.9535 7.1C50.9535 5.30743 52.2766 3.8 54.1275 3.8V3.4C52.0305 3.4 50.5535 5.11257 50.5535 7.1H50.9535ZM54.1275 3.8C54.9175 3.8 55.5009 4.04181 55.8857 4.28088C56.0786 4.4007 56.2218 4.52002 56.3158 4.60819C56.3628 4.65224 56.3973 4.6884 56.4195 4.71277C56.4306 4.72495 56.4386 4.73418 56.4435 4.73995C56.446 4.74284 56.4477 4.74486 56.4486 4.74596C56.449 4.74651 56.4493 4.74683 56.4493 4.7469C56.4494 4.74694 56.4493 4.74692 56.4493 4.74684C56.4492 4.7468 56.4492 4.74675 56.4491 4.74667C56.4491 4.74664 56.4491 4.74657 56.4491 4.74656C56.449 4.74649 56.4489 4.74641 56.6055 4.622C56.7621 4.49758 56.7621 4.4975 56.762 4.49742C56.762 4.49739 56.7619 4.4973 56.7618 4.49723C56.7617 4.4971 56.7616 4.49695 56.7615 4.49679C56.7612 4.49646 56.7609 4.49607 56.7605 4.49561C56.7598 4.49471 56.7589 4.49356 56.7577 4.49218C56.7555 4.48941 56.7524 4.48569 56.7485 4.48109C56.7407 4.4719 56.7296 4.45916 56.7152 4.4434C56.6865 4.41188 56.6446 4.36819 56.5894 4.31643C56.4791 4.21298 56.3152 4.0768 56.0968 3.94112C55.6591 3.66919 55.0036 3.4 54.1275 3.4V3.8ZM56.7452 4.76516L57.8932 3.64516L57.6139 3.35884L56.4659 4.47884L56.7452 4.76516ZM57.7535 3.502C57.9075 3.3744 57.9075 3.37432 57.9074 3.37423C57.9074 3.3742 57.9073 3.37411 57.9072 3.37404C57.9071 3.37389 57.907 3.37373 57.9068 3.37354C57.9065 3.37317 57.9061 3.3727 57.9057 3.37215C57.9047 3.37105 57.9035 3.3696 57.902 3.36781C57.8989 3.36423 57.8946 3.3593 57.8892 3.3531C57.8782 3.3407 57.8624 3.32323 57.8418 3.30142C57.8006 3.25782 57.74 3.19681 57.66 3.12423C57.5002 2.97914 57.2625 2.78735 56.9473 2.59603C56.3161 2.21293 55.3742 1.832 54.1275 1.832V2.232C55.2889 2.232 56.16 2.58607 56.7398 2.93797C57.03 3.11415 57.2474 3.28986 57.3912 3.4204C57.463 3.48563 57.5164 3.53946 57.5512 3.57625C57.5686 3.59464 57.5813 3.60875 57.5894 3.61788C57.5934 3.62245 57.5963 3.62577 57.5979 3.62775C57.5988 3.62874 57.5994 3.6294 57.5996 3.62971C57.5997 3.62987 57.5998 3.62994 57.5998 3.62992C57.5998 3.62991 57.5998 3.62988 57.5997 3.62983C57.5997 3.6298 57.5996 3.62975 57.5996 3.62973C57.5996 3.62967 57.5995 3.6296 57.7535 3.502ZM54.1275 1.832C51.1485 1.832 48.8455 4.09009 48.8455 7.1H49.2455C49.2455 4.31391 51.3665 2.232 54.1275 2.232V1.832ZM48.8455 7.1C48.8455 10.1135 51.2221 12.368 54.1975 12.368V11.968C51.4329 11.968 49.2455 9.88254 49.2455 7.1H48.8455ZM54.1975 12.368C55.4232 12.368 56.3604 12.0505 56.9933 11.7305C57.3095 11.5706 57.5495 11.4101 57.7117 11.2885C57.7928 11.2277 57.8545 11.1765 57.8966 11.1398C57.9177 11.1215 57.9339 11.1068 57.9451 11.0963C57.9508 11.0911 57.9552 11.0869 57.9583 11.0839C57.9599 11.0823 57.9612 11.0811 57.9622 11.0802C57.9627 11.0797 57.9631 11.0793 57.9634 11.079C57.9636 11.0788 57.9637 11.0787 57.9638 11.0785C57.9639 11.0785 57.964 11.0784 57.964 11.0784C57.9641 11.0783 57.9641 11.0782 57.8235 10.936C57.6829 10.7938 57.683 10.7937 57.683 10.7937C57.683 10.7937 57.6831 10.7936 57.6831 10.7936C57.6832 10.7935 57.6832 10.7935 57.6832 10.7935C57.6832 10.7935 57.6832 10.7935 57.6831 10.7936C57.6828 10.7939 57.6823 10.7944 57.6814 10.7952C57.6797 10.7968 57.6769 10.7996 57.6728 10.8034C57.6646 10.8109 57.6517 10.8227 57.6341 10.8381C57.5988 10.8688 57.5445 10.9138 57.4717 10.9685C57.3258 11.0779 57.1056 11.2254 56.8128 11.3735C56.2276 11.6695 55.3518 11.968 54.1975 11.968V12.368ZM58.0235 10.936V6.484H57.6235V10.936H58.0235ZM57.8235 6.284H53.9455V6.684H57.8235V6.284ZM53.7455 6.484V8.052H54.1455V6.484H53.7455ZM53.9455 8.252H56.1715V7.852H53.9455V8.252ZM55.9715 8.052V10.124H56.3715V8.052H55.9715ZM56.1715 10.124C56.0439 9.97005 56.044 9.96998 56.044 9.9699C56.0441 9.96988 56.0441 9.96981 56.0442 9.96977C56.0443 9.96969 56.0444 9.96961 56.0445 9.96954C56.0447 9.9694 56.0448 9.96928 56.0449 9.9692C56.0451 9.96903 56.0452 9.96898 56.0451 9.96903C56.045 9.96914 56.0443 9.96969 56.043 9.97064C56.0405 9.97256 56.0358 9.97612 56.0288 9.98109C56.0147 9.99103 55.9914 10.0066 55.9584 10.0261C55.8924 10.065 55.7875 10.1194 55.6395 10.1746C55.3441 10.285 54.8743 10.4 54.1975 10.4V10.8C54.9207 10.8 55.438 10.677 55.7795 10.5494C55.9501 10.4856 56.0761 10.421 56.1615 10.3707C56.2042 10.3455 56.2367 10.3239 56.2595 10.3078C56.2709 10.2998 56.2799 10.2931 56.2865 10.288C56.2898 10.2855 56.2925 10.2834 56.2946 10.2817C56.2956 10.2809 56.2966 10.2801 56.2973 10.2795C56.2977 10.2792 56.2981 10.2789 56.2984 10.2786C56.2985 10.2785 56.2987 10.2784 56.2988 10.2783C56.2989 10.2782 56.299 10.2781 56.299 10.2781C56.2991 10.278 56.2992 10.278 56.1715 10.124ZM66.152 6.19V6.39H66.352V6.19H66.152ZM61.966 6.19H61.766V6.39H61.966V6.19ZM61.966 2.2H62.166V2H61.966V2.2ZM60.286 2.2V2H60.086V2.2H60.286ZM60.286 12H60.086V12.2H60.286V12ZM61.966 12V12.2H62.166V12H61.966ZM61.966 7.786V7.586H61.766V7.786H61.966ZM66.152 7.786H66.352V7.586H66.152V7.786ZM66.152 12H65.952V12.2H66.152V12ZM67.832 12V12.2H68.032V12H67.832ZM67.832 2.2H68.032V2H67.832V2.2ZM66.152 2.2V2H65.952V2.2H66.152ZM66.152 5.99H61.966V6.39H66.152V5.99ZM62.166 6.19V2.2H61.766V6.19H62.166ZM61.966 2H60.286V2.4H61.966V2ZM60.086 2.2V12H60.486V2.2H60.086ZM60.286 12.2H61.966V11.8H60.286V12.2ZM62.166 12V7.786H61.766V12H62.166ZM61.966 7.986H66.152V7.586H61.966V7.986ZM65.952 7.786V12H66.352V7.786H65.952ZM66.152 12.2H67.832V11.8H66.152V12.2ZM68.032 12V2.2H67.632V12H68.032ZM67.832 2H66.152V2.4H67.832V2ZM65.952 2.2V6.19H66.352V2.2H65.952ZM72.4593 12H72.2593V12.2H72.4593V12ZM74.1393 12V12.2H74.3393V12H74.1393ZM74.1393 3.796V3.596H73.9393V3.796H74.1393ZM76.8413 3.796V3.996H77.0413V3.796H76.8413ZM76.8413 2.2H77.0413V2H76.8413V2.2ZM69.7573 2.2V2H69.5573V2.2H69.7573ZM69.7573 3.796H69.5573V3.996H69.7573V3.796ZM72.4593 3.796H72.6593V3.596H72.4593V3.796ZM72.4593 12.2H74.1393V11.8H72.4593V12.2ZM74.3393 12V3.796H73.9393V12H74.3393ZM74.1393 3.996H76.8413V3.596H74.1393V3.996ZM77.0413 3.796V2.2H76.6413V3.796H77.0413ZM76.8413 2H69.7573V2.4H76.8413V2ZM69.5573 2.2V3.796H69.9573V2.2H69.5573ZM69.7573 3.996H72.4593V3.596H69.7573V3.996ZM72.2593 3.796V12H72.6593V3.796H72.2593ZM79.6438 9.102L79.8175 9.00277L79.6983 8.79423L79.5148 8.94919L79.6438 9.102ZM78.3838 10.166L78.2548 10.0132L78.1281 10.1202L78.2098 10.2646L78.3838 10.166ZM82.6398 6.428L82.5696 6.61527L82.5698 6.61534L82.6398 6.428ZM84.0538 4.734L83.8926 4.85236L84.0297 5.03902L84.1944 4.87628L84.0538 4.734ZM85.2158 3.586L85.3564 3.72828L85.4797 3.60651L85.3767 3.46716L85.2158 3.586ZM81.8838 7.912L81.8179 8.1008L81.8179 8.10081L81.8838 7.912ZM83.4758 9.438C83.4758 9.74889 83.3129 9.9735 83.0377 10.1305C82.7552 10.2917 82.3657 10.372 81.9678 10.372V10.772C82.41 10.772 82.8744 10.6843 83.236 10.478C83.6048 10.2675 83.8758 9.92511 83.8758 9.438H83.4758ZM81.9678 10.372C81.2952 10.372 80.7606 10.0391 80.3855 9.69049C80.1988 9.51704 80.0555 9.34315 79.9591 9.21275C79.911 9.1477 79.8748 9.09389 79.851 9.05693C79.8391 9.03846 79.8304 9.02424 79.8248 9.01497C79.822 9.01034 79.8199 9.00694 79.8187 9.00488C79.8181 9.00385 79.8177 9.00315 79.8175 9.00279C79.8174 9.00262 79.8174 9.00253 79.8173 9.00252C79.8173 9.00252 79.8174 9.00254 79.8174 9.00258C79.8174 9.0026 79.8174 9.00265 79.8174 9.00266C79.8175 9.00271 79.8175 9.00277 79.6438 9.102C79.4702 9.20123 79.4702 9.2013 79.4703 9.20137C79.4703 9.20141 79.4703 9.20149 79.4704 9.20155C79.4705 9.20168 79.4705 9.20184 79.4706 9.20201C79.4709 9.20237 79.4711 9.20281 79.4714 9.20334C79.472 9.20439 79.4728 9.2058 79.4739 9.20755C79.4759 9.21105 79.4788 9.21591 79.4825 9.22205C79.4899 9.23431 79.5007 9.25167 79.5147 9.2734C79.5426 9.31683 79.5837 9.37786 79.6375 9.45062C79.7449 9.59585 79.9044 9.78946 80.1132 9.98351C80.529 10.3699 81.1565 10.772 81.9678 10.772V10.372ZM79.5148 8.94919L78.2548 10.0132L78.5129 10.3188L79.7729 9.25481L79.5148 8.94919ZM78.3838 10.166C78.2098 10.2646 78.2099 10.2647 78.2099 10.2648C78.2099 10.2648 78.21 10.2649 78.2101 10.265C78.2101 10.2651 78.2103 10.2653 78.2104 10.2656C78.2107 10.266 78.211 10.2666 78.2114 10.2673C78.2122 10.2687 78.2133 10.2706 78.2146 10.2729C78.2174 10.2775 78.2212 10.2841 78.2262 10.2923C78.2362 10.3088 78.2508 10.3322 78.27 10.3615C78.3083 10.4201 78.3651 10.5025 78.4409 10.6009C78.5922 10.7973 78.82 11.0584 79.1277 11.3195C79.7438 11.8424 80.684 12.368 81.9678 12.368V11.968C80.8017 11.968 79.9499 11.4926 79.3865 11.0145C79.1044 10.7751 78.8956 10.5357 78.7578 10.3568C78.6889 10.2674 78.638 10.1934 78.6048 10.1426C78.5881 10.1172 78.5759 10.0975 78.5681 10.0847C78.5642 10.0783 78.5614 10.0735 78.5597 10.0706C78.5589 10.0691 78.5583 10.0681 78.558 10.0676C78.5578 10.0673 78.5577 10.0672 78.5577 10.0672C78.5577 10.0671 78.5577 10.0672 78.5577 10.0672C78.5578 10.0672 78.5578 10.0673 78.5578 10.0673C78.5578 10.0674 78.5579 10.0674 78.3838 10.166ZM81.9678 12.368C82.9233 12.368 83.8222 12.1223 84.4877 11.6306C85.1591 11.1346 85.5838 10.3937 85.5838 9.438H85.1838C85.1838 10.2603 84.8246 10.8844 84.25 11.3089C83.6695 11.7377 82.8604 11.968 81.9678 11.968V12.368ZM85.5838 9.438C85.5838 8.4937 85.2494 7.82774 84.7092 7.32927C84.1795 6.84041 83.4609 6.5214 82.7099 6.24066L82.5698 6.61534C83.3168 6.8946 83.9702 7.19159 84.438 7.62323C84.8953 8.04526 85.1838 8.6043 85.1838 9.438H85.5838ZM82.7101 6.24073C82.0273 5.9847 81.5256 5.80089 81.1885 5.57997C81.0243 5.47235 80.911 5.36298 80.8379 5.24307C80.7662 5.12528 80.7258 4.98544 80.7258 4.804H80.3258C80.3258 5.04956 80.3818 5.26322 80.4964 5.45124C80.6097 5.63715 80.7729 5.7859 80.9692 5.91453C81.3531 6.16611 81.9084 6.3673 82.5696 6.61527L82.7101 6.24073ZM80.7258 4.804C80.7258 4.2987 81.2467 3.828 82.0238 3.828V3.428C81.121 3.428 80.3258 3.9933 80.3258 4.804H80.7258ZM82.0238 3.828C82.5715 3.828 83.0365 4.07711 83.3728 4.33883C83.5397 4.4688 83.6712 4.59899 83.7606 4.69642C83.8052 4.74502 83.8391 4.78516 83.8614 4.81263C83.8725 4.82635 83.8808 4.83688 83.886 4.84369C83.8887 4.84709 83.8905 4.84956 83.8916 4.85102C83.8922 4.85176 83.8925 4.85224 83.8927 4.85247C83.8928 4.85258 83.8928 4.85263 83.8928 4.85261C83.8928 4.8526 83.8928 4.85258 83.8928 4.85254C83.8927 4.85251 83.8927 4.85247 83.8927 4.85246C83.8927 4.85241 83.8926 4.85236 84.0538 4.734C84.2151 4.61564 84.215 4.61558 84.215 4.61551C84.215 4.61549 84.2149 4.61542 84.2149 4.61536C84.2148 4.61525 84.2147 4.61513 84.2146 4.61498C84.2144 4.6147 84.2141 4.61435 84.2138 4.61393C84.2132 4.61309 84.2123 4.61199 84.2113 4.61063C84.2093 4.60791 84.2065 4.60417 84.2028 4.59947C84.1956 4.59008 84.1852 4.57684 84.1718 4.56033C84.1449 4.5273 84.1058 4.48104 84.0553 4.42596C83.9544 4.31601 83.8067 4.1697 83.6184 4.02317C83.2442 3.73189 82.6942 3.428 82.0238 3.428V3.828ZM84.1944 4.87628L85.3564 3.72828L85.0753 3.44372L83.9133 4.59172L84.1944 4.87628ZM85.2158 3.586C85.3767 3.46716 85.3767 3.46709 85.3766 3.46701C85.3766 3.46698 85.3765 3.46689 85.3765 3.46682C85.3764 3.46669 85.3762 3.46653 85.3761 3.46634C85.3758 3.46597 85.3755 3.46551 85.3751 3.46496C85.3742 3.46385 85.3731 3.46237 85.3717 3.46053C85.3689 3.45685 85.365 3.45174 85.36 3.44529C85.3499 3.43239 85.3353 3.41412 85.3162 3.39125C85.2781 3.34553 85.2222 3.28133 85.149 3.20483C85.0025 3.052 84.7859 2.84916 84.5028 2.64639C83.9367 2.24098 83.0987 1.832 82.0238 1.832V2.232C82.993 2.232 83.751 2.60002 84.2699 2.9716C84.5293 3.15734 84.7274 3.343 84.8601 3.48154C84.9264 3.55073 84.9761 3.60794 85.0088 3.6472C85.0252 3.66683 85.0372 3.68195 85.045 3.69181C85.0488 3.69674 85.0516 3.70035 85.0533 3.70255C85.0541 3.70366 85.0547 3.7044 85.0549 3.70479C85.0551 3.70498 85.0552 3.70508 85.0552 3.70509C85.0552 3.7051 85.0552 3.70508 85.0551 3.70503C85.0551 3.70501 85.0551 3.70496 85.0551 3.70495C85.055 3.7049 85.055 3.70484 85.2158 3.586ZM82.0238 1.832C79.9519 1.832 78.6178 3.29546 78.6178 4.804H79.0178C79.0178 3.54053 80.1478 2.232 82.0238 2.232V1.832ZM78.6178 4.804C78.6178 5.78451 79.0595 6.48855 79.6824 7.00541C80.2976 7.51594 81.0928 7.84737 81.8179 8.1008L81.9498 7.7232C81.2329 7.47263 80.4951 7.16006 79.9378 6.69759C79.3881 6.24145 79.0178 5.64349 79.0178 4.804H78.6178ZM81.8179 8.10081C82.4039 8.30556 82.8216 8.47164 83.0955 8.67739C83.2283 8.77722 83.3209 8.88211 83.3814 8.9997C83.4417 9.11693 83.4758 9.25782 83.4758 9.438H83.8758C83.8758 9.20518 83.8312 8.99957 83.7371 8.81668C83.6432 8.63414 83.5056 8.48528 83.3357 8.35761C83.0041 8.10836 82.5258 7.92444 81.9498 7.72319L81.8179 8.10081Z" fill="white"/>
<path d="M145.853 4.73718C143.832 4.73718 142.249 6.35338 142.249 8.41623C142.249 10.4509 143.822 12.0455 145.828 12.0455C147.849 12.0455 149.432 10.4287 149.432 8.3656C149.432 6.3309 147.86 4.73718 145.853 4.73718ZM145.853 10.9255C144.51 10.9255 143.457 9.80156 143.457 8.3656C143.457 6.9351 144.477 5.85505 145.828 5.85505C147.171 5.85505 148.223 6.98054 148.223 8.41623C148.223 9.84666 147.204 10.9255 145.853 10.9255Z" fill="white"/>
<path d="M153.442 10.7602C153.373 10.7602 153.313 10.7786 153.241 10.8021C153.136 10.8357 152.976 10.8872 152.707 10.8872C151.997 10.8872 151.681 10.5827 151.681 9.89955V5.99434H153.442C153.745 5.99434 154.001 5.74409 154.001 5.44707C154.001 5.14458 153.745 4.88803 153.442 4.88803H151.681V3.35495C151.681 3.02698 151.423 2.76965 151.096 2.76965C150.77 2.76965 150.523 3.02158 150.523 3.35495V4.88803H150.094C149.79 4.88803 149.534 5.13772 149.534 5.43425C149.534 5.73268 149.796 5.99441 150.094 5.99441H150.523V9.96256C150.523 11.2235 151.321 12.0073 152.606 12.0073C153.037 12.0073 153.369 11.91 153.616 11.823C153.854 11.7283 153.99 11.5402 153.99 11.3072C153.99 11.0108 153.738 10.7602 153.442 10.7602Z" fill="white"/>
<path d="M140.63 2.04639C140.298 2.04639 140.046 2.29832 140.046 2.63168V5.73362C139.391 5.10457 138.543 4.73724 137.72 4.73724H137.649C135.972 4.73724 134.236 6.095 134.236 8.36566V8.40887C134.246 10.6845 135.979 12.0455 137.649 12.0455H137.72C139.576 12.0455 141.204 10.3377 141.204 8.39087V2.63175C141.204 2.29825 140.957 2.04639 140.63 2.04639ZM137.72 10.8818C136.423 10.8818 135.368 9.76389 135.368 8.39087C135.368 7.01758 136.423 5.90055 137.72 5.90055C138.831 5.90055 140.072 6.96562 140.072 8.39087C140.072 9.71711 138.973 10.8818 137.72 10.8818Z" fill="white"/>
<path d="M117.75 2.04639C117.428 2.04639 117.177 2.30378 117.177 2.63168V11.359C117.177 11.6924 117.428 11.943 117.762 11.943C118.089 11.943 118.334 11.6924 118.334 11.359V2.63168C118.334 2.30371 118.078 2.04639 117.75 2.04639Z" fill="white"/>
<path d="M129.971 4.73718C128.1 4.73718 126.634 6.34735 126.634 8.40285C126.634 10.4786 128.112 12.0455 130.072 12.0455C131.181 12.0455 131.993 11.7072 132.787 10.9148C132.934 10.7655 132.966 10.6109 132.966 10.5083C132.966 10.1998 132.71 9.94875 132.394 9.94875C132.248 9.94875 132.113 10.0067 132.003 10.1148C131.438 10.6676 130.833 10.9255 130.098 10.9255C128.943 10.9255 128.06 10.123 127.862 8.91239H132.635C132.94 8.91239 133.207 8.65065 133.207 8.35223C133.207 6.25738 131.846 4.73718 129.971 4.73718ZM129.946 5.84244C131.214 5.84244 131.815 6.83609 131.968 7.81833H127.865C128.068 6.64683 128.906 5.84244 129.946 5.84244Z" fill="white"/>
<path d="M112.534 4.69142L112.485 4.69086C111.66 4.69086 110.813 5.05818 110.158 5.68647V2.58529C110.158 2.25109 109.907 2 109.572 2C109.246 2 109 2.25109 109 2.58529V8.23616L109.001 8.29029L109 8.3442C109 10.2905 110.628 11.9984 112.485 11.9984H112.553C114.224 11.9984 115.958 10.636 115.967 8.35709V8.31934C115.967 6.04917 114.222 4.69142 112.534 4.69142ZM114.836 8.3442C114.836 9.71722 113.781 10.8354 112.485 10.8354C111.232 10.8354 110.132 9.67073 110.132 8.3442C110.132 6.91867 111.374 5.85332 112.485 5.85332C113.781 5.85332 114.836 6.97063 114.836 8.3442Z" fill="white"/>
<path d="M124.91 4.83789C124.578 4.83789 124.326 5.08982 124.326 5.42241V9.00028C124.326 10.175 123.693 10.898 122.644 10.9343C121.563 10.8974 120.942 10.1925 120.942 9.00028V5.42241C120.942 5.08982 120.691 4.83789 120.358 4.83789C120.031 4.83789 119.784 5.08982 119.784 5.42241V9.11434C119.784 10.8892 120.903 12.0396 122.634 12.0456H122.637C124.366 12.0396 125.483 10.8891 125.483 9.11434V5.42241C125.483 5.08982 125.237 4.83789 124.91 4.83789Z" fill="white"/>
<path d="M94.78 6.312C93.556 6.312 92.992 7.14 92.992 7.14V2.928H91.984V12H92.908V11.196C92.908 11.196 93.448 12.144 94.78 12.144C96.28 12.144 97.468 10.86 97.468 9.228C97.468 7.596 96.28 6.312 94.78 6.312ZM92.992 8.208C92.992 8.208 93.52 7.248 94.624 7.248C95.728 7.248 96.46 8.136 96.46 9.228C96.46 10.32 95.752 11.208 94.624 11.208C93.52 11.208 92.992 10.248 92.992 10.248V8.208ZM98.1795 14.508C98.1795 14.508 98.6715 14.904 99.3555 14.904C99.9435 14.904 100.567 14.592 100.891 13.788C101.023 13.464 103.807 6.456 103.807 6.456H102.715L101.059 10.836L99.1155 6.456H97.9755L100.567 12.024L100.135 13.116C99.9195 13.656 99.7155 13.968 99.2715 13.968C98.9595 13.968 98.6115 13.68 98.6115 13.68L98.1795 14.508Z" fill="white"/>
</svg>
