<svg width="157" height="25" viewBox="0 0 157 25" fill=".0317V16" 
    xmlns="http://www.w3.org/2000/svg">
    <path fill-rule="evenodd" clip-rule="evenodd" d="M14 11.2871C14 15.1531 10.866 18.2871 7 18.2871C3.13401 18.2871 0 15.1531 0 11.2871C0 7.42112 3.13401 4.28711 7 4.28711C10.866 4.28711 14 7.42112 14 11.2871ZM2.96133 10.7817C2.96133 10.4383 3.28306 10.1166 3.62639 10.1166C3.96972 10.1166 4.29145 10.4383 4.29145 10.7817V12.1873C4.21423 12.1561 4.13944 12.1235 4.0673 12.0894C3.29129 11.7225 2.96133 11.2664 2.96133 10.7817ZM5.49145 10.7817V12.5201C5.96783 12.6046 6.4799 12.6485 6.99988 12.6485C7.51987 12.6485 8.03194 12.6046 8.50832 12.5201V10.7817C8.50832 9.77559 9.36731 8.9166 10.3734 8.9166C11.3794 8.9166 12.2384 9.77559 12.2384 10.7817C12.2384 11.9415 11.4088 12.7188 10.4453 13.1743C10.2141 13.2836 9.96701 13.379 9.70832 13.461V15.8419C9.70832 16.1733 9.43969 16.4419 9.10832 16.4419C8.77695 16.4419 8.50832 16.1733 8.50832 15.8419V13.7362C8.01437 13.8118 7.50409 13.8485 6.99988 13.8485C6.49567 13.8485 5.98539 13.8118 5.49145 13.7362V15.8419C5.49145 16.1733 5.22282 16.4419 4.89145 16.4419C4.56008 16.4419 4.29145 16.1733 4.29145 15.8419V13.461C4.03276 13.379 3.78568 13.2836 3.55445 13.1743C2.591 12.7188 1.76133 11.9415 1.76133 10.7817C1.76133 9.77559 2.62032 8.9166 3.62639 8.9166C4.63246 8.9166 5.49145 9.77559 5.49145 10.7817ZM9.93246 12.0894C9.86032 12.1235 9.78553 12.1561 9.70832 12.1873V10.7817C9.70832 10.4383 10.03 10.1166 10.3734 10.1166C10.7167 10.1166 11.0384 10.4383 11.0384 10.7817C11.0384 11.2664 10.7085 11.7225 9.93246 12.0894Z" fill="white"/>
    <path d="M24.078 8.12981H26.136V17.2578H24.078V8.12981ZM28.6389 8.12981H30.7529L33.1329 12.6658L34.0289 14.6818H34.0849C34.0383 14.1965 33.9823 13.6551 33.9169 13.0578C33.8609 12.4605 33.8329 11.8911 33.8329 11.3498V8.12981H35.7929V17.2578H33.6789L31.2989 12.7078L30.4029 10.7198H30.3469C30.3936 11.2238 30.4449 11.7651 30.5009 12.3438C30.5663 12.9225 30.5989 13.4825 30.5989 14.0238V17.2578H28.6389V8.12981ZM38.8875 14.6958C39.2142 14.9758 39.5735 15.2045 39.9655 15.3818C40.3668 15.5591 40.7588 15.6478 41.1415 15.6478C41.5708 15.6478 41.8882 15.5685 42.0935 15.4098C42.3082 15.2511 42.4155 15.0365 42.4155 14.7658C42.4155 14.6258 42.3828 14.5045 42.3175 14.4018C42.2615 14.2991 42.1728 14.2105 42.0515 14.1358C41.9395 14.0518 41.7995 13.9771 41.6315 13.9118C41.4728 13.8371 41.2955 13.7578 41.0995 13.6738L39.9095 13.1698C39.6762 13.0765 39.4475 12.9551 39.2235 12.8058C39.0088 12.6565 38.8128 12.4838 38.6355 12.2878C38.4675 12.0825 38.3322 11.8491 38.2295 11.5878C38.1268 11.3171 38.0755 11.0138 38.0755 10.6778C38.0755 10.3045 38.1548 9.95448 38.3135 9.62781C38.4722 9.29181 38.6962 9.00248 38.9855 8.75981C39.2748 8.50781 39.6155 8.31181 40.0075 8.17181C40.4088 8.03181 40.8475 7.96181 41.3235 7.96181C41.8555 7.96181 42.3782 8.06448 42.8915 8.26981C43.4142 8.47515 43.8715 8.77381 44.2635 9.16581L43.2135 10.4678C42.9148 10.2345 42.6162 10.0571 42.3175 9.93581C42.0188 9.80515 41.6875 9.73981 41.3235 9.73981C40.9688 9.73981 40.6842 9.81448 40.4695 9.96381C40.2642 10.1038 40.1615 10.3045 40.1615 10.5658C40.1615 10.7058 40.1942 10.8271 40.2595 10.9298C40.3342 11.0231 40.4322 11.1118 40.5535 11.1958C40.6842 11.2705 40.8335 11.3451 41.0015 11.4198C41.1695 11.4851 41.3515 11.5598 41.5475 11.6438L42.7235 12.1198C43.2835 12.3438 43.7222 12.6518 44.0395 13.0438C44.3662 13.4358 44.5295 13.9538 44.5295 14.5978C44.5295 14.9805 44.4502 15.3445 44.2915 15.6898C44.1422 16.0258 43.9182 16.3245 43.6195 16.5858C43.3302 16.8378 42.9708 17.0431 42.5415 17.2018C42.1122 17.3511 41.6268 17.4258 41.0855 17.4258C40.4882 17.4258 39.8908 17.3185 39.2935 17.1038C38.7055 16.8798 38.1782 16.5485 37.7115 16.1098L38.8875 14.6958ZM46.4288 8.12981H48.4868V17.2578H46.4288V8.12981ZM50.5557 12.7498C50.5557 11.9938 50.6724 11.3218 50.9057 10.7338C51.1484 10.1365 51.4704 9.63248 51.8717 9.22181C52.2824 8.81115 52.7584 8.49848 53.2997 8.28381C53.8504 8.06915 54.4337 7.96181 55.0497 7.96181C55.6937 7.96181 56.2491 8.08315 56.7157 8.32581C57.1917 8.56848 57.5791 8.84381 57.8777 9.15181L56.7437 10.4258C56.5197 10.2111 56.2817 10.0431 56.0297 9.92181C55.7871 9.80048 55.4697 9.73981 55.0777 9.73981C54.7231 9.73981 54.3964 9.80981 54.0977 9.94981C53.8084 10.0805 53.5564 10.2718 53.3417 10.5238C53.1271 10.7758 52.9591 11.0838 52.8377 11.4478C52.7257 11.8118 52.6697 12.2225 52.6697 12.6798C52.6697 13.6225 52.8797 14.3551 53.2997 14.8778C53.7291 15.3911 54.3731 15.6478 55.2317 15.6478C55.4184 15.6478 55.6004 15.6245 55.7777 15.5778C55.9551 15.5311 56.0997 15.4611 56.2117 15.3678V13.7998H54.6997V12.1198H58.0317V16.3198C57.7051 16.6278 57.2757 16.8891 56.7437 17.1038C56.2117 17.3185 55.6237 17.4258 54.9797 17.4258C54.3637 17.4258 53.7851 17.3278 53.2437 17.1318C52.7117 16.9265 52.2451 16.6278 51.8437 16.2358C51.4424 15.8438 51.1251 15.3585 50.8917 14.7798C50.6677 14.1918 50.5557 13.5151 50.5557 12.7498ZM60.2675 8.12981H62.3255V11.6438H65.4755V8.12981H67.5475V17.2578H65.4755V13.4498H62.3255V17.2578H60.2675V8.12981ZM71.829 9.86581H69.323V8.12981H76.407V9.86581H73.901V17.2578H71.829V9.86581ZM78.4129 14.6958C78.7395 14.9758 79.0989 15.2045 79.4909 15.3818C79.8922 15.5591 80.2842 15.6478 80.6669 15.6478C81.0962 15.6478 81.4135 15.5685 81.6189 15.4098C81.8335 15.2511 81.9409 15.0365 81.9409 14.7658C81.9409 14.6258 81.9082 14.5045 81.8429 14.4018C81.7869 14.2991 81.6982 14.2105 81.5769 14.1358C81.4649 14.0518 81.3249 13.9771 81.1569 13.9118C80.9982 13.8371 80.8209 13.7578 80.6249 13.6738L79.4349 13.1698C79.2015 13.0765 78.9729 12.9551 78.7489 12.8058C78.5342 12.6565 78.3382 12.4838 78.1609 12.2878C77.9929 12.0825 77.8575 11.8491 77.7549 11.5878C77.6522 11.3171 77.6009 11.0138 77.6009 10.6778C77.6009 10.3045 77.6802 9.95448 77.8389 9.62781C77.9975 9.29181 78.2215 9.00248 78.5109 8.75981C78.8002 8.50781 79.1409 8.31181 79.5329 8.17181C79.9342 8.03181 80.3729 7.96181 80.8489 7.96181C81.3809 7.96181 81.9035 8.06448 82.4169 8.26981C82.9395 8.47515 83.3969 8.77381 83.7889 9.16581L82.7389 10.4678C82.4402 10.2345 82.1415 10.0571 81.8429 9.93581C81.5442 9.80515 81.2129 9.73981 80.8489 9.73981C80.4942 9.73981 80.2095 9.81448 79.9949 9.96381C79.7895 10.1038 79.6869 10.3045 79.6869 10.5658C79.6869 10.7058 79.7195 10.8271 79.7849 10.9298C79.8595 11.0231 79.9575 11.1118 80.0789 11.1958C80.2095 11.2705 80.3589 11.3451 80.5269 11.4198C80.6949 11.4851 80.8769 11.5598 81.0729 11.6438L82.2489 12.1198C82.8089 12.3438 83.2475 12.6518 83.5649 13.0438C83.8915 13.4358 84.0549 13.9538 84.0549 14.5978C84.0549 14.9805 83.9755 15.3445 83.8169 15.6898C83.6675 16.0258 83.4435 16.3245 83.1449 16.5858C82.8555 16.8378 82.4962 17.0431 82.0669 17.2018C81.6375 17.3511 81.1522 17.4258 80.6109 17.4258C80.0135 17.4258 79.4162 17.3185 78.8189 17.1038C78.2309 16.8798 77.7035 16.5485 77.2369 16.1098L78.4129 14.6958Z" fill="white"/>
    <path d="M146.312 9.39844C144.153 9.39844 142.465 11.2274 142.465 13.5552C142.465 15.8592 144.146 17.6565 146.282 17.6565C148.441 17.6565 150.129 15.8275 150.129 13.4918C150.129 11.1957 148.456 9.39844 146.312 9.39844ZM146.312 16.3976C144.878 16.3976 143.757 15.1229 143.757 13.4998C143.757 11.8846 144.848 10.6573 146.289 10.6573C147.723 10.6573 148.844 11.9321 148.844 13.5552C148.836 15.1783 147.753 16.3976 146.312 16.3976Z" fill="white"/>
    <path d="M154.41 16.249C154.335 16.249 154.275 16.2727 154.193 16.2965C154.081 16.336 153.909 16.3915 153.626 16.3915C152.871 16.3915 152.528 16.051 152.528 15.2751V10.8571H154.402C154.724 10.8571 155 10.572 155 10.2395C155 9.89902 154.724 9.60607 154.402 9.60607H152.528V7.87211C152.528 7.49998 152.251 7.20703 151.9 7.20703C151.549 7.20703 151.288 7.49207 151.288 7.87211V9.60607H150.832C150.511 9.60607 150.234 9.8911 150.234 10.2236C150.234 10.5641 150.511 10.8571 150.832 10.8571H151.288V15.3463C151.288 16.7715 152.139 17.6583 153.514 17.6583C153.977 17.6583 154.328 17.5474 154.589 17.4524C154.843 17.3416 154.985 17.1357 154.985 16.8665C155 16.534 154.731 16.249 154.41 16.249Z" fill="white"/>
    <path d="M140.74 6.35156C140.382 6.35156 140.12 6.6366 140.12 7.01664V10.5241C139.418 9.81156 138.514 9.39985 137.64 9.39985H137.565C135.773 9.39985 133.928 10.9359 133.928 13.5012V13.5487C133.935 16.1219 135.788 17.6579 137.565 17.6579H137.64C139.62 17.6579 141.36 15.726 141.36 13.5249V7.00873C141.353 6.6366 141.091 6.35156 140.74 6.35156ZM137.633 16.3357C136.251 16.3357 135.123 15.0689 135.123 13.517C135.123 11.9731 136.251 10.7063 137.633 10.7063C138.82 10.7063 140.143 11.9097 140.143 13.5249C140.143 15.0214 138.97 16.3357 137.633 16.3357Z" fill="white"/>
    <path d="M116.337 6.4707C115.994 6.4707 115.725 6.76366 115.725 7.13578V17.0011C115.725 17.3812 115.994 17.6583 116.352 17.6583C116.703 17.6583 116.965 17.3733 116.965 17.0011V7.12787C116.965 6.75574 116.688 6.4707 116.337 6.4707Z" fill="white"/>
    <path d="M129.372 9.39062C127.377 9.39062 125.809 11.2117 125.809 13.5395C125.809 15.8831 127.385 17.6566 129.476 17.6566C130.656 17.6566 131.523 17.2766 132.374 16.3819C132.531 16.2156 132.569 16.0414 132.569 15.9227C132.569 15.5743 132.292 15.2893 131.956 15.2893C131.799 15.2893 131.657 15.3526 131.538 15.4793C130.933 16.1048 130.29 16.3977 129.506 16.3977C128.274 16.3977 127.332 15.4872 127.123 14.1174H132.218C132.539 14.1174 132.83 13.8245 132.83 13.484C132.823 11.1087 131.373 9.39062 129.372 9.39062ZM129.342 10.6416C130.694 10.6416 131.336 11.7659 131.5 12.8744H127.123C127.34 11.5521 128.236 10.6416 129.342 10.6416Z" fill="white"/>
    <path d="M110.772 9.39203H110.72C109.838 9.39203 108.935 9.80375 108.24 10.5163V7.00883C108.24 6.62878 107.971 6.34375 107.613 6.34375C107.261 6.35167 107 6.6367 107 7.00883V13.3984V13.4617V13.525C107 15.7261 108.74 17.658 110.72 17.658H110.795C112.58 17.658 114.425 16.1141 114.44 13.5409V13.5013C114.432 10.9281 112.572 9.39203 110.772 9.39203ZM113.23 13.525C113.23 15.0769 112.102 16.3437 110.72 16.3437C109.383 16.3437 108.21 15.0294 108.21 13.525C108.21 11.9098 109.532 10.7064 110.72 10.7064C112.102 10.7064 113.23 11.9732 113.23 13.525Z" fill="white"/>
    <path d="M123.98 9.50391C123.621 9.50391 123.352 9.78894 123.352 10.1611V14.207C123.352 15.5371 122.68 16.3527 121.559 16.3922C120.409 16.3527 119.744 15.553 119.744 14.207V10.169C119.744 9.78894 119.475 9.51182 119.124 9.51182C118.773 9.51182 118.512 9.79686 118.512 10.169V14.3416C118.512 16.3447 119.707 17.6511 121.552 17.6591C123.397 17.6511 124.592 16.3527 124.592 14.3416V10.169C124.585 9.78894 124.323 9.50391 123.98 9.50391Z" fill="white"/>
    <path d="M90.02 8.40711H90.98V12.1031H91.028C91.188 11.7111 91.42 11.4231 91.724 11.2391C92.036 11.0471 92.408 10.9511 92.84 10.9511C93.224 10.9511 93.572 11.0271 93.884 11.1791C94.196 11.3311 94.46 11.5471 94.676 11.8271C94.9 12.1071 95.068 12.4471 95.18 12.8471C95.3 13.2471 95.36 13.6951 95.36 14.1911C95.36 14.6871 95.3 15.1351 95.18 15.5351C95.068 15.9351 94.9 16.2751 94.676 16.5551C94.46 16.8351 94.196 17.0511 93.884 17.2031C93.572 17.3551 93.224 17.4311 92.84 17.4311C92 17.4311 91.396 17.0471 91.028 16.2791H90.98V17.2871H90.02V8.40711ZM92.576 16.5671C93.12 16.5671 93.548 16.3991 93.86 16.0631C94.172 15.7191 94.328 15.2711 94.328 14.7191V13.6631C94.328 13.1111 94.172 12.6671 93.86 12.3311C93.548 11.9871 93.12 11.8151 92.576 11.8151C92.36 11.8151 92.152 11.8471 91.952 11.9111C91.76 11.9671 91.592 12.0471 91.448 12.1511C91.304 12.2551 91.188 12.3831 91.1 12.5351C91.02 12.6791 90.98 12.8351 90.98 13.0031V15.3071C90.98 15.5071 91.02 15.6871 91.1 15.8471C91.188 15.9991 91.304 16.1311 91.448 16.2431C91.592 16.3471 91.76 16.4271 91.952 16.4831C92.152 16.5391 92.36 16.5671 92.576 16.5671ZM100.738 11.0951H101.686L98.9143 18.7271C98.8423 18.9111 98.7703 19.0631 98.6983 19.1831C98.6263 19.3111 98.5383 19.4111 98.4343 19.4831C98.3303 19.5551 98.1983 19.6071 98.0383 19.6391C97.8863 19.6711 97.6983 19.6871 97.4743 19.6871H96.9823V18.8471H97.9543L98.4223 17.5271L96.1063 11.0951H97.0663L98.5543 15.3071L98.8423 16.3151H98.9023L99.2383 15.3071L100.738 11.0951Z" fill="white"/>
</svg>
