<svg width="10" height="12" viewBox="0 0 10 12" fill="none" xmlns="http://www.w3.org/2000/svg">
<path d="M4.80107 4.48438C4.8637 4.48437 4.92493 4.50295 4.97701 4.53775C5.02909 4.57255 5.06969 4.62201 5.09366 4.67988C5.11763 4.73774 5.1239 4.80142 5.11168 4.86285C5.09946 4.92428 5.0693 4.98071 5.02501 5.025C4.98071 5.06929 4.92428 5.09946 4.86285 5.11168C4.80142 5.1239 4.73774 5.11763 4.67987 5.09366C4.62201 5.06969 4.57255 5.02909 4.53775 4.97701C4.50295 4.92493 4.48438 4.8637 4.48438 4.80107C4.48438 4.71708 4.51774 4.63652 4.57713 4.57713C4.63652 4.51774 4.71708 4.48438 4.80107 4.48438Z" fill="#8FA1B4" stroke="#8FA1B4" stroke-linecap="round" stroke-linejoin="round"/>
<path d="M4.80033 1C5.80823 1 6.77486 1.40039 7.48756 2.11309C8.20026 2.82579 8.60065 3.79242 8.60065 4.80033C8.60065 6.42264 6.33059 9.51019 5.29943 10.8293C5.2402 10.9051 5.16446 10.9665 5.07798 11.0087C4.9915 11.0508 4.89654 11.0728 4.80033 11.0728C4.70411 11.0728 4.60915 11.0508 4.52267 11.0087C4.43619 10.9665 4.36046 10.9051 4.30122 10.8293C3.27006 9.51104 1 6.42349 1 4.80117C0.999889 4.30203 1.09811 3.80776 1.28904 3.34659C1.47997 2.88541 1.75989 2.46637 2.11279 2.11339C2.4657 1.76041 2.88468 1.4804 3.34581 1.28936C3.80694 1.09833 4.30119 1 4.80033 1Z" stroke="#8FA1B4" stroke-linecap="round" stroke-linejoin="round"/>
</svg>
