<svg width="16" height="16" viewBox="0 0 16 16" fill="none" 
    xmlns="http://www.w3.org/2000/svg">
    <path d="M7.09529 2.04823C7.20954 2.17506 7.34917 2.27646 7.50512 2.34587C7.66107 2.41528 7.82986 2.45114 8.00056 2.45114C8.17125 2.45114 8.34004 2.41528 8.49599 2.34587C8.65194 2.27646 8.79157 2.17506 8.90582 2.04823L9.4948 1.40198C9.6636 1.21516 9.88608 1.08516 10.1317 1.02982C10.3773 0.974486 10.6341 0.996521 10.8667 1.0929C11.0993 1.18929 11.2963 1.3553 11.4308 1.56815C11.5653 1.781 11.6307 2.03025 11.6179 2.28171L11.5737 3.15335C11.5651 3.32339 11.5923 3.49333 11.6534 3.65223C11.7145 3.81113 11.8082 3.95547 11.9285 4.07594C12.0488 4.19641 12.193 4.29035 12.3518 4.35171C12.5107 4.41306 12.6806 4.44047 12.8506 4.43217L13.7223 4.38797C13.9735 4.37558 14.2225 4.44121 14.4351 4.57586C14.6476 4.71051 14.8133 4.9076 14.9094 5.14011C15.0056 5.37262 15.0275 5.62917 14.9721 5.8746C14.9167 6.12003 14.7868 6.34233 14.6001 6.51103L13.9514 7.09628C13.8247 7.21069 13.7234 7.3504 13.6541 7.50639C13.5848 7.66237 13.549 7.83116 13.549 8.00185C13.549 8.17254 13.5848 8.34133 13.6541 8.49731C13.7234 8.6533 13.8247 8.79301 13.9514 8.90742L14.6001 9.49267C14.7869 9.66147 14.9169 9.88395 14.9723 10.1296C15.0276 10.3752 15.0056 10.6319 14.9092 10.8645C14.8128 11.0971 14.6468 11.2942 14.4339 11.4287C14.2211 11.5632 13.9718 11.6285 13.7204 11.6157L12.8487 11.5715C12.6783 11.5628 12.508 11.5899 12.3487 11.6511C12.1894 11.7123 12.0448 11.8063 11.9241 11.927C11.8035 12.0476 11.7095 12.1923 11.6482 12.3516C11.587 12.5108 11.5599 12.6812 11.5687 12.8516L11.6129 13.7232C11.624 13.9734 11.5579 14.221 11.4234 14.4323C11.289 14.6436 11.0928 14.8084 10.8614 14.9043C10.63 15.0001 10.3748 15.0225 10.1303 14.9682C9.88578 14.914 9.66391 14.7858 9.4948 14.6011L8.90893 13.953C8.79457 13.8263 8.65492 13.7251 8.49898 13.6558C8.34305 13.5865 8.17431 13.5507 8.00367 13.5507C7.83303 13.5507 7.66429 13.5865 7.50836 13.6558C7.35242 13.7251 7.21276 13.8263 7.09841 13.953L6.51005 14.6011C6.34121 14.7867 6.11924 14.9157 5.8744 14.9705C5.62957 15.0253 5.37378 15.0033 5.14191 14.9075C4.91004 14.8116 4.71338 14.6466 4.57873 14.4349C4.44407 14.2232 4.37798 13.9751 4.38947 13.7245L4.4343 12.8528C4.44307 12.6824 4.41596 12.5121 4.35473 12.3528C4.2935 12.1935 4.19952 12.0489 4.07886 11.9282C3.9582 11.8076 3.81355 11.7136 3.65428 11.6523C3.495 11.5911 3.32465 11.564 3.15423 11.5728L2.28259 11.617C2.03124 11.6301 1.78199 11.5651 1.56906 11.4309C1.35612 11.2967 1.18995 11.0999 1.09335 10.8674C0.996756 10.635 0.974468 10.3784 1.02955 10.1328C1.08463 9.88721 1.21438 9.66468 1.40099 9.49578L2.04912 8.91054C2.17578 8.79612 2.27704 8.65641 2.34634 8.50043C2.41564 8.34444 2.45145 8.17565 2.45145 8.00496C2.45145 7.83428 2.41564 7.66549 2.34634 7.5095C2.27704 7.35351 2.17578 7.2138 2.04912 7.09939L1.40099 6.51103C1.21499 6.34231 1.08563 6.12026 1.03061 5.87524C0.975581 5.63021 0.997569 5.37417 1.09357 5.14212C1.18956 4.91006 1.35488 4.71332 1.56693 4.57878C1.77897 4.44424 2.0274 4.37847 2.27824 4.39046L3.14988 4.43466C3.32061 4.44364 3.49132 4.4166 3.65093 4.3553C3.81054 4.29401 3.95546 4.19983 4.0763 4.07887C4.19713 3.95792 4.29118 3.8129 4.35232 3.65324C4.41346 3.49357 4.44033 3.32283 4.43119 3.15211L4.38947 2.27984C4.37771 2.0291 4.4436 1.78083 4.57815 1.56892C4.7127 1.35701 4.90936 1.19177 5.14129 1.09576C5.37322 0.999744 5.62912 0.97763 5.87409 1.03243C6.11905 1.08724 6.34114 1.21629 6.51005 1.40198L7.09529 2.04823Z" stroke="#2961A9" stroke-linecap="round" stroke-linejoin="round"/>
    <path d="M8.00092 10.8065C9.54826 10.8065 10.8026 9.55216 10.8026 8.00483C10.8026 6.45749 9.54826 5.20312 8.00092 5.20312C6.45358 5.20312 5.19922 6.45749 5.19922 8.00483C5.19922 9.55216 6.45358 10.8065 8.00092 10.8065Z" stroke="#2961A9" stroke-linecap="round" stroke-linejoin="round"/>
</svg>
