<svg width="20" height="20" viewBox="0 0 20 20" fill="none" 
  xmlns="http://www.w3.org/2000/svg">
  <path d="M2.08333 5.41496C3.23393 5.41496 4.16667 4.48222 4.16667 3.33162C4.16667 2.18103 3.23393 1.24829 2.08333 1.24829C0.93274 1.24829 0 2.18103 0 3.33162C0 4.48222 0.93274 5.41496 2.08333 5.41496Z" fill="white" />
  <path d="M7.08333 4.16667H19.1667C19.3877 4.16667 19.5996 4.07887 19.7559 3.92259C19.9122 3.76631 20 3.55435 20 3.33333C20 3.11232 19.9122 2.90036 19.7559 2.74408C19.5996 2.5878 19.3877 2.5 19.1667 2.5H7.08333C6.86232 2.5 6.65036 2.5878 6.49408 2.74408C6.3378 2.90036 6.25 3.11232 6.25 3.33333C6.25 3.55435 6.3378 3.76631 6.49408 3.92259C6.65036 4.07887 6.86232 4.16667 7.08333 4.16667Z" fill="white" />
  <path d="M2.08333 12.0817C3.23393 12.0817 4.16667 11.149 4.16667 9.99837C4.16667 8.84778 3.23393 7.91504 2.08333 7.91504C0.93274 7.91504 0 8.84778 0 9.99837C0 11.149 0.93274 12.0817 2.08333 12.0817Z" fill="white" />
  <path d="M19.1667 9.16663H7.08333C6.86232 9.16663 6.65036 9.25442 6.49408 9.4107C6.3378 9.56698 6.25 9.77895 6.25 9.99996C6.25 10.221 6.3378 10.4329 6.49408 10.5892C6.65036 10.7455 6.86232 10.8333 7.08333 10.8333H19.1667C19.3877 10.8333 19.5996 10.7455 19.7559 10.5892C19.9122 10.4329 20 10.221 20 9.99996C20 9.77895 19.9122 9.56698 19.7559 9.4107C19.5996 9.25442 19.3877 9.16663 19.1667 9.16663Z" fill="white" />
  <path d="M2.08333 18.7483C3.23393 18.7483 4.16667 17.8156 4.16667 16.665C4.16667 15.5144 3.23393 14.5817 2.08333 14.5817C0.93274 14.5817 0 15.5144 0 16.665C0 17.8156 0.93274 18.7483 2.08333 18.7483Z" fill="white" />
  <path d="M19.1667 15.8334H7.08333C6.86232 15.8334 6.65036 15.9212 6.49408 16.0775C6.3378 16.2337 6.25 16.4457 6.25 16.6667C6.25 16.8877 6.3378 17.0997 6.49408 17.256C6.65036 17.4122 6.86232 17.5 7.08333 17.5H19.1667C19.3877 17.5 19.5996 17.4122 19.7559 17.256C19.9122 17.0997 20 16.8877 20 16.6667C20 16.4457 19.9122 16.2337 19.7559 16.0775C19.5996 15.9212 19.3877 15.8334 19.1667 15.8334Z" fill="white" />
</svg>
