<svg width="47" height="36" viewBox="0 0 47 36" fill="none" xmlns="http://www.w3.org/2000/svg">
<g id="Group 1302" filter="url(#filter0_d)">
<path id="Rectangle 12" d="M4 3C4 1.89543 4.89543 1 6 1H41C42.1046 1 43 1.89543 43 3V27C43 28.1046 42.1046 29 41 29H6C4.89543 29 4 28.1046 4 27V3Z" fill="#3F4F56"/>
<g id="Frame 1622">
<g id="Icon / Map Control">
<g id="Group">
<path id="Vector" d="M14.9 10.8L11 14.6L14.9 18.5" stroke="white" stroke-linecap="round" stroke-linejoin="round"/>
<path id="Vector_2" d="M31.4 8.60002C31.2 8.50002 30.9 8.50002 30.7 8.60002L26.4 10.3C26.2 10.4 25.9 10.4 25.7 10.3L21.8 8.70002C21.7 8.70002 21.6 8.70002 21.6 8.70002C21.5 8.70002 21.4 8.70002 21.4 8.80002C21.3 8.80002 21.3 8.90002 21.2 9.00002C21 9.10002 21 9.20002 21 9.20002V18.8C21 19 21.1 19.2 21.2 19.4C21.3 19.6 21.5 19.7 21.7 19.8L25.7 21.4C25.9 21.5 26.2 21.5 26.4 21.4L30.7 19.7C30.9 19.6 31.2 19.6 31.4 19.7L35.3 21.3C35.4 21.3 35.5 21.3 35.5 21.3C35.6 21.3 35.7 21.3 35.7 21.2C35.8 21.2 35.8 21.1 35.9 21C35.9 20.9 36 20.8 36 20.8V11.2C36 11 35.9 10.8 35.8 10.6C35.7 10.4 35.5 10.3 35.3 10.2L31.4 8.60002Z" stroke="white" stroke-linecap="round" stroke-linejoin="round"/>
<path id="Vector_3" d="M26 10.4V21.4" stroke="white" stroke-linecap="round" stroke-linejoin="round"/>
<path id="Vector_4" d="M31 8.60004V19.6" stroke="white" stroke-linecap="round" stroke-linejoin="round"/>
</g>
</g>
</g>
</g>
<defs>
<filter id="filter0_d" x="0" y="0" width="47" height="36" filterUnits="userSpaceOnUse" color-interpolation-filters="sRGB">
<feFlood flood-opacity="0" result="BackgroundImageFix"/>
<feColorMatrix in="SourceAlpha" type="matrix" values="0 0 0 0 0 0 0 0 0 0 0 0 0 0 0 0 0 0 127 0"/>
<feOffset dy="3"/>
<feGaussianBlur stdDeviation="2"/>
<feColorMatrix type="matrix" values="0 0 0 0 0 0 0 0 0 0 0 0 0 0 0 0 0 0 0.15 0"/>
<feBlend mode="normal" in2="BackgroundImageFix" result="effect1_dropShadow"/>
<feBlend mode="normal" in="SourceGraphic" in2="effect1_dropShadow" result="shape"/>
</filter>
</defs>
</svg>
