<?xml version="1.0" encoding="UTF-8"?><svg version="1.1" viewBox="0 0 24 24" xmlns="http://www.w3.org/2000/svg" xmlns:xlink="http://www.w3.org/1999/xlink"><!--Generated by IJSVG (https://github.com/iconjar/IJSVG)--><g fill="#000"><path d="M22,6.5h-0.5v-1.5v0c0,-2.76142 -2.23858,-5 -5,-5c-2.76142,0 -5,2.23858 -5,5v1.5l-8.74228e-08,1.77636e-15c-1.10457,4.82823e-08 -2,0.895431 -2,2c0,0 0,0 0,0v4.089l1.77636e-15,3.7749e-08c1.18818e-08,0.0786893 0.0370486,0.152786 0.1,0.2l-1.3902e-07,-9.95142e-08c0.921556,0.659675 1.67152,1.53069 2.187,2.54l6.72333e-09,1.31883e-08c0.0427584,0.0838739 0.128856,0.136768 0.223,0.137h5.919l2.66866e-08,-4.13181e-10c1.58792,-0.0245852 2.92212,1.18796 3.049,2.771l-7.94022e-09,-1.16034e-07c0.00895325,0.130839 0.117855,0.232306 0.249,0.232h0.773l-8.74228e-08,-3.55271e-15c1.10457,4.82823e-08 2,-0.89543 2,-2v-7.969h3.55271e-15c0,-1.10457 -0.895431,-2 -2,-2Zm-8.5,-1.5l3.37508e-14,4.52987e-07c-2.50178e-07,-1.65685 1.34315,-3 3,-3c1.65685,-2.50178e-07 3,1.34315 3,3c0,0 0,1.77636e-15 0,1.77636e-15v1.25v0c0,0.138071 -0.111929,0.25 -0.25,0.25h-5.5h-1.09278e-08c-0.138071,-6.03528e-09 -0.25,-0.111929 -0.25,-0.25c0,0 0,-8.88178e-16 0,-8.88178e-16Zm4,7.263v1.208v0c0,0.414214 -0.335786,0.75 -0.75,0.75c-0.414214,0 -0.75,-0.335786 -0.75,-0.75v-1.208l-7.57103e-08,-4.37114e-08c-0.717439,-0.414214 -0.963252,-1.3316 -0.549038,-2.04904c0.414214,-0.717439 1.3316,-0.963252 2.04904,-0.549038c0.717439,0.414214 0.963252,1.3316 0.549038,2.04904c-0.131653,0.228029 -0.321009,0.417386 -0.549038,0.549038Z"></path><path d="M19.5,18.406l-2.0678e-08,-2.93201e-07c-0.0577544,-0.818922 -0.745134,-1.45012 -1.566,-1.438h-7.1l-3.06487e-09,-1.07217e-08c-0.677073,-2.36858 -2.83658,-4.00573 -5.3,-4.018c-0.169,0 -0.341,0.008 -0.513,0.024l-2.13415e-08,2.21601e-09c-2.82159,0.292982 -4.97842,2.64956 -5.021,5.486l5.47143e-08,-2.01394e-05c-0.00829545,3.05136 2.4586,5.5317 5.50996,5.54c0.00467348,1.27053e-05 0.00934697,1.94809e-05 0.0140205,2.03266e-05h0.0260201l-3.54865e-08,1.40048e-11c2.46407,-0.000972467 4.6268,-1.64069 5.293,-4.013h0.51l1.03365e-08,-1.04802e-10c0.0907369,-0.00091994 0.174732,0.0477893 0.219,0.127l0.935,1.659l-2.6323e-08,-4.67801e-08c0.135418,0.240659 0.440288,0.325973 0.680947,0.190555c0.0725386,-0.0408173 0.13374,-0.0990976 0.178053,-0.169555l1.061,-1.694l-1.03261e-08,1.64245e-08c0.0452065,-0.0719046 0.124066,-0.115673 0.209,-0.116h0.217l1.00268e-08,-2.40625e-11c0.0905502,-0.000217285 0.174369,0.0477878 0.22,0.126l0.945,1.653l-1.86815e-08,-3.26814e-08c0.13704,0.239738 0.44248,0.322992 0.682219,0.185951c0.0716372,-0.0409496 0.132026,-0.0989921 0.175781,-0.168951l1.124,-1.798v0l-7.98209e-08,2.87031e-10c0.832288,-0.00299284 1.50456,-0.680122 1.50157,-1.51241c-7.62536e-05,-0.0212056 -0.000600089,-0.0424072 -0.00157116,-0.0635907Zm-15,1.319h-5.46392e-08c-0.690356,-3.01764e-08 -1.25,-0.559644 -1.25,-1.25c3.01764e-08,-0.690356 0.559644,-1.25 1.25,-1.25c0.690356,3.01764e-08 1.25,0.559644 1.25,1.25l8.88178e-16,-5.46392e-08c0,0.690356 -0.559644,1.25 -1.25,1.25Z"></path></g></svg>