<?xml version="1.0" encoding="UTF-8"?><svg version="1.1" viewBox="0 0 24 24" xmlns="http://www.w3.org/2000/svg" xmlns:xlink="http://www.w3.org/1999/xlink"><!--Generated by IJSVG (https://github.com/iconjar/IJSVG)--><g fill="#000"><path d="M12,11.4c-1.1,0 -2,-0.9 -2,-2c0,-1.1 0.9,-2 2,-2c1.1,0 2,0.9 2,2c0,1.1 -0.9,2 -2,2Z"></path><path d="M12,24c-0.6,0 -1.2,-0.2 -1.6,-0.6c-0.2,-0.1 -0.3,-0.3 -0.5,-0.5c-3.3,-4.2 -7.3,-10 -7.3,-13.6c-4.44089e-16,-5.1 4.2,-9.3 9.4,-9.3c5.2,0 9.4,4.2 9.4,9.4c0,3.5 -4,9.3 -7.3,13.6c-0.4,0.6 -1.1,0.9 -1.8,1c-0.1,0 -0.2,0 -0.3,0Zm0,-21.3c-3.7,8.88178e-16 -6.7,3 -6.7,6.7c0,2.1 2.6,6.6 6.7,11.9c4.1,-5.3 6.7,-9.9 6.7,-11.9c0,-3.7 -3,-6.7 -6.7,-6.7Z"></path></g></svg>