<?xml version="1.0" encoding="UTF-8"?><svg version="1.1" viewBox="0 0 24 24" xmlns="http://www.w3.org/2000/svg" xmlns:xlink="http://www.w3.org/1999/xlink"><!--Generated by IJSVG (https://github.com/iconjar/IJSVG)--><g stroke-linecap="round" stroke-width="1.5" stroke="#000" fill="none" stroke-linejoin="round"><path d="M13.588,23.141l1.09664e-06,-1.51638e-07c-0.526202,0.0727606 -1.05679,0.10918 -1.588,0.109l4.86372e-07,-2.53053e-10c-6.21707,0.00323477 -11.2596,-5.03407 -11.2629,-11.2511c-0.00323477,-6.21707 5.03407,-11.2596 11.2511,-11.2629c6.21707,-0.00323477 11.2596,5.03407 11.2629,11.2511c0.000279398,0.536989 -0.0378653,1.07331 -0.114142,1.60486"></path><path d="M9.289,22.921c-1.522,-2.232 -2.54,-6.288 -2.54,-10.921c0,-4.633 1.018,-8.688 2.54,-10.921"></path><path d="M0.77,11.25h10.48"></path><path d="M16.5,11.25h6.75"></path><path d="M3,5.25h18"></path><path d="M2.05,17.25h8.45"></path><path d="M14.71,1.079c1.348,1.978 2.3,5.386 2.5,9.359c0.014,0.272 0.0243333,0.543 0.031,0.813"></path><path d="M13.256,13.992l4.108,8.973l7.2776e-09,1.3509e-08c0.14066,0.261099 0.466349,0.358735 0.727449,0.218075c0.12523,-0.067464 0.218577,-0.181858 0.259551,-0.318075l1.2,-3.315l3.315,-1.2l6.99342e-09,-2.10368e-09c0.284006,-0.0854311 0.444983,-0.384919 0.359551,-0.668925c-0.040975,-0.136217 -0.134322,-0.250611 -0.259552,-0.318075l-8.973,-4.108l5.13282e-09,2.15402e-09c-0.286713,-0.120321 -0.616679,0.0145661 -0.737,0.301279c-0.0584807,0.139354 -0.0584807,0.296368 2.81107e-08,0.435721Z"></path></g></svg>