<?xml version="1.0" encoding="UTF-8"?><svg version="1.1" viewBox="0 0 24 24" xmlns="http://www.w3.org/2000/svg" xmlns:xlink="http://www.w3.org/1999/xlink"><!--Generated by IJSVG (https://github.com/iconjar/IJSVG)--><path d="M18.9,0h-13.8c-1.7,0 -3.1,1.4 -3.1,3.1v17.8c0,1.7 1.4,3.1 3.1,3.1h13.7c1.7,0 3.1,-1.4 3.1,-3.1v-17.8c0.1,-1.7 -1.3,-3.1 -3,-3.1Zm-4.5,17.8h-7.5c-0.6,0 -1,-0.4 -1,-1c0,-0.6 0.4,-1 1,-1h7.5c0.6,0 1,0.4 1,1c0,0.5 -0.4,1 -1,1Zm2.7,-4.9h-10.2c-0.6,0 -1,-0.4 -1,-1c0,-0.6 0.4,-1 1,-1h10.2c0.6,0 1,0.4 1,1c0,0.6 -0.4,1 -1,1Zm0,-4.8h-10.2c-0.6,0 -1,-0.4 -1,-1c0,-0.6 0.4,-1 1,-1h10.2c0.6,0 1,0.4 1,1c0,0.6 -0.4,1 -1,1Z" fill="#000"></path></svg>