<?xml version="1.0" encoding="UTF-8"?>
<svg width="14" height="14" viewBox="0 0 14 14" fill="none" xmlns="http://www.w3.org/2000/svg">
  <path d="M7 0C5.61553 0 4.26216 0.410543 3.11101 1.17971C1.95987 1.94888 1.06266 3.04213 0.532846 4.32122C0.00303299 5.6003 -0.13559 7.00776 0.134506 8.36563C0.404603 9.7235 1.07129 10.9708 2.05025 11.9497C3.02922 12.9287 4.2765 13.5954 5.63437 13.8655C6.99224 14.1356 8.3997 13.997 9.67879 13.4672C10.9579 12.9373 12.0511 12.0401 12.8203 10.889C13.5895 9.73785 14 8.38447 14 7C13.9977 5.14418 13.2595 3.36503 11.9472 2.05277C10.635 0.74051 8.85582 0.00227987 7 0ZM7 12.3846C6.78701 12.3846 6.57879 12.3215 6.40169 12.2031C6.2246 12.0848 6.08656 11.9166 6.00505 11.7198C5.92354 11.523 5.90222 11.3065 5.94377 11.0976C5.98532 10.8887 6.08789 10.6968 6.2385 10.5462C6.38911 10.3956 6.581 10.293 6.7899 10.2515C6.99881 10.2099 7.21534 10.2312 7.41212 10.3127C7.6089 10.3943 7.7771 10.5323 7.89543 10.7094C8.01376 10.8865 8.07692 11.0947 8.07692 11.3077C8.07692 11.5933 7.96346 11.8672 7.7615 12.0692C7.55954 12.2712 7.28562 12.3846 7 12.3846ZM7.93908 7.91754C7.90082 7.92916 7.86734 7.95285 7.84366 7.98508C7.81998 8.0173 7.80736 8.05632 7.80769 8.09631V8.34615C7.80769 8.56037 7.7226 8.76581 7.57113 8.91728C7.41965 9.06875 7.21421 9.15384 7 9.15384C6.78579 9.15384 6.58035 9.06875 6.42888 8.91728C6.2774 8.76581 6.19231 8.56037 6.19231 8.34615V7.75385C6.1936 7.44632 6.29973 7.14843 6.49318 6.90936C6.68663 6.67029 6.95582 6.50435 7.25631 6.43892C7.48011 6.39074 7.6857 6.28019 7.8493 6.12005C8.0129 5.95992 8.12783 5.75674 8.18079 5.53403C8.23376 5.31131 8.2226 5.07815 8.1486 4.86151C8.0746 4.64487 7.94079 4.4536 7.76264 4.30983C7.58449 4.16605 7.36928 4.07565 7.1419 4.04906C6.91452 4.02248 6.68426 4.0608 6.47775 4.1596C6.27124 4.25839 6.09691 4.41363 5.97493 4.60736C5.85295 4.80108 5.78831 5.02538 5.78846 5.25431C5.78846 5.46852 5.70337 5.67396 5.5519 5.82543C5.40042 5.9769 5.19498 6.062 4.98077 6.062C4.76656 6.062 4.56112 5.9769 4.40965 5.82543C4.25817 5.67396 4.17308 5.46852 4.17308 5.25431C4.1735 4.73614 4.31633 4.22805 4.58597 3.78557C4.8556 3.34308 5.24167 2.98321 5.70199 2.74529C6.1623 2.50737 6.67916 2.40054 7.19608 2.43648C7.713 2.47242 8.2101 2.64975 8.63306 2.94909C9.05602 3.24842 9.38857 3.65825 9.59438 4.13379C9.80019 4.60934 9.87133 5.1323 9.80004 5.64554C9.72875 6.15878 9.51776 6.64255 9.19013 7.044C8.86251 7.44545 8.43084 7.74912 7.94231 7.92185L7.93908 7.91754Z" fill="#AAAAAA" />
</svg>