<svg width="20" height="20" viewBox="0 0 20 20" fill="none" xmlns="http://www.w3.org/2000/svg">
<path d="M9.82666 7.91724C9.92555 7.91724 10.0222 7.94656 10.1044 8.0015C10.1867 8.05644 10.2508 8.13453 10.2886 8.22589C10.3264 8.31726 10.3363 8.41779 10.3171 8.51478C10.2978 8.61177 10.2501 8.70086 10.1802 8.77079C10.1103 8.84071 10.0212 8.88834 9.9242 8.90763C9.82721 8.92692 9.72668 8.91702 9.63532 8.87918C9.54395 8.84133 9.46587 8.77724 9.41092 8.69502C9.35598 8.6128 9.32666 8.51613 9.32666 8.41724C9.32666 8.28463 9.37934 8.15745 9.47311 8.06368C9.56687 7.96991 9.69405 7.91724 9.82666 7.91724Z" fill="#B76663" stroke="#B76663" stroke-width="1.16705" stroke-linecap="round" stroke-linejoin="round"/>
<path d="M9.85763 16.203L9.85752 16.2032C9.846 16.2179 9.83129 16.2298 9.81448 16.238L10.1433 16.9121L9.81448 16.238C9.79768 16.2462 9.77923 16.2505 9.76052 16.2505C9.74182 16.2505 9.72336 16.2462 9.70656 16.238L9.37779 16.9121L9.70656 16.238C9.68976 16.2298 9.67504 16.2179 9.66353 16.2032L9.66327 16.2029C8.96004 15.3038 7.84238 13.8113 6.90417 12.2762C6.43483 11.5083 6.01932 10.7441 5.72327 10.0481C5.42099 9.33747 5.27197 8.76323 5.27197 8.35543V8.35527C5.27184 7.76574 5.38784 7.18196 5.61336 6.63727C5.83887 6.09258 6.16947 5.59765 6.58629 5.18074C7.0031 4.76383 7.49796 4.43312 8.0426 4.20749C8.58724 3.98186 9.17099 3.86572 9.76052 3.86572C10.951 3.86572 12.0926 4.33862 12.9344 5.18039C13.7762 6.02215 14.2491 7.16383 14.2491 8.35427C14.2491 8.76207 14.1001 9.3363 13.7978 10.047C13.5017 10.743 13.0862 11.5072 12.6169 12.2752C11.6786 13.8105 10.561 15.3033 9.85763 16.203Z" stroke="#B76663" stroke-width="1.5" stroke-linecap="round" stroke-linejoin="round"/>
</svg>
