<?xml version="1.0" standalone="no"?>
<!DOCTYPE svg PUBLIC "-//W3C//DTD SVG 1.1//EN" "http://www.w3.org/Graphics/SVG/1.1/DTD/svg11.dtd" >
<svg xmlns="http://www.w3.org/2000/svg">
<metadata>Generated by IcoMoon</metadata>
<defs>
<font id="icomoon" horiz-adv-x="1024">
<font-face units-per-em="1024" ascent="960" descent="-64" />
<missing-glyph horiz-adv-x="1024" />
<glyph unicode="&#x20;" horiz-adv-x="512" d="" />
<glyph unicode="&#xe900;" glyph-name="alert" d="M512 331.093c-13.667 0-24.747 11.079-24.747 24.747v0 341.333c0.473 13.295 11.365 23.893 24.732 23.893 0.005 0 0.010 0 0.016 0h-0.001c0.001 0 0.002 0 0.004 0 13.432 0 24.32-10.888 24.32-24.32 0-0.15-0.001-0.3-0.004-0.449v0.022-341.333c-0.24-13.247-11.035-23.893-24.316-23.893-0.001 0-0.003 0-0.004 0v0zM512-37.973c-268.396 0-485.973 217.578-485.973 485.973s217.578 485.973 485.973 485.973c268.396 0 485.973-217.578 485.973-485.973v0c-0.243-268.298-217.675-485.73-485.949-485.973h-0.024zM512 884.907c-241.297 0-436.907-195.61-436.907-436.907s195.61-436.907 436.907-436.907c241.297 0 436.907 195.61 436.907 436.907v0c-0.243 241.2-195.708 436.664-436.884 436.907h-0.023zM561.493 221.013c0-27.334-22.159-49.493-49.493-49.493s-49.493 22.159-49.493 49.493c0 27.334 22.159 49.493 49.493 49.493s49.493-22.159 49.493-49.493z" />
<glyph unicode="&#xe901;" glyph-name="arrow-down" d="M689.493 145.493c-4.523 4.375-10.693 7.071-17.493 7.071s-12.97-2.696-17.5-7.078l0.007 0.007-117.76-118.187v900.693c0 13.667-11.079 24.747-24.747 24.747v0c-0.001 0-0.002 0-0.004 0-13.432 0-24.32-10.888-24.32-24.32 0-0.15 0.001-0.3 0.004-0.449v0.022-900.693l-118.187 118.187c-4.523 4.375-10.693 7.071-17.493 7.071s-12.97-2.696-17.5-7.078l0.007 0.007c-4.349-4.455-7.032-10.554-7.032-17.28s2.683-12.825 7.037-17.285l159.995-159.995c4.375-4.693 10.592-7.618 17.493-7.618s13.119 2.926 17.48 7.604l0.013 0.014 160 160c4.349 4.455 7.032 10.554 7.032 17.28s-2.683 12.825-7.037 17.285l0.005-0.005z" />
<glyph unicode="&#xe902;" glyph-name="asterisk" d="M975.787 474.88h-398.507l282.027 282.027c4.778 4.975 7.721 11.744 7.721 19.2s-2.943 14.225-7.73 19.209l0.009-0.009c-4.883 4.981-11.681 8.068-19.2 8.068s-14.317-3.087-19.196-8.064l-282.031-282.031v398.507c0 14.845-12.035 26.88-26.88 26.88s-26.88-12.035-26.88-26.88v-398.507l-282.027 282.027c-4.883 4.981-11.681 8.068-19.2 8.068s-14.317-3.087-19.196-8.064l-0.004-0.004c-4.778-4.975-7.721-11.744-7.721-19.2s2.943-14.225 7.73-19.209l282.018-282.018h-398.507c-14.845 0-26.88-12.035-26.88-26.88s12.035-26.88 26.88-26.88h398.507l-282.027-282.027c-4.778-4.975-7.721-11.744-7.721-19.2s2.943-14.225 7.73-19.209l-0.009 0.009c5.001-4.728 11.756-7.645 19.193-7.68h0.007c0.115-0.002 0.25-0.003 0.385-0.003 7.328 0 13.97 2.932 18.819 7.687l282.023 282.023v-398.507c0-14.845 12.035-26.88 26.88-26.88s26.88 12.035 26.88 26.88v398.507l282.027-282.027c4.844-4.751 11.487-7.683 18.815-7.683 0.135 0 0.271 0.001 0.406 0.003h-0.020c7.444 0.035 14.199 2.952 19.213 7.692l-0.013-0.012c4.778 4.975 7.721 11.744 7.721 19.2s-2.943 14.225-7.73 19.209l-282.018 282.018h398.507c14.845 0 26.88 12.035 26.88 26.88s-12.035 26.88-26.88 26.88v0z" />
<glyph unicode="&#xe903;" glyph-name="calendar" d="M879.36 783.36h-145.067v88.747c0 13.432-10.888 24.32-24.32 24.32v0c-0.001 0-0.002 0-0.004 0-13.517 0-24.503-10.838-24.743-24.298v-88.769h-346.453v88.747c-0.24 13.482-11.226 24.32-24.743 24.32-0.001 0-0.003 0-0.004 0v0c-13.432 0-24.32-10.888-24.32-24.32v0-88.747h-145.067c-0.005 0-0.012 0-0.018 0-44.172 0-80.092-35.328-81.047-79.271l-0.002-0.089v-623.36c0-44.772 36.295-81.067 81.067-81.067h734.72c44.772 0 81.067 36.295 81.067 81.067v0 623.36c-0.956 44.032-36.877 79.36-81.049 79.36-0.006 0-0.013 0-0.019 0h0.001zM144.64 734.293h145.067v-60.16c-0.002-0.127-0.004-0.277-0.004-0.427 0-13.432 10.888-24.32 24.32-24.32 0.001 0 0.003 0 0.004 0v0c13.667 0 24.747 11.079 24.747 24.747v0 60.16h346.453v-60.16c0-13.667 11.079-24.747 24.747-24.747v0c0.001 0 0.002 0 0.004 0 13.432 0 24.32 10.888 24.32 24.32 0 0.15-0.001 0.3-0.004 0.449v-0.022 60.16h145.067c0.128 0.002 0.279 0.003 0.43 0.003 17.437 0 31.573-14.136 31.573-31.573 0-0.151-0.001-0.302-0.003-0.452v0.023-145.067h-798.72v146.773c0.704 16.879 14.559 30.297 31.548 30.297 0.159 0 0.318-0.001 0.476-0.004h-0.024zM879.36 48.64h-734.72c-0.128-0.002-0.279-0.003-0.43-0.003-17.437 0-31.573 14.136-31.573 31.573 0 0.151 0.001 0.302 0.003 0.452v-0.023 426.667h798.72v-426.667c0.002-0.128 0.003-0.279 0.003-0.43 0-17.437-14.136-31.573-31.573-31.573-0.151 0-0.302 0.001-0.452 0.003h0.023z" />
<glyph unicode="&#xe904;" glyph-name="chevron-down" d="M512 231.253c-0.040 0-0.087 0-0.133 0-6.505 0-12.444 2.427-16.96 6.424l0.027-0.023-457.813 381.013c-6.228 5.074-10.174 12.743-10.174 21.333 0 15.162 12.291 27.454 27.454 27.454 6.572 0 12.604-2.309 17.33-6.16l-0.050 0.039 440.32-368.213 440.32 365.227c4.676 3.811 10.708 6.12 17.28 6.12 15.162 0 27.454-12.291 27.454-27.454 0-8.591-3.946-16.26-10.124-21.294l-0.050-0.039-457.813-378.027c-4.489-3.974-10.428-6.4-16.933-6.4-0.047 0-0.094 0-0.141 0h0.007z" />
<glyph unicode="&#xe905;" glyph-name="chevron-left" d="M295.253 448c0 0.040 0 0.087 0 0.133 0 6.505 2.427 12.444 6.424 16.96l-0.023-0.027 381.013 457.813c5.074 6.228 12.743 10.174 21.333 10.174 15.162 0 27.454-12.291 27.454-27.454 0-6.572-2.309-12.604-6.16-17.33l0.039 0.050-368.213-440.32 365.227-440.32c3.811-4.676 6.12-10.708 6.12-17.28 0-15.162-12.291-27.454-27.454-27.454-8.591 0-16.26 3.946-21.294 10.124l-0.039 0.050-378.027 457.813c-3.974 4.489-6.4 10.428-6.4 16.933 0 0.047 0 0.094 0 0.141v-0.007z" />
<glyph unicode="&#xe906;" glyph-name="chevron-right" d="M728.747 448c0-0.040 0-0.087 0-0.133 0-6.505-2.427-12.444-6.424-16.96l0.023 0.027-381.013-457.813c-5.074-6.228-12.743-10.174-21.333-10.174-15.162 0-27.454 12.291-27.454 27.454 0 6.572 2.309 12.604 6.16 17.33l-0.039-0.050 368.213 440.32-365.227 440.32c-2.154 3.78-3.424 8.306-3.424 13.128 0 14.845 12.035 26.88 26.88 26.88 6.124 0 11.77-2.048 16.289-5.496l-0.065 0.048 381.013-457.813c3.974-4.489 6.4-10.428 6.4-16.933 0-0.047 0-0.094 0-0.141v0.007z" />
<glyph unicode="&#xe907;" glyph-name="chevron-up" d="M512 664.32c1.176 0.174 2.534 0.273 3.915 0.273 4.811 0 9.341-1.207 13.303-3.334l-0.15 0.074 459.093-379.307c6.411-4.971 10.498-12.675 10.498-21.333 0-14.87-12.055-26.925-26.925-26.925-6.212 0-11.932 2.104-16.488 5.637l0.061-0.046-443.307 363.947-442.027-365.227c-4.335-4.062-10.182-6.556-16.611-6.556-8.58 0-16.122 4.443-20.451 11.154l-0.058 0.096c-4.073 4.398-6.572 10.304-6.572 16.795 0 8.654 4.442 16.271 11.171 20.694l0.094 0.058 458.667 381.013c0 2.987 9.387 2.987 15.787 2.987z" />
<glyph unicode="&#xe908;" glyph-name="close-mobile" d="M557.227 448l233.387 233.387c5.321 5.699 8.588 13.376 8.588 21.815 0 17.673-14.327 32-32 32-8.44 0-16.116-3.267-21.834-8.606l0.019 0.017-233.387-233.387-233.387 233.387c-5.699 5.321-13.376 8.588-21.815 8.588-17.673 0-32-14.327-32-32 0-8.44 3.267-16.116 8.606-21.834l-0.017 0.019 233.387-233.387-233.387-233.387c-5.782-5.789-9.359-13.784-9.359-22.613s3.576-16.824 9.359-22.614v0c5.789-5.782 13.784-9.359 22.613-9.359s16.824 3.576 22.614 9.359v0l233.387 233.387 233.387-233.387c5.789-5.782 13.784-9.359 22.613-9.359s16.824 3.576 22.614 9.359v0c5.782 5.789 9.359 13.784 9.359 22.613s-3.576 16.824-9.359 22.614v0z" />
<glyph unicode="&#xe909;" glyph-name="close" d="M549.973 448l442.453 442.453c4.349 4.759 7.014 11.122 7.014 18.107 0 14.845-12.035 26.88-26.88 26.88-6.985 0-13.348-2.664-18.128-7.032l0.021 0.019-442.453-442.453-442.453 442.453c-4.759 4.349-11.122 7.014-18.107 7.014-14.845 0-26.88-12.035-26.88-26.88 0-6.985 2.664-13.348 7.032-18.128l-0.019 0.021 442.453-442.453-442.453-442.453c-4.957-4.813-8.034-11.541-8.034-18.987s3.076-14.173 8.027-18.98l0.006-0.006c4.614-4.993 11.196-8.108 18.506-8.108 0.094 0 0.188 0.001 0.282 0.002h-0.014c0.096-0.001 0.21-0.002 0.323-0.002 7.425 0 14.125 3.11 18.866 8.098l0.010 0.011 442.453 442.453 442.453-442.453c4.878-4.995 11.676-8.096 19.198-8.107h0.002c0.079-0.001 0.173-0.001 0.267-0.001 7.31 0 13.892 3.116 18.491 8.091l0.015 0.017c4.957 4.813 8.034 11.541 8.034 18.987s-3.076 14.173-8.027 18.98l-0.006 0.006z" />
<glyph unicode="&#xe90a;" glyph-name="cog" d="M351.147-30.72c-57.829 0.183-104.638 47.105-104.638 104.96 0 1.651 0.038 3.293 0.114 4.925l-0.008-0.231 2.987 56.32c0.043 0.803 0.068 1.743 0.068 2.688 0 13.757-5.209 26.298-13.762 35.758l0.041-0.046c-8.994 10.512-21.957 17.404-36.54 18.339l-0.154 0.008h-5.547l-56.32-2.987c-1.707-0.1-3.704-0.156-5.714-0.156-57.732 0-104.533 46.801-104.533 104.533 0 30.857 13.37 58.591 34.632 77.726l0.095 0.084 42.667 37.973c10.19 9.116 16.782 22.071 17.489 36.572l0.005 0.121c0.043 0.803 0.068 1.743 0.068 2.688 0 13.757-5.209 26.298-13.762 35.758l0.041-0.046-3.84 3.413-42.667 38.4c-20.757 19.164-33.713 46.513-33.713 76.887 0 57.732 46.801 104.533 104.533 104.533 1.503 0 2.998-0.032 4.485-0.094l-0.212 0.007 56.747-3.413c0.803-0.043 1.743-0.068 2.688-0.068 13.757 0 26.298 5.209 35.758 13.762l-0.046-0.041c10.068 9.148 16.524 22.117 17.064 36.599l0.003 0.095c0.207 0.833 0.326 1.789 0.326 2.773s-0.119 1.94-0.343 2.855l0.017-0.082-2.56 57.173c-0.058 1.309-0.092 2.844-0.092 4.387 0 56.199 44.168 102.082 99.686 104.83l0.246 0.010c2.029 0.146 4.395 0.23 6.781 0.23 30.092 0 57.087-13.256 75.466-34.247l0.099-0.116 37.973-42.667c9.244-10.008 22.125-16.539 36.53-17.485l0.163-0.009c0.681-0.031 1.48-0.049 2.283-0.049 13.747 0 26.28 5.201 35.737 13.744l-0.047-0.041c1.498 1.071 2.769 2.342 3.807 3.791l0.033 0.049 38.4 42.667c19.305 22.928 48.025 37.396 80.123 37.396 57.732 0 104.533-46.801 104.533-104.533 0-2.95-0.122-5.872-0.362-8.761l0.025 0.378-2.56-56.32c-0.043-0.803-0.068-1.743-0.068-2.688 0-13.757 5.209-26.298 13.762-35.758l-0.041 0.046c9.148-10.068 22.117-16.524 36.599-17.064l0.095-0.003h5.12l56.32 2.56c1.687 0.098 3.66 0.153 5.646 0.153 55.9 0 101.509-44.057 104-99.342l0.008-0.224c0.115-1.822 0.181-3.952 0.181-6.096 0-30.426-13.215-57.765-34.217-76.592l-0.097-0.085-42.667-37.973c-10.654-9.853-17.302-23.905-17.302-39.509 0-13.673 5.104-26.153 13.511-35.64l-0.049 0.056 4.267-3.84 42.667-37.547c21.141-19.271 34.355-46.924 34.355-77.663 0-27.126-10.291-51.849-27.181-70.478l0.079 0.088c-19.074-21.334-46.677-34.699-77.403-34.699-1.889 0-3.766 0.051-5.631 0.15l0.26-0.011-58.88 3.84c-0.803 0.043-1.743 0.068-2.688 0.068-13.757 0-26.298-5.209-35.758-13.762l0.046 0.041c-10.19-9.116-16.782-22.071-17.489-36.572l-0.005-0.121v-5.12l5.12-57.6c0.082-1.549 0.129-3.362 0.129-5.186 0-56.192-44.518-101.985-100.209-104.035l-0.187-0.005c-1.796-0.113-3.895-0.177-6.010-0.177-30.105 0-57.162 13.045-75.828 33.791l-0.082 0.093-37.973 42.667c-9.848 11.657-24.475 19.009-40.82 19.009-14.715 0-28.038-5.959-37.687-15.596l0.001 0.001-3.413-3.84-38.4-42.667c-18.105-19.943-43.698-32.807-72.304-34.125l-0.229-0.008zM196.693 242.773h5.12c28.926-1.29 54.57-14.343 72.442-34.455l0.092-0.105c16.756-18.527 27.010-43.21 27.010-70.288 0-1.84-0.047-3.669-0.141-5.486l0.010 0.255-2.56-56.32c-0.064-0.977-0.101-2.119-0.101-3.269 0-15.626 6.774-29.67 17.546-39.355l0.048-0.043c9.36-8.787 21.991-14.185 35.884-14.185 15.569 0 29.554 6.779 39.165 17.547l0.045 0.051 37.973 42.667c2.23 2.65 4.604 5.023 7.165 7.181l0.088 0.072c18.54 16.812 43.263 27.102 70.39 27.102 30.739 0 58.393-13.214 77.589-34.272l0.075-0.083 37.973-42.667c9.707-10.587 23.601-17.2 39.040-17.2s29.333 6.613 39.005 17.16l0.035 0.039c8.746 9.529 14.106 22.289 14.106 36.3 0 0.588-0.009 1.175-0.028 1.758l0.002-0.085-2.987 56.32c-0.204 1.665-0.32 3.592-0.32 5.547s0.116 3.882 0.342 5.776l-0.022-0.229c3.182 55.399 48.884 99.12 104.797 99.12 1.858 0 3.705-0.048 5.539-0.144l-0.257 0.011 56.32-2.987c1.086-0.081 2.352-0.127 3.63-0.127 15.519 0 29.453 6.792 38.989 17.565l0.048 0.055c8.46 9.4 13.634 21.903 13.634 35.615 0 15.628-6.722 29.686-17.431 39.44l-0.043 0.038-42.667 37.547-7.253 7.68c-16.812 18.54-27.102 43.263-27.102 70.39 0 30.739 13.214 58.393 34.272 77.589l0.083 0.075 42.667 37.973c10.848 9.658 17.647 23.662 17.647 39.253s-6.799 29.595-17.595 39.207l-0.053 0.046c-9.119 8.516-21.403 13.745-34.908 13.745-1.078 0-2.149-0.033-3.211-0.099l0.146 0.007-56.32-2.987h-11.947c-55.662 3.425-99.507 49.405-99.507 105.625 0 1.567 0.034 3.126 0.101 4.676l-0.008-0.221 2.987 56.32c0.055 0.904 0.086 1.96 0.086 3.024 0 29.22-23.687 52.907-52.907 52.907-15.596 0-29.615-6.748-39.298-17.483l-0.042-0.047-38.4-42.667c-2.388-2.969-4.903-5.619-7.617-8.051l-0.063-0.056c-18.406-16.51-42.861-26.606-69.674-26.606-31.846 0-60.365 14.24-79.538 36.701l-0.121 0.145-37.973 42.667c-9.981 10.567-24.089 17.145-39.734 17.145-1.032 0-2.057-0.029-3.074-0.085l0.141 0.006c-26.795-2.839-47.489-25.317-47.489-52.629 0-1.299 0.047-2.587 0.139-3.863l-0.010 0.171 2.987-56.32v-11.093c-3.634-55.478-49.523-99.1-105.6-99.1-1.726 0-3.442 0.041-5.147 0.123l0.241-0.009-56.747 2.987c-0.816 0.044-1.77 0.069-2.731 0.069-15.787 0-29.997-6.751-39.9-17.523l-0.035-0.039c-8.552-9.365-13.79-21.882-13.79-35.623 0-15.44 6.614-29.336 17.164-39.008l0.039-0.036 42.667-38.4 7.253-7.253c16.77-18.296 27.046-42.782 27.046-69.668 0-2.058-0.060-4.103-0.179-6.132l0.013 0.28c-1.327-28.835-14.19-54.429-34.047-72.456l-0.086-0.077-42.667-37.973c-10.356-9.752-16.804-23.552-16.804-38.859 0-29.455 23.878-53.333 53.333-53.333 0.658 0 1.313 0.012 1.965 0.036l-0.094-0.003 56.32 2.987zM506.027 240.64c-114.522 0-207.36 92.838-207.36 207.36s92.838 207.36 207.36 207.36c114.522 0 207.36-92.838 207.36-207.36v0c0-114.522-92.838-207.36-207.36-207.36v0zM506.027 603.307c-85.774 0-155.307-69.533-155.307-155.307s69.533-155.307 155.307-155.307c85.774 0 155.307 69.533 155.307 155.307v0c0 85.774-69.533 155.307-155.307 155.307v0z" />
<glyph unicode="&#xe90b;" glyph-name="export-world" d="M970.667 375.040c13.525 37.233 21.346 80.21 21.346 125.013s-7.821 87.78-22.172 127.64l0.826-2.627s0 2.987 0 4.693c-45.667 122.174-148.334 213.422-274.756 242.278l-2.578 0.495c-23.569 5.327-50.764 8.571-78.649 8.957l-0.284 0.003c-28.206-0.157-55.568-3.413-81.872-9.445l2.512 0.485h-3.84c-130.13-28.642-233.885-120.265-279.022-240.552l-0.871-2.648c0.026-0.446 0.041-0.968 0.041-1.493s-0.015-1.047-0.044-1.565l0.003 0.072c-8.37-22.785-15.084-49.565-18.959-77.255l-0.241-2.105c-0.099-0.833-0.156-1.797-0.156-2.775 0-12.519 9.296-22.866 21.361-24.517l0.129-0.014c0.849-0.102 1.833-0.16 2.83-0.16 12.604 0 23.045 9.263 24.885 21.353l0.017 0.14c2.405 19.901 6.298 37.817 11.676 55.077l-0.583-2.17h177.067c-0.722-15.8-1.133-34.326-1.133-52.949 0-57.912 3.979-114.894 11.677-170.689l-0.73 6.464c1.917-11.874 12.061-20.842 24.313-20.907h3.42c12.028 2.040 21.074 12.382 21.074 24.837 0 1.020-0.061 2.027-0.179 3.016l0.012-0.119c-6.763 47.086-10.625 101.459-10.625 156.735 0 18.856 0.449 37.607 1.338 56.244l-0.1-2.632h186.027c0-18.347 0-36.693 0-55.040 0-0.369 0.001-0.806 0.001-1.243 0-54.341-3.877-107.777-11.371-160.045l0.703 5.982s0 0 0 0 0 0 0 0 0-2.133 0-2.987c-0.118-0.705-0.186-1.518-0.186-2.347s0.067-1.641 0.197-2.433l-0.012 0.086c-0.034-0.637-0.053-1.383-0.053-2.133s0.019-1.496 0.058-2.237l-0.004 0.104 2.987-3.84c0.93-1.206 2.064-2.204 3.358-2.957l0.055-0.030c1.004-1.165 2.302-2.051 3.78-2.543l0.060-0.017h202.24c-27.035-56.234-67.676-102.214-117.776-134.907l-1.264-0.773c-6.596-4.513-10.868-12.002-10.868-20.489 0-13.438 10.711-24.374 24.061-24.737l0.034-0.001c5.049 0.014 9.762 1.441 13.768 3.906l-0.115-0.066c69.116 45.401 121.778 110.875 150.188 188.075l0.852 2.645c1.652-0.502 3.555-0.811 5.524-0.853h0.023zM910.080 642.987h-161.28c-5.572 63.842-15.38 122.019-29.384 178.541l1.651-7.874c49.088-17.339 91.023-44.163 125.446-78.513l-0.006 0.006c25.399-26.241 46.685-56.667 62.687-90.104l0.886-2.056zM310.187 642.987c38.583 79.341 105.212 140.009 186.69 169.92l2.324 0.746c-12.313-48.602-22.119-106.777-27.416-166.249l-0.317-4.417zM520.96 642.987c6.708 68.835 18.601 131.498 35.554 192.046l-1.847-7.726c16.74 2.887 36.078 4.59 55.795 4.693h0.098c0.047 0 0.102 0 0.158 0 19.706 0 38.977-1.863 57.647-5.423l-1.912 0.303c14.381-52.497 25.825-115.059 32.054-179.149l0.373-4.744zM745.813 405.333c5.016 40.2 7.957 86.874 8.106 134.206v0.194c0 18.347 0 36.267 0 54.613h177.067c8.68-27.329 13.682-58.762 13.682-91.364 0-1.48-0.010-2.958-0.031-4.433l0.002 0.223c-0.744-33.625-6.464-65.657-16.449-95.743l0.662 2.303zM666.88 298.24v0c-13.384 8.322-29.627 13.256-47.022 13.256-8.782 0-17.27-1.257-25.294-3.602l0.636 0.159-125.867-35.84-203.093 163.84c-5.108 4.115-11.298 7.103-18.072 8.486l-0.275 0.047c-3.015 0.615-6.48 0.967-10.027 0.967s-7.012-0.352-10.362-1.023l0.335 0.056-54.613-17.92-7.68-3.84c-9.292-5.486-16.084-14.367-18.715-24.897l-0.058-0.276c-0.766-3.024-1.205-6.495-1.205-10.069 0-9.356 3.011-18.008 8.117-25.041l-0.085 0.123 115.627-139.093-63.573-18.773-48.213 55.040-3.84 3.413c-4.666 3.955-10.482 6.693-16.879 7.657l-0.188 0.023c-1.682 0.258-3.622 0.406-5.597 0.406-5.37 0-10.486-1.090-15.137-3.061l0.254 0.096-73.387-31.147-8.533-4.267c-8.244-5.343-14.236-13.56-16.586-23.204l-0.054-0.263c-0.528-2.427-0.83-5.216-0.83-8.075 0-8.291 2.543-15.989 6.892-22.355l-0.088 0.137 104.533-144.213c5.359-7.996 13.155-13.995 22.312-16.982l0.302-0.085c5.045-2.096 10.901-3.344 17.039-3.413h0.027c1.665-0.211 3.592-0.332 5.547-0.332s3.882 0.121 5.773 0.355l-0.226-0.023 461.227 110.507c16.758 4.496 31.161 12.954 42.676 24.329l-0.010-0.009c11.659 10.79 20.505 24.457 25.42 39.878l0.18 0.656c2.909 9.046 4.62 19.457 4.693 30.256v0.037c-0.387 16.816-4.927 32.491-12.629 46.146l0.256-0.493c-8.649 13.346-19.958 24.246-33.246 32.172l-0.461 0.255zM660.48 203.093c-2.234-7.785-6.388-14.424-11.923-19.605l-0.024-0.022c-5.483-5.022-12.245-8.737-19.739-10.601l-0.314-0.066-457.813-108.8-98.133 132.267 55.467 23.467 51.627-60.16c4.483-5.134 11.040-8.359 18.35-8.359 2.589 0 5.083 0.404 7.422 1.153l-0.172-0.048 114.773 33.707c7.898 2.64 14 8.742 16.587 16.456l0.053 0.184c0.56 1.998 0.882 4.293 0.882 6.664 0 6.054-2.102 11.617-5.615 16l0.039-0.050-132.267 157.013 39.253 12.8 209.493-170.667c4.182-3.495 9.616-5.618 15.546-5.618 2.365 0 4.651 0.338 6.812 0.967l-0.172-0.043 137.813 39.253c2.499 0.607 5.369 0.956 8.32 0.956s5.82-0.348 8.57-1.006l-0.25 0.050c6.072-0.88 11.54-2.831 16.433-5.664l-0.219 0.117c6.516-4.273 11.827-9.856 15.661-16.408l0.125-0.232c3.61-6.398 5.803-14.018 5.973-22.136l0.001-0.050c-0.382-4.241-1.289-8.15-2.662-11.833l0.102 0.313z" />
<glyph unicode="&#xe90c;" glyph-name="FAQ" d="M512 932.693c-267.689 0-484.693-217.005-484.693-484.693s217.005-484.693 484.693-484.693c267.689 0 484.693 217.005 484.693 484.693v0c-0.485 267.494-217.2 484.209-484.647 484.693h-0.046zM512 12.373c-240.59 0-435.627 195.037-435.627 435.627s195.037 435.627 435.627 435.627c240.59 0 435.627-195.037 435.627-435.627v0c-0.243-240.492-195.134-435.384-435.603-435.627h-0.024zM608 689.92c-23.899 16.926-53.168 27.804-84.843 29.841l-0.49 0.025c-3.652 0.287-7.907 0.451-12.2 0.451-27.646 0-53.706-6.794-76.6-18.805l0.907 0.433c-26.94-14.687-48.868-35.522-64.431-60.707l-0.422-0.733c-14.928-24.339-23.803-53.79-23.893-85.308v-0.025c-0.002-0.127-0.004-0.277-0.004-0.427 0-13.432 10.888-24.32 24.32-24.32 0.001 0 0.003 0 0.004 0v0c13.667 0 24.747 11.079 24.747 24.747v0c0.357 64.766 52.943 117.13 117.758 117.13 2.552 0 5.086-0.081 7.598-0.241l-0.343 0.017c44.492-3.53 81.783-31.13 99.112-69.651l0.301-0.749c6.105-13.709 9.66-29.705 9.66-46.532 0-5.71-0.409-11.324-1.2-16.815l0.074 0.627c-3.294-22.268-12.252-42.002-25.354-58.258l0.18 0.231c-13.56-16.094-30.949-28.54-50.782-35.989l-0.844-0.278c-19.292-6.6-35.234-18.82-46.309-34.687l-0.198-0.299c-10.902-15.326-17.446-34.414-17.493-55.028v-11.959c0-13.667 11.079-24.747 24.747-24.747s24.747 11.079 24.747 24.747v0 11.947c-0.006 0.267-0.009 0.581-0.009 0.897 0 9.719 3.037 18.728 8.213 26.131l-0.098-0.148c5.594 7.761 13.304 13.682 22.284 16.962l0.329 0.105c29.069 10.131 53.556 27.193 72.339 49.26l0.194 0.234c23.198 28.375 37.255 65.012 37.255 104.931 0 55.796-27.462 105.178-69.607 135.367l-0.501 0.341zM488.533 253.013c-6.941-4.595-12.365-10.978-15.679-18.5l-0.107-0.273c-1.902-4.66-3.006-10.067-3.006-15.733 0-3.040 0.318-6.006 0.922-8.866l-0.049 0.279c1.723-8.561 5.802-15.977 11.524-21.764l-0.004 0.004c5.699-5.85 13.155-9.962 21.515-11.483l0.245-0.037c1.219-0.213 2.622-0.334 4.053-0.334s2.835 0.122 4.2 0.355l-0.147-0.021c0.155-0.002 0.339-0.003 0.523-0.003 5.649 0 11.042 1.098 15.977 3.092l-0.286-0.102c7.795 3.422 14.179 8.845 18.675 15.629l0.099 0.158c4.482 6.589 7.183 14.706 7.253 23.449v0.018c-0.051 11.656-4.767 22.2-12.376 29.869l0.003-0.003c-7.627 7.225-17.953 11.668-29.317 11.668-8.969 0-17.291-2.767-24.16-7.495l0.144 0.094z" />
<glyph unicode="&#xe90d;" glyph-name="globe" d="M967.253 282.88c0.086 0.895 0.134 1.935 0.134 2.987s-0.049 2.092-0.144 3.118l0.010-0.132c17.3 47.39 27.305 102.1 27.305 159.147s-10.005 111.757-28.356 162.471l1.051-3.325c0.086 0.895 0.134 1.935 0.134 2.987s-0.049 2.092-0.144 3.118l0.010-0.132c-57.501 154.665-187.204 270.272-347.027 306.995l-3.266 0.632h-2.987c-31.225 7.328-67.077 11.529-103.91 11.529-35.439 0-69.969-3.889-103.188-11.263l3.151 0.587h-3.413c-162.949-37.705-292.39-153.612-348.353-305.12l-1.087-3.36c-1.154-1.839-2.040-3.981-2.536-6.268l-0.024-0.132c-17.303-47.257-27.31-101.82-27.31-158.72s10.007-111.463 28.358-162.025l-1.048 3.305c0.52-2.419 1.406-4.561 2.609-6.484l-0.049 0.084c61.845-166.753 208.204-288.519 385.663-314.145l2.604-0.309h2.987c18.858-2.713 40.877-4.409 63.238-4.69l0.335-0.003c22.696 0.284 44.715 1.981 66.308 5.007l-2.735-0.314h3.413c179.868 26.401 326.024 147.976 387.163 311.095l1.104 3.358zM76.373 448c0.056 45.719 7.229 89.742 20.471 131.048l-0.844-3.048h240.213c-1.245-23.075-1.954-50.086-1.954-77.263 0-62.987 3.81-125.084 11.213-186.074l-0.726 7.337h-248.747c-12.398 38.259-19.571 82.282-19.627 127.973v0.027zM384 576h256c0-26.027 2.56-51.627 2.56-77.653-0.743-63.628-5.371-125.423-13.662-186.051l0.862 7.705h-235.52c-7.616 55.706-11.963 120.085-11.963 185.48 0 24.804 0.625 49.462 1.861 73.959l-0.138-3.438zM685.653 576h240.64c12.286-38.278 19.368-82.312 19.368-128s-7.082-89.722-20.208-131.064l0.84 3.064h-247.040c6.658 53.912 10.529 116.455 10.666 179.874v0.179c0 25.173-1.28 50.773-2.56 75.947zM907.52 625.067h-224.853c-7.282 87.964-21.181 168.683-41.463 246.83l2.21-10.030c119.153-38.698 213.901-123.705 264.688-233.242l1.125-2.705zM591.36 874.667c19.783-72.094 34.888-157.275 42.299-244.649l0.367-5.378h-244.48c7.902 92.859 23.002 178.032 45.022 260.378l-2.355-10.351c23.691 5.086 51.164 8.317 79.279 8.951l0.507 0.009c28.49-0.671 55.812-3.901 82.272-9.473l-2.912 0.513zM378.027 861.44c-16.711-67.446-29.713-147.828-36.336-230.011l-0.357-5.509h-226.56c51.461 112.352 145.758 197.605 261.441 235.913l3.092 0.887zM114.773 270.080h237.653c14.716-93.782 35.216-176.455 62.057-256.214l-3.177 10.88c-133.201 32.738-240.436 123.166-295.412 242.615l-1.121 2.718zM465.92 14.080c-26.171 72.41-48.442 158.604-62.854 247.434l-1.146 8.566h221.013c-15.593-97.33-38.011-183.513-67.634-266.267l3.208 10.267c-13.891-1.63-29.984-2.56-46.293-2.56s-32.402 0.93-48.228 2.74l1.934-0.18zM613.547 23.893c23.789 68.998 44.294 151.678 57.754 236.702l1.126 8.631h236.8c-56.123-121.64-162.973-211.688-292.673-243.849l-3.007-0.631z" />
<glyph unicode="&#xe90e;" glyph-name="hamburger-mobile" d="M213.333 629.333h597.333c17.673 0 32 14.327 32 32s-14.327 32-32 32v0h-597.333c-17.673 0-32-14.327-32-32s14.327-32 32-32v0zM810.667 480h-597.333c-17.673 0-32-14.327-32-32s14.327-32 32-32v0h597.333c17.673 0 32 14.327 32 32s-14.327 32-32 32v0zM810.667 266.667h-597.333c-17.673 0-32-14.327-32-32s14.327-32 32-32v0h597.333c17.673 0 32 14.327 32 32s-14.327 32-32 32v0z" />
<glyph unicode="&#xe90f;" glyph-name="import-location" d="M584.533 201.813c0.227-0.002 0.495-0.003 0.763-0.003 9.788 0 19.211 1.562 28.033 4.45l-0.637-0.18c16.849 4.662 31.271 13.419 42.643 25.149l0.023 0.024c7.115 7.147 12.879 15.647 16.871 25.079l0.196 0.521c5.757 11.993 9.121 26.072 9.121 40.937 0 1.959-0.058 3.905-0.174 5.836l0.013-0.266c-1.432 16.769-6.803 32.035-15.174 45.206l0.241-0.406c-6.876 10.606-15.561 19.427-25.703 26.248l-0.324 0.205c-9.881 6.393-21.521 11.029-34.017 13.15l-0.543 0.076-128 22.613-114.347 235.52c-3.093 6.182-7.419 11.327-12.69 15.281l-0.11 0.079c-5.322 4.106-11.878 6.866-19.026 7.664l-0.174 0.016-55.893 7.68h-9.387c-11.245-1.453-20.954-7.096-27.674-15.285l-0.060-0.075c-5.96-7.28-9.572-16.683-9.572-26.93 0-2.545 0.223-5.038 0.65-7.46l-0.038 0.257 42.667-175.787-65.28 10.667-18.347 71.253c0.084 0.704 0.132 1.52 0.132 2.347s-0.048 1.642-0.141 2.444l0.009-0.098c-3.013 5.712-7.192 10.437-12.249 13.997l-0.124 0.083c-5.384 3.806-11.957 6.282-19.071 6.819l-0.129 0.008-81.067 5.12h-10.24c-9.494-1.88-17.524-7.122-22.97-14.408l-0.070-0.098c-5.12-6.259-8.223-14.341-8.223-23.149 0-2.223 0.198-4.4 0.576-6.514l-0.033 0.222 33.28-176.213c1.889-10.053 6.586-18.788 13.237-25.61l-0.010 0.010c6.595-6.605 14.998-11.403 24.404-13.586l0.343-0.067 460.8-101.12c5.225-1.021 11.264-1.639 17.436-1.706h0.058zM85.333 514.56l60.587-2.987 20.48-76.373c2.458-9.294 10.049-16.313 19.484-17.9l0.143-0.020 118.187-19.2c0.778-0.088 1.679-0.139 2.592-0.139 6.848 0 13.036 2.831 17.456 7.386l0.006 0.006c4.119 4.408 6.647 10.347 6.647 16.877 0 2.036-0.246 4.014-0.709 5.906l0.035-0.17-49.92 198.4 40.533-5.12 115.2-243.2c3.389-7.114 9.934-12.251 17.774-13.632l0.146-0.021 141.653-24.747c5.988-1.014 11.315-3.263 15.912-6.483l-0.125 0.083c4.675-2.989 8.531-6.845 11.431-11.372l0.089-0.148c4.057-6.167 6.684-13.607 7.245-21.616l0.008-0.144c0.060-0.883 0.094-1.913 0.094-2.952 0-7.137-1.608-13.899-4.481-19.943l0.121 0.282c-2.15-4.806-5.022-8.908-8.529-12.369l-0.004-0.004c-5.196-5.468-11.633-9.707-18.863-12.269l-0.337-0.104c-3.458-0.912-7.428-1.436-11.52-1.436s-8.062 0.524-11.846 1.508l0.326-0.072-460.8 100.267zM644.267 501.76c6.44-2.523 13.891-4.072 21.678-4.265l0.082-0.002h11.52c11.445 2.182 21.361 7.643 29.010 15.356l0.004 0.004c10.532 10.311 17.061 24.674 17.061 40.562 0 8.167-1.725 15.931-4.831 22.947l0.143-0.362c-4.38 10.635-11.594 19.359-20.705 25.473l-0.201 0.127c-8.901 5.764-19.782 9.19-31.463 9.19-15.802 0-30.139-6.27-40.66-16.458l0.016 0.015c-10.272-10.262-16.629-24.441-16.64-40.105v-0.002c0.104-11.879 3.588-22.924 9.533-32.246l-0.147 0.246c6.382-9.057 15.069-16.098 25.217-20.338l0.383-0.142zM896 791.893c-60.446 58.964-143.167 95.335-234.383 95.335-44.984 0-87.903-8.846-127.11-24.893l2.24 0.811c-41.656-17.399-77.227-41.476-107.101-71.261l0.008 0.008c-14.064-13.612-26.817-28.396-38.165-44.254l-0.661-0.972c-1.734-3.294-2.751-7.198-2.751-11.34 0-13.667 11.079-24.747 24.747-24.747 7.367 0 13.982 3.219 18.515 8.327l0.022 0.026c10.089 14.459 20.602 27.138 32.061 38.89l-0.061-0.063c50.955 50.555 121.136 81.797 198.613 81.797s147.658-31.242 198.631-81.815l-0.018 0.018c50.619-50.71 81.921-120.716 81.921-198.033 0-0.279 0-0.558-0.001-0.836v0.043c-2.666-38.811-12.772-74.682-28.899-107.024l0.739 1.638c-25.119-56.207-50.482-103.246-78.809-148.23l2.862 4.87c-60.441-96.528-118.643-178.495-181.009-257.004l4.369 5.697c-17.493 22.613-38.827 50.773-62.293 82.773-4.532 4.872-10.98 7.91-18.137 7.91-13.667 0-24.747-11.079-24.747-24.747 0-4.476 1.188-8.675 3.267-12.298l-0.064 0.121c24.747-33.707 47.36-63.573 65.707-85.333 4.216-5.635 9.661-10.124 15.955-13.116l0.258-0.111c6.189-3.299 13.535-5.236 21.333-5.236s15.144 1.937 21.583 5.357l-0.249-0.121c6.52 2.986 11.959 7.332 16.142 12.704l0.072 0.096c59.189 74.754 119.072 159.216 174.527 246.762l7.233 12.225c26.642 41.929 53.145 91.069 76.246 142.077l3.114 7.683c17.686 36.378 29.191 78.822 31.953 123.63l0.047 0.956c-0.499 90.709-37.778 172.615-97.668 231.641l-0.039 0.039z" />
<glyph unicode="&#xe910;" glyph-name="import-world" d="M654.507 156.587c-6.752 10.702-15.462 19.549-25.701 26.253l-0.325 0.2c-9.731 6.455-21.239 11.1-33.621 13.156l-0.512 0.070-128 22.613-112.64 235.52c-2.896 6.295-7.263 11.484-12.679 15.28l-0.121 0.080c-5.249 4.021-11.6 6.879-18.52 8.071l-0.253 0.036-55.893 7.253h-10.24c-21.109-2.789-37.23-20.671-37.23-42.319 0-2.382 0.195-4.719 0.571-6.995l-0.034 0.248 42.667-175.787-65.707 11.093-17.067 71.68c0.115 0.705 0.18 1.518 0.18 2.347s-0.066 1.641-0.192 2.434l0.011-0.087c-3.291 6.247-8.084 11.313-13.912 14.839l-0.168 0.094c-5.47 3.489-12.013 5.791-19.042 6.389l-0.158 0.011-79.787 3.84h-9.813c-10.439-1.059-19.48-6.302-25.54-14.001l-0.060-0.079c-4.987-6.894-7.977-15.518-7.977-24.841 0-1.771 0.108-3.517 0.318-5.232l-0.021 0.206 33.707-176.213c1.714-9.887 6.281-18.497 12.809-25.183l-0.009 0.009c6.393-6.906 14.889-11.782 24.467-13.609l0.28-0.044 460.373-101.547c5.348-1.369 11.488-2.155 17.811-2.155 0.638 0 1.275 0.008 1.91 0.024l-0.094-0.002c0.11 0 0.24-0.001 0.37-0.001 26.76 0 50.881 11.301 67.85 29.39l0.047 0.050c7 7.289 12.861 15.742 17.249 25.026l0.244 0.574c5.519 11.774 8.739 25.567 8.739 40.112 0 18.975-5.481 36.67-14.946 51.588l0.233-0.393zM616.533 85.76c-2.271-4.764-5.128-8.848-8.546-12.387l0.013 0.013c-5.094-5.5-11.579-9.641-18.898-11.868l-0.302-0.079c-3.453-1.006-7.419-1.585-11.52-1.585s-8.067 0.579-11.821 1.659l0.301-0.074-460.8 99.84-30.72 161.707 60.16-2.987 20.907-76.373c2.556-9.237 10.098-16.209 19.476-17.898l0.15-0.022 117.76-19.2c1.241-0.224 2.668-0.353 4.126-0.353 7.157 0 13.592 3.091 18.042 8.012l0.019 0.021c3.745 4.142 6.036 9.659 6.036 15.712 0 1.688-0.178 3.335-0.517 4.922l0.027-0.154-49.92 200.533 42.667-5.547 115.2-243.2c3.389-7.114 9.934-12.251 17.774-13.632l0.146-0.021 141.227-24.747c5.951-0.998 11.267-3.091 15.96-6.076l-0.173 0.103c4.724-3.255 8.692-7.223 11.847-11.794l0.1-0.153c3.944-6.202 6.551-13.615 7.241-21.578l0.013-0.182c-0.271-8.313-2.45-16.058-6.11-22.892l0.136 0.279zM981.333 378.453c13.782 37.402 21.755 80.597 21.755 125.653s-7.973 88.252-22.584 128.25l0.83-2.597c0.084 0.704 0.132 1.52 0.132 2.347s-0.048 1.642-0.141 2.444l0.009-0.098c-46.731 121.609-150.108 212.014-276.927 239.747l-2.539 0.466h-2.56c-23.98 5.422-51.519 8.531-79.784 8.533h-0.002c-27.831-0.027-54.922-3.135-80.969-8.999l2.463 0.466c-0.897 0.115-1.934 0.181-2.987 0.181s-2.090-0.066-3.108-0.193l0.121 0.012c-127.355-29.848-228.65-120.016-273.467-238.002l-0.88-2.638v-3.84c-4.628-11.659-9.028-25.918-12.395-40.572l-0.405-2.095c-0.426-1.689-0.671-3.627-0.671-5.623 0-11.47 8.081-21.052 18.861-23.362l0.157-0.028c1.318-0.249 2.834-0.391 4.384-0.391 11.223 0 20.7 7.47 23.732 17.71l0.044 0.175c0 7.68 3.84 15.36 5.973 23.040h177.067c-0.877-16.867-1.377-36.619-1.377-56.488 0-56.679 4.068-112.408 11.927-166.91l-0.736 6.225c-0.091-0.513-0.143-1.104-0.143-1.707s0.052-1.194 0.152-1.768l-0.009 0.061v-3.84c0.786-1.647 1.787-3.057 2.988-4.268l-0.001 0.001 2.133-2.987 5.12-2.987h2.56c1.347-0.291 2.894-0.457 4.48-0.457s3.133 0.166 4.625 0.483l-0.145-0.026h187.733c-4.267-27.733-9.387-55.040-16.213-81.92-0.431-1.713-0.678-3.679-0.678-5.703 0-11.555 8.058-21.228 18.861-23.705l0.163-0.032h5.547c11.496 0.058 21.134 7.947 23.856 18.602l0.037 0.171q10.667 46.080 17.92 93.44h170.667c-28.702-59.259-72.531-107.336-126.548-140.4l-1.452-0.826c-7.029-4.446-11.628-12.178-11.628-20.983 0-4.699 1.309-9.091 3.583-12.833l-0.062 0.11c4.509-6.909 12.17-11.433 20.894-11.52h0.013c0.213-0.007 0.463-0.011 0.714-0.011 4.473 0 8.649 1.275 12.183 3.481l-0.097-0.057c73.984 45.342 130.319 113.263 160.005 194.056l0.848 2.637zM919.040 647.68h-160.853c-5.834 64.148-15.633 122.311-29.431 178.908l1.698-8.241c83.606-30.791 150.061-91.426 187.713-168.68l0.874-1.987zM676.693 832c14.425-52.698 25.731-115.294 31.668-179.446l0.332-4.447h-178.773c6.182 68.441 17.643 131.028 34.204 191.508l-1.777-7.614c17.050 3.257 36.662 5.12 56.708 5.12 0.163 0 0.327 0 0.49 0h-0.025c20.342-0.202 40.103-2.056 59.338-5.435l-2.164 0.315zM319.573 647.68c38.748 79.077 105.12 139.632 186.252 169.903l2.335 0.763c-12.016-48.251-21.812-106.411-27.366-165.802l-0.367-4.864zM532.907 409.6c-5.179 40.49-8.134 87.332-8.134 134.865 0 19.046 0.474 37.981 1.412 56.794l-0.105-2.645h185.6c0-18.347 0-36.693 0-55.040 0.008-1.568 0.013-3.423 0.013-5.278 0-45.356-2.795-90.060-8.222-133.947l0.53 5.252zM755.2 409.6c4.622 39.043 7.26 84.267 7.26 130.106 0 1.359-0.002 2.718-0.007 4.076l0.001-0.209c0 18.347 0 36.693 0 55.040h176.213c8.931-28.274 14.077-60.789 14.077-94.507s-5.146-66.233-14.696-96.804l0.619 2.298z" />
<glyph unicode="&#xe911;" glyph-name="incubation-period" d="M343.893 340.48c-6.037 6.111-14.416 9.896-23.68 9.896s-17.643-3.785-23.677-9.893l-0.003-0.003c-5.909-6.128-9.55-14.479-9.55-23.68s3.641-17.552 9.56-23.69l-0.010 0.010c6.189-5.981 14.596-9.702 23.872-9.813h0.022c18.302 0.405 32.985 15.337 32.985 33.699 0 9.13-3.63 17.413-9.526 23.483l0.008-0.008zM207.787 248.747c-5.65-6.013-9.121-14.13-9.121-23.059 0-18.222 14.46-33.067 32.531-33.687l0.057-0.002c0.411-0.018 0.894-0.028 1.379-0.028 9.078 0 17.318 3.589 23.378 9.425l-0.011-0.010c6.060 6.060 9.809 14.432 9.809 23.68 0 18.495-14.993 33.489-33.489 33.489-9.248 0-17.62-3.748-23.68-9.809v0zM333.653 215.040c-5.888-6.062-9.518-14.344-9.518-23.474 0-18.362 14.682-33.294 32.947-33.698l0.038-0.001c18.486 0.171 33.405 15.196 33.405 33.705 0 9.127-3.628 17.407-9.52 23.476l0.008-0.008c-6.037 6.111-14.416 9.896-23.68 9.896s-17.643-3.785-23.677-9.893l-0.003-0.003zM532.48 362.667c-3.219 7.955-10.881 13.465-19.829 13.465-2.847 0-5.564-0.558-8.047-1.57l0.143 0.051-48.64-20.053c-30.931 42.585-78.35 71.575-132.695 77.577l-0.851 0.076v42.667c-0.234 11.687-9.647 21.099-21.311 21.333h-0.022c-11.782 0-21.333-9.551-21.333-21.333v0-42.667c-54.237-6.52-100.761-35.059-131.043-76.272l-0.37-0.528-45.653 19.627c-2.363 0.936-5.101 1.479-7.965 1.479-8.923 0-16.615-5.267-20.138-12.862l-0.057-0.137c-1.094-2.482-1.731-5.375-1.731-8.417 0-8.867 5.41-16.471 13.11-19.691l0.141-0.052 42.667-17.067c-9.027-20.843-14.277-45.115-14.277-70.613s5.251-49.771 14.729-71.794l-0.452 1.181-42.667-16.64c-7.759-3.308-13.099-10.87-13.099-19.68 0-2.904 0.58-5.672 1.631-8.195l-0.052 0.141c3.011-7.8 10.449-13.232 19.155-13.232 0.166 0 0.332 0.002 0.497 0.006h-0.024c1.218-0.196 2.623-0.307 4.053-0.307s2.835 0.112 4.205 0.327l-0.152-0.020 42.667 17.92c30.947-44.412 79.179-74.935 134.741-81.825l0.939-0.095-3.84-38.827c-0.074-0.669-0.117-1.444-0.117-2.229 0-11.072 8.435-20.174 19.229-21.231l0.088-0.007h2.56c0.021 0 0.045 0 0.070 0 10.946 0 19.927 8.412 20.832 19.123l0.005 0.077 4.267 42.667c57.205 6.252 106.129 37.151 136.539 81.694l0.421 0.653 42.667-17.493c1.282-0.192 2.762-0.302 4.267-0.302s2.985 0.11 4.431 0.322l-0.164-0.020c8.78 0.163 16.274 5.502 19.572 13.086l0.054 0.14c1.082 2.442 1.712 5.291 1.712 8.286 0 8.784-5.417 16.302-13.092 19.397l-0.14 0.050-38.827 16.64c8.186 19.947 13.025 43.087 13.226 67.333l0.001 0.080c-0.049 26.659-5.535 52.023-15.409 75.061l0.476-1.248 42.667 17.493c6.937 3.616 11.592 10.754 11.592 18.979 0 2.685-0.496 5.254-1.401 7.62l0.049-0.146zM302.507 96c-81.532 0-147.627 66.095-147.627 147.627s66.095 147.627 147.627 147.627c81.532 0 147.627-66.095 147.627-147.627v0c-0.481-81.338-66.289-147.146-147.581-147.626h-0.046zM571.733 902.827c-0.215 0-0.47 0.001-0.725 0.001-185.199 0-339.398-132.728-372.662-308.25l-0.373-2.364c-0.264-1.26-0.416-2.707-0.416-4.19 0-10.421 7.471-19.096 17.35-20.962l0.133-0.021c1.034-0.174 2.226-0.274 3.44-0.274 10.453 0 19.184 7.37 21.281 17.198l0.025 0.143c30.026 158.16 167.17 276.136 331.869 276.136 186.392 0 337.493-151.101 337.493-337.493 0-155.412-105.045-286.288-248.007-325.502l-2.368-0.554c-9.325-2.594-16.055-11.011-16.055-20.999 0-1.938 0.253-3.818 0.729-5.607l-0.034 0.152c2.517-9.128 10.72-15.73 20.474-15.787h5.553c165.543 43.525 285.658 191.849 285.658 368.227 0 209.957-170.203 380.16-380.16 380.16-1.127 0-2.252-0.005-3.377-0.015l0.172 0.001zM692.48 388.693c11.782 0 21.333 9.551 21.333 21.333 0 6.955-3.329 13.133-8.48 17.028l-0.054 0.039-112.213 85.333v197.547c0 11.782-9.551 21.333-21.333 21.333v0c-11.782 0-21.333-9.551-21.333-21.333v0-209.067c-0.003-0.128-0.004-0.278-0.004-0.429 0-6.828 3.341-12.876 8.478-16.597l0.060-0.041 120.747-90.88c3.563-2.564 7.986-4.145 12.771-4.266l0.029-0.001z" />
<glyph unicode="&#xe912;" glyph-name="legend-collapse" d="M68.267-35.413l322.987 322.987v-210.347c0-15.552 12.608-28.16 28.16-28.16s28.16 12.608 28.16 28.16v0 278.187c-0.096 3.86-0.871 7.513-2.208 10.88l0.075-0.213c-2.97 6.845-8.412 12.149-15.173 14.867l-0.187 0.066c-2.906 1.355-6.309 2.146-9.896 2.146-0.271 0-0.541-0.005-0.81-0.013l0.039 0.001h-278.187c-1.039 0.136-2.24 0.213-3.46 0.213-15.552 0-28.16-12.608-28.16-28.16s12.608-28.16 28.16-28.16c1.219 0 2.421 0.078 3.6 0.228l-0.14-0.015h210.347l-322.987-322.987c-4.121-4.866-6.627-11.214-6.627-18.147 0-15.552 12.608-28.16 28.16-28.16 6.933 0 13.281 2.506 18.188 6.661l-0.041-0.034zM578.987 529.92c2.655-6.914 8.019-12.278 14.758-14.874l0.175-0.059c3.108-1.585 6.773-2.528 10.656-2.56h278.198c15.552 0 28.16 12.608 28.16 28.16s-12.608 28.16-28.16 28.16v0h-210.347l322.987 322.987c5.157 5.041 8.355 12.067 8.355 19.84s-3.198 14.799-8.35 19.835l-0.005 0.005c-4.989 5.267-12.032 8.544-19.84 8.544s-14.851-3.277-19.828-8.532l-322.999-322.999v210.347c0 15.552-12.608 28.16-28.16 28.16s-28.16-12.608-28.16-28.16v0-278.187c0.264-3.91 1.18-7.539 2.641-10.875l-0.081 0.208z" />
<glyph unicode="&#xe913;" glyph-name="legend-expand" d="M399.36 375.040l-322.987-322.987v210.347c0 15.552-12.608 28.16-28.16 28.16s-28.16-12.608-28.16-28.16v0-278.187c0.032-3.893 0.975-7.559 2.624-10.805l-0.064 0.138c2.655-6.914 8.019-12.278 14.758-14.874l0.175-0.059c2.906-1.355 6.309-2.146 9.896-2.146 0.271 0 0.541 0.005 0.81 0.013l-0.039-0.001h278.187c1.039-0.136 2.24-0.213 3.46-0.213 15.552 0 28.16 12.608 28.16 28.16s-12.608 28.16-28.16 28.16c-1.219 0-2.421-0.078-3.6-0.228l0.14 0.015h-210.347l322.987 322.987c4.121 4.866 6.627 11.214 6.627 18.147 0 15.552-12.608 28.16-28.16 28.16-6.933 0-13.281-2.506-18.188-6.661l0.041 0.034zM1001.387 922.453c-2.655 6.914-8.019 12.278-14.758 14.874l-0.175 0.059c-2.906 1.355-6.309 2.146-9.896 2.146-0.271 0-0.541-0.005-0.81-0.013l0.039 0.001h-278.187c-1.039 0.136-2.24 0.213-3.46 0.213-15.552 0-28.16-12.608-28.16-28.16s12.608-28.16 28.16-28.16c1.219 0 2.421 0.078 3.6 0.228l-0.14-0.015h210.347l-322.987-322.987c-4.845-5.111-7.824-12.032-7.824-19.649 0-15.388 12.159-27.937 27.394-28.562l0.057-0.002c7.857 0.091 14.938 3.338 20.050 8.53l322.991 322.991v-210.347c0-15.552 12.608-28.16 28.16-28.16s28.16 12.608 28.16 28.16v0 278.187c-0.264 3.91-1.18 7.539-2.641 10.875l0.081-0.208z" />
<glyph unicode="&#xe914;" glyph-name="maps" d="M950.613 769.28l-248.32 99.413h-3.413c-7.342 2.196-16.56 4.276-25.965 5.795l-1.342 0.179c-12.57-0.172-24.575-2.345-35.79-6.214l0.804 0.241-261.547-106.667c-4.357-1.081-9.36-1.701-14.507-1.701s-10.149 0.62-14.936 1.789l0.43-0.089-242.347 97.28c-7.473 3.835-16.305 6.083-25.662 6.083-22.951 0-42.744-13.524-51.844-33.038l-0.147-0.352c-0.087-0.959-0.137-2.074-0.137-3.2s0.050-2.241 0.147-3.343l-0.010 0.143c-2.952-5.132-4.693-11.285-4.693-17.844 0-0.027 0-0.054 0-0.080v0.004-597.333c-0.013-0.567-0.020-1.234-0.020-1.904 0-36.995 22.001-68.85 53.633-83.197l0.573-0.233 251.733-100.267c9.359-2.862 20.169-4.704 31.344-5.113l0.229-0.007c11.231 0.767 21.694 2.895 31.602 6.231l-0.882-0.258 261.547 106.667c4.357 1.081 9.36 1.701 14.507 1.701s10.149-0.62 14.936-1.789l-0.43 0.089 242.347-98.56c6.799-3.337 14.798-5.289 23.253-5.289s16.454 1.952 23.571 5.429l-0.318-0.14c13.801 6.103 24.684 16.71 30.987 29.922l0.159 0.371c0.889 1.956 1.626 4.242 2.1 6.623l0.034 0.204c2.95 4.869 4.696 10.753 4.696 17.045 0 0.158-0.001 0.315-0.003 0.472v-0.024 597.333c-0.302 37.521-23.189 69.622-55.721 83.402l-0.599 0.225zM93.44 176.64c-12.078 6.466-20.215 18.893-20.479 33.244l-0.001 0.036v592.213c0.849 1.822 1.718 4.085 2.447 6.41l0.113 0.417c0.828 0.601 1.865 0.961 2.987 0.961s2.158-0.36 3.002-0.972l-0.015 0.010 246.187-98.56h2.133v-628.053zM384 84.053v625.92h8.107l253.013 102.827v-625.92c-5.12-0.853-261.12-102.827-261.12-102.827zM951.467 93.867c-0.849-1.822-1.718-4.085-2.447-6.41l-0.113-0.417c-0.828-0.601-1.865-0.961-2.987-0.961s-2.158 0.36-3.002 0.972l0.015-0.010-244.053 98.987v625.92l232.107-92.587c12.078-6.466 20.215-18.893 20.479-33.244l0.001-0.036z" />
<glyph unicode="&#xe915;" glyph-name="maximize" d="M974.933 474.88h-436.053v436.053c0 14.845-12.035 26.88-26.88 26.88s-26.88-12.035-26.88-26.88v0-436.053h-436.053c-14.845 0-26.88-12.035-26.88-26.88s12.035-26.88 26.88-26.88h436.053v-436.053c0-14.845 12.035-26.88 26.88-26.88s26.88 12.035 26.88 26.88v0 436.053h436.053c14.845 0 26.88 12.035 26.88 26.88s-12.035 26.88-26.88 26.88v0z" />
<glyph unicode="&#xe916;" glyph-name="minimize" d="M974.933 421.12h-925.867c-14.845 0-26.88 12.035-26.88 26.88s12.035 26.88 26.88 26.88h925.867c14.845 0 26.88-12.035 26.88-26.88s-12.035-26.88-26.88-26.88v0z" />
<glyph unicode="&#xe917;" glyph-name="not-calculated" d="M190.293 367.36l291.84-68.267h5.547c0.346-0.018 0.752-0.028 1.159-0.028 13.432 0 24.32 10.888 24.32 24.32 0 11.88-8.519 21.771-19.781 23.897l-0.151 0.024-291.84 68.267c-1.98 0.686-3.684 1.703-5.134 2.999l0.014-0.013c-1.4 1.46-2.334 3.377-2.557 5.506l-0.003 0.041-42.667 249.6c-1.949 11.646-11.953 20.411-24.004 20.411-1.469 0-2.907-0.13-4.303-0.38l0.147 0.022c-11.647-1.727-20.483-11.656-20.483-23.649 0-1.596 0.156-3.155 0.455-4.663l-0.025 0.152 42.667-250.027c2.262-11.982 7.699-22.432 15.398-30.761l-0.038 0.041c7.654-8.442 17.688-14.597 29.041-17.41l0.399-0.084zM971.52 402.347c-8.75 13.84-19.863 25.361-32.885 34.303l-0.395 0.257c-12.185 8.249-26.486 14.467-41.867 17.776l-0.799 0.144-188.16 35.84-155.307 341.333c-3.5 7.413-8.568 13.574-14.809 18.257l-0.125 0.090c-6.231 4.642-13.73 7.948-21.881 9.343l-0.306 0.043-78.933 11.52h-9.387c-13.188-1.046-24.75-7.254-32.801-16.578l-0.052-0.062c-7.241-8.551-11.644-19.707-11.644-31.891 0-2.598 0.2-5.15 0.586-7.64l-0.035 0.277 35.413-157.44c3.587-9.527 12.625-16.181 23.217-16.181 13.667 0 24.747 11.079 24.747 24.747 0 1.041-0.064 2.067-0.189 3.075l0.012-0.121-35.413 151.040 76.8-11.093 160.427-351.147c3.508-7.117 9.973-12.321 17.747-14.048l0.173-0.032 199.253-37.547c9.689-1.746 18.305-5.329 25.842-10.393l-0.242 0.153c7.817-5.425 14.348-12.092 19.459-19.784l0.168-0.269c6.396-10.215 10.438-22.494 11.086-35.665l0.007-0.175c0.091-1.371 0.143-2.972 0.143-4.585 0-11.684-2.731-22.731-7.589-32.536l0.192 0.428c-3.687-7.598-8.404-14.087-14.066-19.613l-0.014-0.014c-8.529-9.036-19.33-15.838-31.492-19.496l-0.508-0.131c-5.554-1.891-11.969-3.118-18.628-3.408l-0.146-0.005c-13.026-0.221-23.501-10.832-23.501-23.89 0-0.451 0.013-0.9 0.037-1.345l-0.003 0.062c0.473-13.059 11.174-23.467 24.305-23.467 0.005 0 0.011 0 0.016 0h-0.001c11.196 0.226 21.878 2.082 31.929 5.339l-0.782-0.219c20.847 6.334 38.662 17.394 52.882 31.974l0.025 0.026c9.408 9.441 17.265 20.434 23.152 32.562l0.315 0.718c7.66 15.569 12.141 33.89 12.141 53.257 0 2.428-0.070 4.84-0.209 7.234l0.015-0.331c-1.112 22.034-7.629 42.333-18.241 59.879l0.321-0.572zM756.907 75.52h-714.24c-13.482-0.24-24.32-11.226-24.32-24.743 0-0.001 0-0.003 0-0.004v0c0-13.432 10.888-24.32 24.32-24.32v0h714.24c0.127-0.002 0.277-0.004 0.427-0.004 13.432 0 24.32 10.888 24.32 24.32 0 0.001 0 0.003 0 0.004v0c0 13.667-11.079 24.747-24.747 24.747v0zM101.12 893.867c-4.455 4.349-10.554 7.032-17.28 7.032s-12.825-2.683-17.285-7.037l0.005 0.005c-4.581-4.429-7.425-10.629-7.425-17.493s2.844-13.065 7.418-17.487l856.327-856.754c4.37-4.228 10.332-6.834 16.903-6.834 0.208 0 0.415 0.003 0.621 0.008l-0.031-0.001c0.153-0.004 0.333-0.006 0.514-0.006 6.46 0 12.31 2.61 16.553 6.833l-0.001-0.001c4.581 4.429 7.425 10.629 7.425 17.493s-2.844 13.065-7.418 17.487l-0.007 0.007z" />
<glyph unicode="&#xe918;" glyph-name="panel-expand" d="M1001.813 467.2l-148.48 149.333c-4.813 4.957-11.541 8.034-18.987 8.034s-14.173-3.076-18.98-8.027l-0.006-0.006c-4.852-4.862-7.853-11.574-7.853-18.987s3-14.124 7.853-18.987v0l102.4-102.4h-810.667l102.4 102.4c4.787 4.892 7.741 11.594 7.741 18.987 0 14.997-12.158 27.155-27.155 27.155-7.605 0-14.479-3.126-19.409-8.163l-0.005-0.005-148.48-149.333c-4.981-4.883-8.068-11.681-8.068-19.2s3.087-14.317 8.064-19.196l0.004-0.004 148.48-151.467c4.614-4.993 11.196-8.108 18.506-8.108 0.094 0 0.188 0.001 0.282 0.002h-0.014c0.467-0.030 1.012-0.047 1.561-0.047 7.447 0 14.164 3.128 18.908 8.141l0.011 0.012c4.957 4.813 8.034 11.541 8.034 18.987s-3.076 14.173-8.027 18.98l-102.406 102.406h810.667l-102.4-102.4c-4.957-4.813-8.034-11.541-8.034-18.987s3.076-14.173 8.027-18.98l0.006-0.006c4.752-4.999 11.451-8.109 18.877-8.109 0.114 0 0.227 0.001 0.34 0.002h-0.017c7.251 0.047 13.768 3.153 18.331 8.090l0.015 0.017 149.76 149.333c5.298 4.924 8.603 11.931 8.603 19.71 0 8.376-3.831 15.856-9.836 20.786l-0.047 0.037z" />
<glyph unicode="&#xe919;" glyph-name="passengers" d="M910.080 569.6v0c-68.752 16.676-127.922 50.908-174.493 97.693l-0.013 0.014c-4.267 4.693-14.933 17.493-23.040 27.733-12.4 12.25-29.451 19.817-48.269 19.817-13.765 0-26.584-4.049-37.332-11.020l0.267 0.163c-23.999-13.775-44.72-29.469-63.223-47.434l0.076 0.074c-53.39-58.084-99.22-124.361-135.153-196.437l-2.234-4.95c-4.945-9.578-7.844-20.905-7.844-32.91 0-8.538 1.466-16.733 4.161-24.347l-0.157 0.51c3.826-11.521 9.971-21.381 17.928-29.448l-0.008 0.008-59.733-104.107-125.013 72.533c-7.843 4.56-17.26 7.251-27.306 7.251-20.351 0-38.122-11.045-47.646-27.467l-0.141-0.264-119.040-206.080c-4.723-7.914-7.515-17.454-7.515-27.647 0-20.214 10.982-37.863 27.305-47.306l0.263-0.14 119.893-69.547c8.013-4.441 17.546-7.112 27.691-7.253h0.043c20.211 0.069 37.829 11.106 47.219 27.467l0.141 0.266 103.253 178.773v2.56l42.667 72.107 61.013 105.387c3.733-0.636 8.032-0.999 12.417-0.999 26.16 0 49.298 12.935 63.368 32.759l0.162 0.24v-49.92l-112.213-256c-3.745-8.894-5.922-19.233-5.922-30.080s2.176-21.186 6.116-30.604l-0.194 0.524c7.975-19.509 23.158-34.691 42.155-42.481l0.512-0.186c9.152-4.195 19.841-6.695 31.1-6.826h0.047c10.328 0.215 20.122 2.231 29.169 5.746l-0.582-0.199c19.375 8.182 34.485 23.291 42.472 42.149l0.195 0.518 90.027 204.8 63.573-70.827v-104.96c0-43.358 35.149-78.507 78.507-78.507s78.507 35.149 78.507 78.507v0 134.827c-0.007 17.712-6.287 33.956-16.74 46.632l0.1-0.125-5.12 8.107-93.867 104.107v115.2c25.155-11.765 54.638-21.89 85.318-28.866l3.002-0.574c5.056-1.193 10.861-1.877 16.826-1.877 36.189 0 66.5 25.171 74.379 58.961l0.101 0.516c1.288 5.31 2.027 11.407 2.027 17.677 0 36.418-24.933 67.013-58.66 75.646l-0.541 0.117zM234.667 11.093c-0.925-1.851-2.805-3.1-4.978-3.1-1.169 0-2.253 0.362-3.147 0.979l0.019-0.012-120.32 69.547c-1.738 0.959-2.896 2.781-2.896 4.872 0 1.035 0.283 2.004 0.777 2.833l-0.014-0.025 119.040 206.507c1.169 1.694 3.098 2.789 5.284 2.789 1.028 0 1.999-0.242 2.859-0.673l-0.037 0.017 125.44-72.533-12.8-21.76zM919.893 487.253c-2.939-12.654-14.117-21.94-27.465-21.94-2.060 0-4.067 0.221-6.001 0.641l0.186-0.034c-42.083 9.504-79.265 24.208-113.345 43.714l1.985-1.047c-3.524 1.899-7.711 3.015-12.16 3.015s-8.636-1.116-12.299-3.084l0.139 0.068c-7.422-4.342-12.336-12.26-12.373-21.328v-163.845c0.192-6.383 2.58-12.174 6.431-16.677l-0.031 0.037 98.56-109.227 2.987-5.12c4.491-4.731 7.254-11.142 7.254-18.198 0-0.052 0-0.105 0-0.157v0.008-134.827c0.002-0.127 0.003-0.277 0.003-0.427 0-16.024-12.99-29.013-29.013-29.013-0.001 0-0.002 0-0.003 0v0c-16.259 0-29.44 13.181-29.44 29.44v114.347c-0.192 6.383-2.58 12.174-6.431 16.677l0.031-0.037-95.147 107.093c-4.572 5.758-11.572 9.417-19.427 9.417-10.615 0-19.67-6.684-23.184-16.073l-0.056-0.171-105.387-241.92c-3.145-7.224-8.886-12.826-16.016-15.716l-0.197-0.071c-3.208-1.329-6.934-2.101-10.839-2.101-12.332 0-22.867 7.694-27.066 18.543l-0.067 0.198c-1.406 3.343-2.223 7.23-2.223 11.307s0.817 7.963 2.296 11.504l-0.073-0.197 114.347 262.4c0.307 1.475 0.483 3.17 0.483 4.907s-0.176 3.431-0.511 5.069l0.028-0.162v138.667c0.002 0.116 0.003 0.253 0.003 0.39 0 10.685-6.891 19.761-16.472 23.026l-0.171 0.051c-1.154 0.201-2.484 0.316-3.84 0.316s-2.686-0.115-3.979-0.336l0.139 0.020c-0.066 0.001-0.145 0.001-0.223 0.001-7.841 0-14.831-3.647-19.365-9.338l-0.039-0.050c-15.056-19.585-29.214-41.651-41.453-64.885l-1.214-2.528c-4.659-9.839-14.507-16.523-25.917-16.523-4.542 0-8.837 1.059-12.651 2.944l0.167-0.075c-7.025 3.505-12.355 9.529-14.872 16.86l-0.062 0.207c-1.272 2.826-2.013 6.127-2.013 9.6s0.741 6.774 2.074 9.751l-0.061-0.151c35.824 72.056 78.503 134.092 128.606 189.264l-0.606-0.677c15.947 15.279 33.865 28.712 53.279 39.829l1.335 0.704c5.312 3.165 11.714 5.036 18.553 5.036 2.646 0 5.227-0.28 7.715-0.812l-0.241 0.043 24.32-29.44c53.131-53.792 120.68-93.227 196.377-112.035l2.876-0.605c13.192-2.712 22.972-14.229 22.972-28.030 0-2.938-0.443-5.772-1.266-8.439l0.054 0.202zM782.080 699.733c65.508 0 118.613 53.105 118.613 118.613s-53.105 118.613-118.613 118.613c-65.508 0-118.613-53.105-118.613-118.613v0c0.242-65.411 53.202-118.372 118.59-118.613h0.023zM782.080 887.893c38.41 0 69.547-31.137 69.547-69.547s-31.137-69.547-69.547-69.547c-38.41 0-69.547 31.137-69.547 69.547v0c0 38.41 31.137 69.547 69.547 69.547v0z" />
<glyph unicode="&#xe91a;" glyph-name="pathogen" d="M605.867 596.053c0-31.576-25.597-57.173-57.173-57.173s-57.173 25.597-57.173 57.173c0 31.576 25.597 57.173 57.173 57.173s57.173-25.597 57.173-57.173zM425.813 410.453c0-31.576-25.597-57.173-57.173-57.173s-57.173 25.597-57.173 57.173c0 31.576 25.597 57.173 57.173 57.173s57.173-25.597 57.173-57.173zM582.827 382.293c-10.283-10.336-16.64-24.586-16.64-40.322 0-31.576 25.597-57.173 57.173-57.173s57.173 25.597 57.173 57.173c0 15.735-6.357 29.986-16.642 40.324l0.002-0.002c-10.357 10.41-24.693 16.852-40.533 16.852s-30.177-6.442-40.531-16.849l-0.002-0.002zM942.507 260.693l-94.72 40.107c19.544 43.322 30.995 93.905 31.147 147.145v0.055c-0.097 57.965-13.794 112.709-38.069 161.241l0.949-2.094 104.107 42.667c8.905 3.878 15.019 12.602 15.019 22.754 0 3.332-0.658 6.509-1.852 9.41l0.060-0.165c-3.628 9.156-12.406 15.514-22.67 15.514-3.367 0-6.574-0.684-9.49-1.921l0.159 0.060-103.68-42.667c-2.461-1.132-4.573-2.562-6.414-4.28l0.014 0.013c-62.685 94.108-165.553 157.182-283.522 164.639l-1.064 0.054v98.987c0 0.001 0 0.002 0 0.004 0 13.432-10.888 24.32-24.32 24.32-0.15 0-0.3-0.001-0.449-0.004h0.022c-0.128 0.002-0.279 0.004-0.431 0.004-13.196 0-23.893-10.697-23.893-23.893 0-0.151 0.001-0.302 0.004-0.453v0.023-98.987c-115.984-9.346-215.788-71.28-276.499-161.668l-0.834-1.319h-2.56l-102.827 42.667c-2.836 1.228-6.139 1.942-9.609 1.942-10.209 0-18.974-6.182-22.756-15.007l-0.061-0.161c-1.134-2.736-1.792-5.914-1.792-9.246 0-10.152 6.113-18.876 14.859-22.692l0.16-0.062 100.693-42.667c-23.422-46.713-37.134-101.785-37.134-160.059 0-52.935 11.314-103.227 31.656-148.59l-0.923 2.302-99.413-40.107c-8.905-3.878-15.019-12.602-15.019-22.754 0-3.332 0.658-6.509 1.852-9.41l-0.060 0.165c3.533-9.060 12.19-15.362 22.318-15.362 0.104 0 0.207 0.001 0.311 0.002h-0.016c1.411-0.291 3.033-0.457 4.693-0.457s3.282 0.166 4.849 0.484l-0.156-0.026 103.68 42.667c61.341-99.805 166.852-167.32 288.614-175.303l1.093-0.057-9.387-96c-0.094-0.804-0.148-1.736-0.148-2.68 0-12.582 9.555-22.933 21.804-24.191l0.104-0.009h2.56c12.642 0.155 22.991 9.765 24.311 22.078l0.009 0.109 10.24 101.12c121.555 9.157 225.697 76.201 285.813 173.359l0.907 1.575 98.56-42.667c2.89-1.252 6.247-2.026 9.773-2.132l0.041-0.001c10.098 0.348 18.679 6.493 22.549 15.197l0.065 0.163c2.251 3.656 3.584 8.086 3.584 12.827 0 10.827-6.953 20.030-16.637 23.387l-0.174 0.052zM512 130.133c-171.068 5.716-307.574 145.767-307.574 317.7 0 171.033 135.079 310.516 304.374 317.585l0.64 0.021h2.56c175.553 0 317.867-142.314 317.867-317.867s-142.314-317.867-317.867-317.867v0z" />
<glyph unicode="&#xe91b;" glyph-name="pin" d="M550.4 615.253c-9.487 6.218-21.11 9.918-33.597 9.918-16.607 0-31.685-6.543-42.798-17.192l0.022 0.021c-10.808-10.745-17.496-25.622-17.496-42.062 0-0.213 0.001-0.425 0.003-0.637v0.032c0-0.011 0-0.023 0-0.036 0-24.989 15.128-46.444 36.726-55.707l0.394-0.15c6.668-2.701 14.402-4.269 22.502-4.269 0.189 0 0.378 0.001 0.567 0.003h11.918c23.998 5.296 42.491 24.075 47.293 47.819l0.067 0.394c0.646 3.437 1.015 7.391 1.015 11.432 0 8.476-1.626 16.571-4.583 23.993l0.154-0.438c-4.718 11.159-12.359 20.309-21.97 26.744l-0.216 0.136zM768 824.747c-65.444 65.674-155.976 106.31-256 106.31s-190.556-40.636-255.989-106.299l-0.011-0.011c-65.115-65.093-105.39-155.031-105.39-254.375 0-0.571 0.001-1.143 0.004-1.713v0.088c3.301-50.194 16.014-96.678 36.386-138.762l-0.973 2.229c27.909-64.288 56.441-118.223 88.503-169.732l-3.17 5.465c68.386-109.26 134.32-202.083 205.001-290.962l-4.895 6.375c4.286-5.849 9.885-10.491 16.379-13.543l0.261-0.11c6.207-3.215 13.548-5.106 21.329-5.12h0.005c15.342 0.395 28.927 7.593 37.899 18.679l0.074 0.095c65.746 82.482 131.679 175.305 192.501 271.678l7.606 12.909c29.054 46.254 57.595 100.339 82.164 156.556l3.169 8.137c19.492 39.848 32.215 86.347 35.358 135.452l0.055 1.081c0.049 2.196 0.076 4.785 0.076 7.379 0 96.482-38.261 184.028-100.437 248.292l0.094-0.098zM793.173 452.267c-27.779-61.5-56.262-113.289-88.218-162.619l2.885 4.753c-67.165-107.473-131.698-198.625-200.814-285.984l4.974 6.517c-64.077 80.765-128.739 171.909-188.557 266.424l-7.71 13.043c-29.071 44.577-57.555 96.366-82.218 150.268l-3.115 7.598c-16.176 34.303-26.874 74.222-29.808 116.281l-0.059 1.052c0.033 43.079 8.653 84.136 24.241 121.564l-0.774-2.097c32.849 76.848 93.303 136.609 168.594 167.773l2.072 0.76c34.707 14.515 75.036 22.946 117.335 22.946 171.685 0 310.926-138.909 311.465-310.468v-0.052c-3.284-43.395-14.583-83.433-32.424-119.671l0.85 1.911z" />
<glyph unicode="&#xe91c;" glyph-name="plane-export" d="M313.173 255.573v0c-12.369 0.397-23.707 4.495-33.030 11.214l0.177-0.121-209.493 145.92c-9.399 7.392-15.839 18.179-17.468 30.483l-0.026 0.237c-0.081 1.021-0.127 2.211-0.127 3.412 0 10.843 3.745 20.811 10.012 28.681l-0.072-0.094c2.185 3.082 4.882 5.643 7.991 7.612l0.115 0.068 85.333 75.52c5.705 4.954 12.814 8.435 20.654 9.778l0.253 0.036c3.268 0.82 7.019 1.291 10.88 1.291s7.612-0.471 11.2-1.357l-0.32 0.067h4.693l94.72-61.013 96.427 66.56-231.68 143.36c-10.987 8.3-18.358 20.887-19.613 35.227l-0.013 0.187c-0.184 1.573-0.288 3.396-0.288 5.243 0 12.069 4.474 23.094 11.855 31.505l-0.047-0.054c2.147 2.842 4.687 5.247 7.568 7.183l0.112 0.071 64.427 46.507c6.27 4.449 13.767 7.607 21.883 8.919l0.304 0.041c1.757 0.197 3.793 0.31 5.856 0.31 6.301 0 12.356-1.051 18.001-2.986l-0.39 0.116 351.147-130.987 157.44 107.52c12.107 8.625 26.44 15.015 41.938 18.221l0.729 0.126c7.246 1.628 15.567 2.56 24.107 2.56s16.861-0.933 24.869-2.701l-0.762 0.141c21.158-5.427 39.516-15.341 54.763-28.716l-0.15 0.129c25.862-22.373 42.248-55.098 42.666-91.661l0.001-0.073c0.098-1.81 0.153-3.928 0.153-6.060 0-20.749-5.271-40.267-14.547-57.288l0.314 0.628c-10.638-17.65-25.017-32.028-42.116-42.358l-0.551-0.309-568.32-354.133c-8.861-5.623-19.653-8.961-31.224-8.961-0.123 0-0.245 0-0.368 0.001h0.019zM105.813 448l201.387-141.227c0.898-0.198 1.929-0.311 2.987-0.311s2.089 0.113 3.082 0.328l-0.096-0.017c0.827-0.294 1.78-0.463 2.773-0.463s1.947 0.17 2.833 0.482l-0.060-0.018 568.32 352.427c20.903 13.273 34.575 36.3 34.575 62.52 0 0.52-0.005 1.040-0.016 1.557l0.001-0.077c0.003 0.214 0.004 0.466 0.004 0.718 0 8.185-1.568 16.004-4.419 23.172l0.149-0.424c-4.469 12.729-11.802 23.497-21.259 31.934l-0.075 0.066c-9.020 8.163-20.081 14.241-32.321 17.378l-0.532 0.116c-4.233 0.916-9.095 1.44-14.080 1.44s-9.847-0.524-14.535-1.521l0.455 0.081c-9.886-2.065-18.621-5.922-26.258-11.246l0.231 0.152-168.96-114.347c-3.896-2.595-8.684-4.141-13.833-4.141-3.154 0-6.172 0.58-8.954 1.639l0.173-0.058-361.387 135.253-62.72-46.933 259.413-160.427c6.903-4.136 11.466-11.556 11.52-20.046v-0.008c0.030-0.446 0.047-0.966 0.047-1.49 0-8.040-4.043-15.136-10.208-19.364l-0.080-0.052-139.093-96.853c-3.747-2.403-8.32-3.831-13.227-3.831s-9.479 1.428-13.326 3.891l0.099-0.059-103.253 60.16zM981.333 43.52h-938.667c-0.974-0.136-2.099-0.213-3.242-0.213-13.667 0-24.747 11.079-24.747 24.747s11.079 24.747 24.747 24.747c1.143 0 2.268-0.078 3.371-0.228l-0.128 0.014h938.667c0.974 0.136 2.099 0.213 3.242 0.213 13.667 0 24.747-11.079 24.747-24.747s-11.079-24.747-24.747-24.747c-1.143 0-2.268 0.078-3.371 0.228l0.128-0.014z" />
<glyph unicode="&#xe91d;" glyph-name="plane-import" d="M867.84 211.627c-0.237-0.002-0.517-0.003-0.797-0.003-9.399 0-18.545 1.089-27.316 3.149l0.806-0.16-651.52 152.32c-11.688 2.852-21.701 8.848-29.412 17.037l-0.028 0.030c-7.892 8.152-13.385 18.67-15.315 30.388l-0.045 0.332-42.667 250.453c-0.412 2.227-0.648 4.79-0.648 7.407 0 22.29 17.093 40.588 38.886 42.501l0.161 0.011c1.732 0.3 3.726 0.472 5.76 0.472s4.028-0.172 5.969-0.501l-0.209 0.029 113.92-6.827c8.186-0.785 15.599-3.543 21.931-7.788l-0.171 0.108c4.789-4.764 8.676-10.429 11.387-16.72l0.133-0.346v-5.12l27.307-107.947 114.773-20.48-59.733 264.96c-0.307 2.098-0.482 4.519-0.482 6.982 0 12.296 4.371 23.571 11.644 32.357l-0.068-0.085c8.422 9.851 20.708 16.186 34.484 16.638l0.076 0.002c1.604 0.31 3.448 0.487 5.333 0.487s3.73-0.177 5.517-0.516l-0.183 0.029 79.36-11.52c8.487-1.232 16.026-4.57 22.29-9.465l-0.104 0.078c6.366-4.772 11.434-10.934 14.809-18.054l0.125-0.293 155.733-341.333 187.307-35.413c16.235-3.25 30.581-9.651 42.995-18.571l-0.328 0.224c13.644-9.096 24.914-20.638 33.432-34.095l0.275-0.465c10.514-16.797 17.307-36.912 18.752-58.491l0.021-0.389c0.207-2.729 0.325-5.91 0.325-9.118 0-18.787-4.047-36.629-11.318-52.701l0.326 0.806c-6.034-12.757-13.911-23.636-23.433-32.822l-0.033-0.032c-14.116-14.911-31.969-26.144-52.064-32.208l-0.843-0.219c-10.595-3.257-22.773-5.132-35.39-5.132-0.608 0-1.216 0.004-1.822 0.013l0.092-0.001zM149.76 666.027l42.667-243.2c0.437-1.983 1.333-3.712 2.572-5.134l-0.012 0.014c1.342-1.44 3.084-2.49 5.050-2.972l0.070-0.015 653.227-152.32c5.628-1.618 12.092-2.549 18.773-2.549s13.146 0.931 19.27 2.67l-0.496-0.12c12.618 3.944 23.386 10.717 31.98 19.606l0.020 0.021c5.816 5.587 10.557 12.24 13.918 19.654l0.162 0.4c4.874 9.96 7.724 21.675 7.724 34.055 0 0.928-0.016 1.852-0.048 2.772l0.004-0.134c-0.88 13.336-4.89 25.572-11.295 36.201l0.202-0.361c-5.168 8.047-11.721 14.735-19.385 19.9l-0.242 0.153c-7.387 5.149-16.153 8.886-25.623 10.606l-0.404 0.061-199.68 37.547c-8.003 1.631-14.517 6.88-17.855 13.927l-0.065 0.153-162.987 353.707-77.227 11.093 69.973-298.667c0.378-1.591 0.594-3.418 0.594-5.296 0-6.596-2.673-12.568-6.994-16.891v0c-4.466-4.905-10.877-7.972-18.005-7.972-1.325 0-2.626 0.106-3.894 0.31l0.139-0.018-166.827 29.867c-9.528 1.711-17.071 8.683-19.585 17.746l-0.041 0.174-29.44 118.187zM981.333 24.747h-938.667c-13.667 0-24.747 11.079-24.747 24.747v0c0 0.001 0 0.002 0 0.004 0 13.432 10.888 24.32 24.32 24.32 0.15 0 0.3-0.001 0.449-0.004h938.645c0.127 0.002 0.277 0.004 0.427 0.004 13.432 0 24.32-10.888 24.32-24.32 0-0.001 0-0.003 0-0.004v0c0-13.667-11.079-24.747-24.747-24.747v0z" />
<glyph unicode="&#xe91e;" glyph-name="profile" d="M512 479.147c-112.401 0-203.52 91.119-203.52 203.52s91.119 203.52 203.52 203.52c112.401 0 203.52-91.119 203.52-203.52 0-0.15 0-0.3 0-0.45v0.023c-0.243-112.217-91.269-203.093-203.52-203.093 0 0 0 0 0 0v0zM512 836.693c-85.302 0-154.453-69.151-154.453-154.453s69.151-154.453 154.453-154.453c85.302 0 154.453 69.151 154.453 154.453v0c-0.242 85.205-69.249 154.211-154.43 154.453h-0.023zM853.333 10.24h-682.667c-13.432 0-24.32 10.888-24.32 24.32v0c0 217.6 162.987 394.667 363.947 394.667s363.947-177.067 363.947-394.667c0.001-0.072 0.001-0.156 0.001-0.241 0-12.228-9.024-22.348-20.776-24.064l-0.132-0.016zM197.547 59.307h628.907c-11.52 178.773-148.053 320.853-314.453 320.853s-302.933-142.080-314.453-320.853z" />
<glyph unicode="&#xe91f;" glyph-name="search" d="M986.88 11.52l-266.667 265.813c59.862 68.706 96.358 159.135 96.358 258.088 0 217.497-176.316 393.813-393.813 393.813-163.952 0-304.503-100.188-363.771-242.681l-0.961-2.607c-17.8-43.331-28.134-93.629-28.134-146.339 0-164.436 100.564-305.385 243.545-364.699l2.616-0.961c43.671-18.085 94.385-28.587 147.552-28.587 0.026 0 0.053 0 0.079 0h-0.005c0.17 0 0.371 0 0.573 0 55.464 0 108.215 11.617 155.951 32.55l-2.498-0.976c40.285 16.892 74.965 38.706 105.42 65.246l-0.46-0.392 266.667-266.667c4.78-4.747 11.366-7.68 18.637-7.68 0.048 0 0.096 0 0.143 0h-0.007c7.444 0.035 14.199 2.952 19.213 7.692l-0.013-0.012c4.652 4.948 7.51 11.629 7.51 18.978 0 7.565-3.029 14.423-7.941 19.427l0.004-0.004zM554.667 223.573c-38.665-16.7-83.684-26.413-130.971-26.413-186.628 0-337.92 151.292-337.92 337.92s151.292 337.92 337.92 337.92c186.628 0 337.92-151.292 337.92-337.92 0-93.328-37.834-177.82-99.002-238.973v0c-30.199-30.078-66.015-54.543-105.732-71.683l-2.215-0.851z" />
<glyph unicode="&#xe920;" glyph-name="sick-person" d="M374.613 673.707c-3.712 57.775-51.481 103.23-109.867 103.23s-106.155-45.455-109.85-102.907l-0.017-0.323v-301.653c-30.78-29.355-49.919-70.682-49.919-116.479 0-88.837 72.016-160.853 160.853-160.853 88.687 0 160.61 71.773 160.853 160.403v0.023c-0.128 46.231-19.949 87.807-51.512 116.802l-0.115 0.104zM377.173 255.147c0-61.974-50.24-112.213-112.213-112.213s-112.213 50.24-112.213 112.213v0c0.552 34.653 17.032 65.346 42.422 85.149l0.245 0.184 8.96 7.68v325.547c2.714 31.431 28.898 55.916 60.8 55.916s58.086-24.485 60.784-55.687l0.016-0.228v-324.267l9.387-7.68c25.568-20.34 41.814-51.451 41.814-86.356 0-0.091 0-0.181 0-0.272v0.014zM289.28 324.693v240.64c0 13.432-10.888 24.32-24.32 24.32v0c-0.001 0-0.002 0-0.004 0-13.517 0-24.503-10.838-24.743-24.298v-240.662c-29.511-10.111-50.348-37.614-50.348-69.984 0-0.146 0-0.292 0.001-0.438v0.022c0-41.473 33.62-75.093 75.093-75.093s75.093 33.62 75.093 75.093v0c-0.015 32.593-21.032 60.274-50.251 70.245l-0.523 0.155zM885.333 186.453h-180.48v105.387l103.253-36.693c1.218-0.196 2.623-0.307 4.053-0.307s2.835 0.112 4.205 0.327l-0.152-0.020c0.033 0 0.072 0 0.111 0 10.526 0 19.49 6.687 22.876 16.044l0.054 0.169c0.906 2.468 1.43 5.318 1.43 8.29 0 10.66-6.74 19.746-16.192 23.228l-0.172 0.055-119.467 42.667v72.107c0 0.001 0 0.002 0 0.004 0 13.517-10.838 24.503-24.298 24.743h-113.942l217.173 432.213c3.067 4.026 4.913 9.126 4.913 14.657 0 13.432-10.888 24.32-24.32 24.32-10.897 0-20.121-7.167-23.213-17.045l-0.047-0.172-234.667-469.333c-0.118-0.705-0.186-1.518-0.186-2.347s0.067-1.641 0.197-2.433l-0.012 0.086c-0.096-0.705-0.151-1.519-0.151-2.347s0.055-1.642 0.161-2.44l-0.010 0.094s0 0 0 0 0 0 0-3.413c-0.093-0.768-0.145-1.658-0.145-2.56s0.053-1.792 0.156-2.666l-0.010 0.106c-0.11-0.641-0.173-1.38-0.173-2.133s0.063-1.492 0.184-2.211l-0.011 0.078 2.56-3.84 4.267-2.987 2.56-2.133c1.539-0.329 3.308-0.517 5.12-0.517s3.581 0.188 5.287 0.547l-0.167-0.029h128v-231.68c0.24-13.482 11.226-24.32 24.743-24.32 0.001 0 0.003 0 0.004 0h180.053v-128c-0.136-0.974-0.213-2.099-0.213-3.242 0-13.667 11.079-24.747 24.747-24.747s24.747 11.079 24.747 24.747c0 1.143-0.078 2.268-0.228 3.371l0.014-0.128v149.76c0 0.027 0 0.060 0 0.092 0 12.916-9.895 23.521-22.519 24.648l-0.095 0.007zM847.787 568.747c26.614 0.017 48.183 21.596 48.183 48.213 0 26.627-21.586 48.213-48.213 48.213-26.027 0-47.238-20.624-48.181-46.421l-0.002-0.086c-0.019-0.509-0.030-1.106-0.030-1.707 0-26.627 21.586-48.213 48.213-48.213 0.011 0 0.021 0 0.032 0h-0.002z" />
<glyph unicode="&#xe921;" glyph-name="sort" d="M423.68 149.333h-366.507c-21.443 0-38.827 17.383-38.827 38.827s17.383 38.827 38.827 38.827h366.507c21.443 0 38.827-17.383 38.827-38.827s-17.383-38.827-38.827-38.827v0zM709.973 409.173h-647.68c-21.443 0-38.827 17.383-38.827 38.827s17.383 38.827 38.827 38.827h647.68c21.443 0 38.827-17.383 38.827-38.827s-17.383-38.827-38.827-38.827v0zM966.827 667.733h-904.533c-21.797 0-39.467 17.67-39.467 39.467s17.67 39.467 39.467 39.467v0h904.533c21.443 0 38.827-17.383 38.827-38.827s-17.383-38.827-38.827-38.827v0z" />
<glyph unicode="&#xe922;" glyph-name="symptomatic-period" d="M352.853 602.88c0.136 1.996 0.213 4.327 0.213 6.675 0 57.732-46.801 104.533-104.533 104.533s-104.533-46.801-104.533-104.533c0-2.348 0.077-4.679 0.23-6.989l-0.017 0.314v-293.973c-30.478-28.226-49.493-68.454-49.493-113.124 0-85.067 68.96-154.027 154.027-154.027s154.027 68.96 154.027 154.027c0 0.020 0 0.040 0 0.060v-0.003c0 0.034 0 0.074 0 0.114 0 44.698-19.199 84.912-49.801 112.845l-0.119 0.107zM360.107 195.84c0.013-0.645 0.021-1.406 0.021-2.169 0-61.738-50.049-111.787-111.787-111.787s-111.787 50.049-111.787 111.787c0 35.337 16.397 66.845 41.997 87.33l0.222 0.172 8.107 6.4v315.307c-0.136 1.538-0.213 3.326-0.213 5.133 0 34.168 27.699 61.867 61.867 61.867s61.867-27.699 61.867-61.867c0-1.807-0.077-3.596-0.229-5.363l0.016 0.23v-314.027l8.107-6.4c25.396-20.579 41.566-51.683 41.813-86.572v-0.041zM270.080 264.533v232.96c0 11.782-9.551 21.333-21.333 21.333v0c-11.782 0-21.333-9.551-21.333-21.333v0-232.96c-30.325-9.133-52.037-36.802-52.053-69.545v-0.002c-0.136-1.674-0.213-3.624-0.213-5.592 0-40.53 32.856-73.387 73.387-73.387s73.387 32.856 73.387 73.387c0 1.968-0.077 3.918-0.229 5.846l0.016-0.255c0 0.027 0 0.059 0 0.092 0 32.603-21.51 60.181-51.113 69.318l-0.514 0.137zM549.12 854.187c-66.416-0.047-128.875-16.948-183.343-46.657l2.010 1.004c-6.626-3.814-11.015-10.855-11.015-18.922 0-3.689 0.918-7.164 2.539-10.209l-0.057 0.117c3.713-6.6 10.672-10.986 18.656-10.986 3.632 0 7.052 0.908 10.045 2.508l-0.115-0.056c46.66 25.515 102.216 40.524 161.277 40.533h0.003c186.628 0 337.92-151.292 337.92-337.92s-151.292-337.92-337.92-337.92v0c-13.459 0.067-26.654 0.84-39.647 2.284l1.674-0.151c-0.682 0.077-1.472 0.121-2.273 0.121-10.923 0-19.928-8.209-21.184-18.794l-0.010-0.101c-0.077-0.682-0.121-1.472-0.121-2.273 0-10.923 8.209-19.928 18.794-21.184l0.101-0.010c12.73-1.63 27.457-2.56 42.402-2.56 0.093 0 0.186 0 0.279 0h-0.014c210.192 0 380.587 170.394 380.587 380.587s-170.394 380.587-380.587 380.587v0zM549.12 682.667c-11.782 0-21.333-9.551-21.333-21.333v0-209.493c0.070-6.94 3.378-13.093 8.483-17.029l0.051-0.038 120.747-90.453c3.472-2.663 7.877-4.267 12.658-4.267 0.050 0 0.1 0 0.15 0.001h-0.008c0.258-0.012 0.559-0.019 0.863-0.019 6.702 0 12.62 3.36 16.161 8.487l0.043 0.066c2.751 3.456 4.414 7.884 4.414 12.701 0 6.89-3.402 12.984-8.618 16.697l-0.063 0.043-112.213 85.333v197.973c0 11.782-9.551 21.333-21.333 21.333v0z" />
<glyph unicode="&#xe923;" glyph-name="target" d="M975.787 474.88h-66.987c-14.015 198.41-171.511 355.906-368.655 369.848l-1.265 0.072v66.987c0 14.845-12.035 26.88-26.88 26.88s-26.88-12.035-26.88-26.88v0-66.987c-198.41-14.015-355.906-171.511-369.848-368.655l-0.072-1.265h-66.987c-14.845 0-26.88-12.035-26.88-26.88s12.035-26.88 26.88-26.88h66.987c14.015-198.41 171.511-355.906 368.655-369.848l1.265-0.072v-66.987c0-14.845 12.035-26.88 26.88-26.88s26.88 12.035 26.88 26.88v66.987c198.41 14.015 355.906 171.511 369.848 368.655l0.072 1.265h66.987c14.845 0 26.88 12.035 26.88 26.88s-12.035 26.88-26.88 26.88v0zM855.040 474.88h-133.12c-13.163 95.324-87.716 169.877-181.924 182.913l-1.116 0.127v131.413c167.627-14.242 300.211-146.826 314.366-313.184l0.087-1.27zM485.12 474.88h-128c11.855 65.365 62.635 116.145 127.036 127.854l0.964 0.146zM485.12 421.12v-128c-65.425 11.735-116.265 62.575-127.857 127.044l-0.143 0.956zM538.88 421.12h128c-11.735-65.425-62.575-116.265-127.044-127.857l-0.956-0.143zM538.88 474.88v128c65.365-11.855 116.145-62.635 127.854-127.036l0.146-0.964zM485.12 789.333v-131.413c-95.324-13.163-169.877-87.716-182.913-181.924l-0.127-1.116h-131.413c14.242 167.627 146.826 300.211 313.184 314.366l1.27 0.087zM170.667 421.12h131.413c13.163-95.324 87.716-169.877 181.924-182.913l1.116-0.127v-131.413c-167.47 14.592-299.861 146.983-314.362 313.155l-0.091 1.298zM538.88 106.667v131.413c95.324 13.163 169.877 87.716 182.913 181.924l0.127 1.116h131.413c-14.592-167.47-146.983-299.861-313.155-314.362l-1.298-0.091z" />
<glyph unicode="&#xe924;" glyph-name="time" d="M512 931.84c-267.217 0-483.84-216.623-483.84-483.84s216.623-483.84 483.84-483.84c267.217 0 483.84 216.623 483.84 483.84v0c-0.485 267.022-216.818 483.355-483.793 483.84h-0.047zM512 13.227c-240.119 0-434.773 194.655-434.773 434.773s194.655 434.773 434.773 434.773c240.119 0 434.773-194.655 434.773-434.773v0c-0.243-240.021-194.752-434.53-434.75-434.773h-0.024zM536.747 432.213v256c0 13.667-11.079 24.747-24.747 24.747s-24.747-11.079-24.747-24.747v-267.52c0.036-7.991 3.853-15.083 9.753-19.583l0.060-0.044 154.88-116.053c3.921-3.189 8.976-5.12 14.482-5.12 0.009 0 0.018 0 0.026 0h-0.001c0.095-0.001 0.208-0.002 0.321-0.002 7.903 0 14.91 3.837 19.259 9.749l0.046 0.066c3.1 4.039 4.967 9.166 4.967 14.728 0 7.899-3.766 14.919-9.601 19.362l-0.060 0.044z" />
<glyph unicode="&#xe925;" glyph-name="not-calculated-export" d="M330.667 238.507v0c-12.341 0.060-23.738 4.049-33.018 10.78l0.164-0.114-209.067 145.92c-9.475 7.082-15.867 17.839-17.053 30.12l-0.014 0.174c-0.183 1.484-0.288 3.203-0.288 4.946 0 10.303 3.652 19.754 9.733 27.127l-0.058-0.073c2.29 3.139 4.968 5.817 8.004 8.035l0.103 0.072 85.333 75.093c5.816 5.021 13.083 8.515 21.091 9.782l0.242 0.032c2.061 0.353 4.435 0.554 6.856 0.554 5.353 0 10.476-0.986 15.197-2.786l-0.293 0.098h4.267l95.147-57.6 4.267 2.987c3.922 2.783 8.806 4.449 14.080 4.449 13.532 0 24.503-10.97 24.503-24.503 0-8.259-4.086-15.563-10.347-20.002l-0.076-0.051-17.067-11.947c-3.795-2.488-8.445-3.968-13.44-3.968s-9.645 1.48-13.534 4.026l0.094-0.058-102.827 58.88-78.933-69.973 200.96-141.227c0.887-0.342 1.914-0.54 2.987-0.54s2.099 0.198 3.045 0.559l-0.059-0.020h5.12l101.12 62.72c3.695 2.383 8.208 3.8 13.053 3.8 8.675 0 16.29-4.543 20.595-11.379l0.059-0.101c2.329-3.704 3.71-8.207 3.71-13.033 0-8.884-4.681-16.674-11.711-21.039l-0.105-0.061-100.693-62.72c-8.738-5.621-19.406-8.961-30.854-8.961-0.103 0-0.206 0-0.308 0.001h0.016zM698.027 460.373c-13.479 0.244-24.312 11.228-24.312 24.743 0 8.758 4.549 16.453 11.413 20.851l0.099 0.059 217.173 134.827c10.724 6.86 19.38 16.062 25.405 26.924l0.195 0.382c6.169 10.267 10.054 22.54 10.66 35.67l0.006 0.17c0.004 0.255 0.006 0.556 0.006 0.858 0 8.43-1.567 16.494-4.426 23.917l0.154-0.455c-4.527 12.346-11.686 22.799-20.841 31.088l-0.066 0.059c-8.897 8.282-20.030 14.276-32.393 16.982l-0.46 0.084c-4.166 1.015-8.948 1.597-13.867 1.597s-9.701-0.582-14.282-1.681l0.416 0.084c-9.882-1.692-18.664-5.441-26.224-10.8l-168.762-113.36c-3.896-2.595-8.684-4.141-13.833-4.141-3.154 0-6.172 0.58-8.954 1.639l0.173-0.058-243.2 90.453c-9.224 3.735-15.613 12.621-15.613 22.999 0 3.078 0.562 6.026 1.589 8.744l-0.056-0.17c3.507 9.398 12.407 15.969 22.841 15.969 2.98 0 5.835-0.536 8.474-1.517l-0.168 0.055 231.253-85.333 157.013 107.093c12.137 8.524 26.451 14.899 41.902 18.209l0.764 0.137c7.183 1.524 15.436 2.396 23.893 2.396s16.71-0.873 24.674-2.532l-0.781 0.136c56.464-12.247 98.141-61.785 98.141-121.058 0-0.491-0.003-0.981-0.009-1.47l0.001 0.074c0.010-0.582 0.016-1.268 0.016-1.955 0-21.497-5.539-41.699-15.268-59.259l0.319 0.628c-10.37-18.784-24.795-34.164-42.172-45.355l-0.494-0.298-217.173-134.827c-3.271-1.665-7.133-2.64-11.222-2.64-0.705 0-1.404 0.029-2.095 0.086l0.091-0.006zM709.12 26.88h-649.387c-0.974-0.136-2.099-0.213-3.242-0.213-13.667 0-24.747 11.079-24.747 24.747s11.079 24.747 24.747 24.747c1.143 0 2.268-0.078 3.371-0.228l-0.128 0.014h649.387c12.201-1.658 21.504-12.009 21.504-24.533s-9.303-22.875-21.376-24.519l-0.128-0.014zM947.627-4.693c-0.084-0.001-0.184-0.002-0.283-0.002-6.611 0-12.571 2.784-16.772 7.244l-0.011 0.012-856.747 856.32c-4.375 4.523-7.071 10.693-7.071 17.493s2.696 12.97 7.078 17.5l-0.007-0.007c4.455 4.349 10.554 7.032 17.28 7.032s12.825-2.683 17.285-7.037l856.742-856.742c4.558-4.359 7.392-10.488 7.392-17.28s-2.834-12.921-7.383-17.271l-0.009-0.009c-4.213-4.476-10.177-7.264-16.792-7.264-0.247 0-0.493 0.004-0.737 0.012l0.036-0.001z" />
<glyph unicode="&#xe926;" glyph-name="proximal-location" d="M691.627 405.333c2.56 3.84 5.12 7.68 7.253 11.52 22.491 35.781 44.875 77.794 64.349 121.391l2.637 6.609c14.953 31.164 24.754 67.479 27.261 105.786l0.046 0.881c-0.222 155.12-126.022 280.783-281.173 280.783-38.791 0-75.748-7.855-109.366-22.062l1.846 0.693c-35.502-14.984-65.817-35.587-91.312-61.019l0.006 0.006c-25.724-25.307-46.378-55.68-60.357-89.513l-0.656-1.794c-13.428-31.78-21.262-68.726-21.333-107.493v-0.027c2.452-39.179 12.263-75.51 28.065-108.419l-0.758 1.753c21.772-49.975 44.166-91.999 69.378-132.072l-2.391 4.072c2.56-3.84 4.693-7.68 7.253-11.093-160.853-36.693-263.68-118.187-263.68-213.333 0-128 194.987-231.253 443.307-231.253s443.307 103.253 443.307 234.24c0 93.867-101.973 175.36-263.68 210.347zM303.36 563.627c-12.593 24.836-20.988 53.841-23.415 84.525l-0.051 0.808c-0.009 0.767-0.014 1.673-0.014 2.581 0 63.975 25.93 121.894 67.854 163.819v0c21.145 20.888 46.201 37.874 73.962 49.754l1.558 0.593c26.204 11.084 56.673 17.525 88.647 17.525 64.151 0 122.245-25.93 164.375-67.88l-0.008 0.008c41.911-41.795 67.841-99.595 67.841-163.453 0-0.286-0.001-0.572-0.002-0.858v0.044c-2.536-31.497-10.925-60.493-24.080-86.681l0.614 1.348c-20.999-47.892-42.247-87.948-66.026-126.27l2.452 4.243c-49.796-80.537-97.616-148.735-148.874-214.107l3.808 5.040c-46.878 60.001-94.686 128.186-139.029 198.767l-6.037 10.299c-21.419 33.622-42.651 72.964-61.118 113.823l-2.455 6.071zM512 12.8c-213.333 0-394.24 85.333-394.24 182.187 0 71.253 101.12 140.373 242.773 168.107 24.747-37.973 50.347-73.813 73.813-104.96-55.893-7.253-121.173-23.467-121.173-66.133 0-67.84 165.547-71.253 198.827-71.253s198.827 3.413 198.827 71.253c0 42.667-64.427 59.307-121.173 66.133 23.467 31.573 48.64 67.413 73.813 104.96 142.933-28.587 242.347-96.853 242.347-167.68 0-98.987-180.48-182.613-393.813-182.613zM491.093 605.013c6.184-2.431 13.346-3.84 20.837-3.84 0.024 0 0.049 0 0.073 0h10.663c21.52 4.478 38.189 21.146 42.605 42.312l0.062 0.355c0.637 3.056 1.002 6.568 1.002 10.166 0 7.593-1.626 14.806-4.548 21.31l0.132-0.329c-4.066 10.229-10.843 18.654-19.45 24.63l-0.177 0.116c-8.676 6.162-19.484 9.851-31.154 9.851-29.926 0-54.187-24.26-54.187-54.187 0-0.313 0.003-0.626 0.008-0.938l-0.001 0.047c-0.002-0.17-0.003-0.371-0.003-0.572 0-11.072 3.347-21.363 9.085-29.915l-0.122 0.194c6.335-8.583 14.876-15.201 24.793-19.069l0.381-0.131z" />
<glyph unicode="&#xe927;" glyph-name="direct-link" d="M862.72 779.093s0 3.413 0 5.12c-2.724 6.131-7.522 10.929-13.485 13.586l-0.168 0.067c-1.282 0.192-2.762 0.302-4.267 0.302s-2.985-0.11-4.431-0.322l0.164 0.020h-162.987c-12.201-1.658-21.504-12.009-21.504-24.533s9.303-22.875 21.376-24.519l0.128-0.014h102.4l-285.44-285.013c-4.375-4.523-7.071-10.693-7.071-17.493s2.696-12.97 7.078-17.5l-0.007 0.007c4.478-4.475 10.662-7.243 17.493-7.243s13.016 2.768 17.493 7.243v0l285.013 285.44v-102.4c1.658-12.201 12.009-21.504 24.533-21.504s22.875 9.303 24.519 21.376l0.014 0.128v163.413c-0.085 1.403-0.391 2.711-0.883 3.923l0.030-0.083zM839.253 384c-13.667 0-24.747-11.079-24.747-24.747v-213.333h-605.013v604.587h217.173c12.201 1.658 21.504 12.009 21.504 24.533s-9.303 22.875-21.376 24.519l-0.128 0.014h-241.493c-0.001 0-0.002 0-0.004 0-13.517 0-24.503-10.838-24.743-24.298v-654.529c0.24-13.482 11.226-24.32 24.743-24.32 0.001 0 0.003 0 0.004 0h654.080c13.336 0.235 24.085 10.984 24.32 24.298v238.529c0 0.001 0 0.002 0 0.004 0 13.517-10.838 24.503-24.298 24.743h-0.022z" />
<glyph unicode="&#xe928;" glyph-name="download-pdf" d="M279.467 603.733c0.254-2.469 0.398-5.335 0.398-8.234 0-47.128-38.205-85.333-85.333-85.333-1.641 0-3.271 0.046-4.889 0.138l0.224-0.010h-36.267v-128h-42.667v311.893h81.067c0.682 0.020 1.484 0.031 2.289 0.031 47.128 0 85.333-38.205 85.333-85.333 0-1.812-0.056-3.611-0.168-5.395l0.012 0.244zM236.8 603.733c0.261 1.775 0.411 3.823 0.411 5.907 0 23.564-19.103 42.667-42.667 42.667-1.95 0-3.87-0.131-5.75-0.384l0.22 0.024h-35.413v-99.413h36.693c0.699-0.041 1.516-0.064 2.339-0.064 23.564 0 42.667 19.103 42.667 42.667 0 2.586-0.23 5.117-0.671 7.576l0.038-0.259zM506.88 540.587c0-92.16-32.853-156.16-98.56-156.16h-75.093v309.76h75.093c68.693 0 98.56-61.44 98.56-153.6zM462.080 540.587c0 54.613-11.52 111.36-55.040 111.36h-30.72v-225.28h32c41.813 0 53.76 59.307 53.76 113.92zM716.8 652.373h-104.533v-85.333h66.987v-42.667h-66.987v-141.227h-42.667v311.040h147.2zM372.907 64h-153.173c-47.128 0-85.333 38.205-85.333 85.333v0 123.733c0 14.138 11.462 25.6 25.6 25.6s25.6-11.462 25.6-25.6v0-123.733c-0.007-0.261-0.011-0.569-0.011-0.877 0-18.405 14.567-33.408 32.801-34.108l0.064-0.002h154.453c14.138 0 25.6-11.462 25.6-25.6s-11.462-25.6-25.6-25.6v0zM888.32 267.52c-14.138 0-25.6 11.462-25.6 25.6v0 578.56c0.016 0.389 0.025 0.845 0.025 1.303 0 18.41-14.575 33.416-32.815 34.108l-0.063 0.002h-610.133c-18.303-0.695-32.878-15.7-32.878-34.11 0-0.458 0.009-0.914 0.027-1.368l-0.002 0.065v-36.693c0-14.138-11.462-25.6-25.6-25.6s-25.6 11.462-25.6 25.6v0 36.693c0 47.128 38.205 85.333 85.333 85.333v0h610.133c47.128 0 85.333-38.205 85.333-85.333v0-578.56c0-0.038 0-0.083 0-0.128 0-14.138-11.462-25.6-25.6-25.6-0.902 0-1.793 0.047-2.67 0.138l0.11-0.009zM856.747 96.853c-3.69 9.319-12.624 15.79-23.069 15.79-0.14 0-0.279-0.001-0.419-0.003h-49.899v152.32c0 14.138-11.462 25.6-25.6 25.6v0h-96.853c-14.138 0-25.6-11.462-25.6-25.6v0-152.32h-49.493c-0.159 0.004-0.346 0.006-0.533 0.006-10.523 0-19.538-6.457-23.299-15.625l-0.061-0.168c-1.203-2.863-1.901-6.191-1.901-9.682 0-7.044 2.845-13.424 7.449-18.053l123.732-123.732c4.757-4.609 11.197-7.505 18.313-7.679l0.034-0.001c7.027 0.103 13.353 3.022 17.916 7.676l123.737 123.737c4.692 4.51 7.606 10.84 7.606 17.849 0 3.575-0.758 6.973-2.122 10.042l0.063-0.158z" />
<glyph unicode="&#xe929;" glyph-name="download-csv" d="M282.453 457.813c-9.813-46.507-31.573-78.507-82.347-78.507-66.987 0-91.307 71.253-91.307 159.573s26.88 160.427 92.587 160.427c51.627 0 72.96-31.573 80.64-75.947l-42.667-11.093c-5.547 28.16-14.080 42.667-37.973 42.667-37.547 0-46.507-61.013-46.507-115.627s11.947-116.48 49.493-116.48c20.907 0 30.72 14.080 39.253 47.36zM486.827 464.213c0.181-2.002 0.283-4.331 0.283-6.683 0-43.594-35.34-78.933-78.933-78.933-2.353 0-4.681 0.103-6.982 0.305l0.298-0.021c-35.619 0.215-66.382 20.792-81.254 50.67l-0.239 0.53 34.133 27.307c17.067-26.453 31.573-34.56 50.773-34.56 0.868-0.077 1.877-0.122 2.897-0.122 19.087 0 34.56 15.473 34.56 34.56 0 1.698-0.123 3.368-0.359 5.001l0.022-0.186c0 23.893-10.24 37.547-52.053 65.28-36.202 16.945-61.088 52.574-62.29 94.14l-0.004 0.154c-0.069 1.194-0.108 2.591-0.108 3.996 0 40.766 33.047 73.813 73.813 73.813 1.689 0 3.366-0.057 5.027-0.168l-0.225 0.012c0.353 0.005 0.77 0.008 1.188 0.008 31.422 0 58.878-16.984 73.688-42.272l0.218-0.403-31.573-28.16c-15.36 19.627-25.6 26.88-42.667 26.88-0.673 0.053-1.457 0.084-2.249 0.084-16.731 0-30.293-13.563-30.293-30.293 0-0.931 0.042-1.852 0.124-2.761l-0.009 0.117c0-23.040 10.667-35.84 45.227-58.027s66.987-48.213 66.987-100.267zM709.12 694.187l-80.213-309.76h-31.573l-80.213 309.76h47.36l35.84-155.307c3.413-16.213 11.52-54.613 13.653-65.707 0 11.093 10.24 49.067 13.653 65.707l35.413 155.307zM374.187 64h-153.173c-47.128 0-85.333 38.205-85.333 85.333v0 123.733c0 14.138 11.462 25.6 25.6 25.6v0c14.138 0 25.6-11.462 25.6-25.6v0-123.733c-0.007-0.261-0.011-0.569-0.011-0.877 0-18.405 14.567-33.408 32.801-34.108l0.064-0.002h154.453c14.138 0 25.6-11.462 25.6-25.6s-11.462-25.6-25.6-25.6v0zM889.6 267.52c-14.138 0-25.6 11.462-25.6 25.6v0 578.56c0.016 0.389 0.025 0.845 0.025 1.303 0 18.41-14.575 33.416-32.815 34.108l-0.063 0.002h-610.133c-18.303-0.695-32.878-15.7-32.878-34.11 0-0.458 0.009-0.914 0.027-1.368l-0.002 0.065v-36.693c0-14.138-11.462-25.6-25.6-25.6v0c-14.138 0-25.6 11.462-25.6 25.6v0 36.693c0 47.128 38.205 85.333 85.333 85.333v0h610.133c47.128 0 85.333-38.205 85.333-85.333v0-578.56c0-0.038 0-0.083 0-0.128 0-14.138-11.462-25.6-25.6-25.6-0.902 0-1.793 0.047-2.67 0.138l0.11-0.009zM858.027 96.853c-3.69 9.319-12.624 15.79-23.069 15.79-0.14 0-0.279-0.001-0.419-0.003h-49.899v152.32c0 14.138-11.462 25.6-25.6 25.6v0h-96.853c-14.138 0-25.6-11.462-25.6-25.6v0-152.32h-49.493c-0.159 0.004-0.346 0.006-0.533 0.006-10.523 0-19.538-6.457-23.299-15.625l-0.061-0.168c-1.203-2.863-1.901-6.191-1.901-9.682 0-7.044 2.845-13.424 7.449-18.053l123.732-123.732c4.757-4.609 11.197-7.505 18.313-7.679l0.034-0.001c7.027 0.103 13.353 3.022 17.916 7.676l123.737 123.737c4.739 4.449 7.692 10.753 7.692 17.747 0 3.618-0.79 7.052-2.207 10.138l0.062-0.151z" />
</font>
</defs>
</svg>
