<svg width="20" height="20" viewBox="0 0 20 20" fill="none" xmlns="http://www.w3.org/2000/svg">
<path d="M9.82617 7.91675C9.92506 7.91675 10.0217 7.94607 10.104 8.00101C10.1862 8.05595 10.2503 8.13404 10.2881 8.22541C10.326 8.31677 10.3359 8.4173 10.3166 8.51429C10.2973 8.61128 10.2497 8.70037 10.1797 8.7703C10.1098 8.84023 10.0207 8.88785 9.92372 8.90714C9.82673 8.92643 9.72619 8.91653 9.63483 8.87869C9.54347 8.84084 9.46538 8.77676 9.41044 8.69453C9.3555 8.61231 9.32617 8.51564 9.32617 8.41675C9.32617 8.28414 9.37885 8.15696 9.47262 8.06319C9.56639 7.96943 9.69356 7.91675 9.82617 7.91675Z" fill="black" stroke="black" stroke-width="1.16705" stroke-linecap="round" stroke-linejoin="round"/>
<path d="M10.0235 16.3324L10.0235 16.3325C9.99219 16.3725 9.95222 16.4049 9.90658 16.4271C9.86093 16.4494 9.81082 16.461 9.76003 16.461C9.70925 16.461 9.65913 16.4494 9.61349 16.4271C9.56785 16.4049 9.52788 16.3725 9.49661 16.3325L9.49643 16.3322C8.79109 15.4305 7.66781 13.9308 6.72347 12.3856C6.25114 11.6128 5.82998 10.839 5.52843 10.13C5.22241 9.41061 5.06028 8.8051 5.06028 8.3547V8.35458C5.06015 7.73731 5.18161 7.12607 5.41773 6.55575C5.65385 5.98543 6.00001 5.46721 6.43644 5.03068C6.87286 4.59416 7.39101 4.24789 7.96127 4.01164C8.53154 3.77539 9.14277 3.65379 9.76003 3.65379C11.0065 3.65379 12.2019 4.14894 13.0833 5.03031C13.9646 5.91169 14.4598 7.10709 14.4598 8.35354C14.4598 8.80393 14.2977 9.40945 13.9916 10.1289C13.6901 10.8378 13.2689 11.6117 12.7966 12.3846C11.8522 13.9299 10.7289 15.43 10.0235 16.3324Z" stroke="black" stroke-width="1.0776" stroke-linecap="round" stroke-linejoin="round"/>
</svg>
