<svg width="50" height="16" viewBox="0 0 48 11" fill="none" 
    xmlns="http://www.w3.org/2000/svg">
    <path d="M39.3127 2.97131C37.154 2.97131 35.4658 4.74948 35.4658 7.0126C35.4658 9.25263 37.1465 11 39.2828 11C41.4416 11 43.1297 9.22184 43.1297 6.95102C43.1297 4.71869 41.4565 2.97131 39.3127 2.97131ZM39.3127 9.77607C37.8785 9.77607 36.7581 8.53674 36.7581 6.95872C36.7581 5.38839 37.8486 4.19525 39.2903 4.19525C40.7245 4.19525 41.8449 5.43457 41.8449 7.0126C41.8375 8.59063 40.7543 9.77607 39.3127 9.77607Z" fill="#7A7A7A"></path>
    <path d="M47.4099 9.62975C47.3352 9.62975 47.2755 9.65284 47.1933 9.67593C47.0813 9.71442 46.9095 9.76831 46.6256 9.76831C45.8712 9.76831 45.5276 9.43731 45.5276 8.68293V4.38762H47.4024C47.7236 4.38762 48 4.11051 48 3.7872C48 3.4562 47.7236 3.17139 47.4024 3.17139H45.5276V1.4856C45.5276 1.1238 45.2512 0.838989 44.9001 0.838989C44.549 0.838989 44.2876 1.11611 44.2876 1.4856V3.17139H43.8319C43.5108 3.17139 43.2344 3.44851 43.2344 3.77181C43.2344 4.10281 43.5108 4.38762 43.8319 4.38762H44.2876V8.75221C44.2876 10.1378 45.1391 10.9999 46.5136 10.9999C46.9767 10.9999 47.3278 10.8922 47.5892 10.7998C47.8432 10.692 47.9851 10.4919 47.9851 10.2302C48 9.90687 47.7311 9.62975 47.4099 9.62975Z" fill="#7A7A7A"></path>
    <path d="M33.7406 0.00769043C33.382 0.00769043 33.1206 0.284807 33.1206 0.654296V4.06437C32.4184 3.37158 31.5146 2.9713 30.6407 2.9713H30.566C28.7732 2.9713 26.9282 4.46465 26.9282 6.9587V7.00489C26.9357 9.50664 28.7882 11 30.566 11H30.6407C32.6201 11 34.3605 9.12175 34.3605 6.9818V0.646599C34.3531 0.284807 34.0916 0.00769043 33.7406 0.00769043ZM30.6332 9.71448C29.2513 9.71448 28.1234 8.48285 28.1234 6.9741C28.1234 5.47305 29.2513 4.24142 30.6332 4.24142C31.8209 4.24142 33.143 5.41147 33.143 6.9818C33.143 8.43666 31.9703 9.71448 30.6332 9.71448Z" fill="#7A7A7A"></path>
    <path d="M9.33712 0.123169C8.99352 0.123169 8.72461 0.407983 8.72461 0.769775V10.3611C8.72461 10.7306 8.99352 11 9.35206 11C9.70314 11 9.96457 10.7229 9.96457 10.3611V0.762077C9.96457 0.400286 9.6882 0.123169 9.33712 0.123169Z" fill="#7A7A7A"></path>
    <path d="M22.3716 2.96362C20.3772 2.96362 18.8086 4.73409 18.8086 6.99721C18.8086 9.27573 20.3847 11 22.4762 11C23.6564 11 24.5229 10.6305 25.3744 9.76068C25.5313 9.59903 25.5686 9.42968 25.5686 9.31422C25.5686 8.97552 25.2923 8.6984 24.9561 8.6984C24.7993 8.6984 24.6573 8.75998 24.5378 8.88315C23.9328 9.49126 23.2904 9.77608 22.5061 9.77608C21.2736 9.77608 20.3324 8.89084 20.1233 7.55914H25.2176C25.5388 7.55914 25.8301 7.27433 25.8301 6.94333C25.8226 4.63402 24.3735 2.96362 22.3716 2.96362ZM22.3417 4.17986C23.6938 4.17986 24.3362 5.27293 24.5005 6.35061H20.1233C20.3399 5.06509 21.2362 4.17986 22.3417 4.17986Z" fill="#7A7A7A"></path>
    <path d="M3.77218 2.96361H3.7199C2.83847 2.96361 1.93464 3.36389 1.23997 4.05668V0.646606C1.23997 0.277117 0.971057 0 0.612513 0C0.261438 0.00769769 0 0.284815 0 0.646606V6.85864V6.92022V6.9818C0 9.12176 1.74043 11 3.7199 11H3.79459C5.57984 11 7.42485 9.49895 7.43979 6.9972V6.95871C7.43232 4.45696 5.57237 2.96361 3.77218 2.96361ZM6.22971 6.9818C6.22971 8.49055 5.10179 9.72218 3.7199 9.72218C2.38283 9.72218 1.21009 8.44436 1.21009 6.9818C1.21009 5.41148 2.53222 4.24143 3.7199 4.24143C5.10179 4.24143 6.22971 5.47306 6.22971 6.9818Z" fill="#7A7A7A"></path>
    <path d="M16.9785 3.07141C16.62 3.07141 16.3511 3.34853 16.3511 3.71032V7.64384C16.3511 8.93705 15.6788 9.72991 14.5584 9.7684C13.408 9.72991 12.7432 8.95245 12.7432 7.64384V3.71802C12.7432 3.34853 12.4743 3.07911 12.1233 3.07911C11.7722 3.07911 11.5107 3.35623 11.5107 3.71802V7.7747C11.5107 9.72221 12.7059 10.9923 14.5509 11C16.3959 10.9923 17.5911 9.72991 17.5911 7.7747V3.71802C17.5836 3.34853 17.3221 3.07141 16.9785 3.07141Z" fill="#7A7A7A"></path>
</svg>