<svg width="92" height="17" viewBox="0 0 92 17" fill="none" 
    xmlns="http://www.w3.org/2000/svg">
    <path d="M27.0227 3.81818H24.7159V14H27.0227V3.81818ZM37.4211 3.81818H35.1142V10.0824H35.0347L31.4353 3.81818H29.1483V14H31.4551V7.7358H31.5347L35.154 14H37.4211V3.81818ZM44.8451 6.84091H47.0326C47.0326 4.91193 45.5213 3.67898 43.3338 3.67898C41.1463 3.67898 39.5554 4.83239 39.5554 6.54261C39.5554 8.05398 40.8082 9.02841 42.4985 9.54545L42.6974 9.60511C44.2684 10.1023 44.8054 10.5398 44.8054 11.1562C44.8054 11.6932 44.348 12.2301 43.2741 12.2301C42.2002 12.2301 41.5241 11.6932 41.4843 10.6989H39.2571C39.2571 13.1051 41.2457 14.1392 43.2741 14.1392C45.4815 14.1392 47.0326 13.0653 47.0326 11.1364C47.0326 9.4858 45.8991 8.65057 43.99 7.97443L43.7116 7.85511C42.6179 7.45739 41.8025 7.19886 41.8025 6.5625C41.8025 5.9858 42.4389 5.60795 43.3338 5.60795C44.3281 5.60795 44.8054 6.08523 44.8451 6.84091ZM51.3942 3.81818H49.0874V14H51.3942V3.81818ZM61.9467 8.55114H57.7308V10.2415H59.6995C59.6995 11.3949 58.8245 12.071 57.7308 12.071C56.4978 12.071 55.5631 11.2159 55.5631 8.92898C55.5631 6.64205 56.4779 5.74716 57.691 5.74716C58.5262 5.74716 59.2819 6.16477 59.5802 7.17898L61.9069 6.8608C61.2705 4.79261 59.6398 3.67898 57.691 3.67898C55.1455 3.67898 53.2364 5.56818 53.2364 8.92898C53.2364 12.2699 55.1654 14.1392 57.7308 14.1392C60.0575 14.1392 61.9467 12.5881 61.9467 10.2415V8.55114ZM66.302 3.81818H63.9952V14H66.302V9.86364H69.9611V14H72.2679V3.81818H69.9611V7.95455H66.302V3.81818ZM82.3369 3.81818H74.0841V5.72727H77.067V14H79.3539V5.72727H82.3369V3.81818ZM89.4428 6.84091H91.6303C91.6303 4.91193 90.1189 3.67898 87.9314 3.67898C85.7439 3.67898 84.153 4.83239 84.153 6.54261C84.153 8.05398 85.4059 9.02841 87.0962 9.54545L87.2951 9.60511C88.8661 10.1023 89.403 10.5398 89.403 11.1562C89.403 11.6932 88.9456 12.2301 87.8718 12.2301C86.7979 12.2301 86.1218 11.6932 86.082 10.6989H83.8547C83.8547 13.1051 85.8434 14.1392 87.8718 14.1392C90.0792 14.1392 91.6303 13.0653 91.6303 11.1364C91.6303 9.4858 90.4968 8.65057 88.5877 7.97443L88.3093 7.85511C87.2155 7.45739 86.4002 7.19886 86.4002 6.5625C86.4002 5.9858 87.0365 5.60795 87.9314 5.60795C88.9257 5.60795 89.403 6.08523 89.4428 6.84091Z" fill="#3C3C3C"></path>
    <path d="M8.3 16.6C12.884 16.6 16.6 12.884 16.6 8.3C16.6 3.71604 12.884 0 8.3 0C3.71604 0 0 3.71604 0 8.3C0 12.884 3.71604 16.6 8.3 16.6Z" fill="#33373F"></path>
    <path d="M10.7998 13.7V7.69995C10.7998 6.89995 11.4998 6.19995 12.2998 6.19995C13.0998 6.19995 13.7998 6.89995 13.7998 7.69995C13.7998 11.6 2.7998 11.6 2.7998 7.69995C2.7998 6.89995 3.4998 6.19995 4.2998 6.19995C5.0998 6.19995 5.7998 6.89995 5.7998 7.69995V13.7" stroke="white" stroke-linecap="round"></path>
</svg>