<?xml version="1.0" encoding="utf-8"?>
<!-- Generator: Adobe Illustrator 22.0.1, SVG Export Plug-In . SVG Version: 6.00 Build 0)  -->
<svg version="1.1" id="Layer_1" xmlns="http://www.w3.org/2000/svg" xmlns:xlink="http://www.w3.org/1999/xlink" x="0px" y="0px"
	 viewBox="0 0 804.522 289.516" enable-background="new 0 0 804.522 289.516" xml:space="preserve">
<g>
	<path class="letter" d="M601.284,116.666c-28.863,0-51.473,23.082-51.473,52.543c0,29.059,22.465,51.832,51.117,51.832
		c28.867,0,51.465-23.09,51.465-52.555C652.394,139.428,629.941,116.666,601.284,116.666z M601.284,205.045
		c-19.184,0-34.215-16.051-34.215-36.559c0-20.43,14.559-35.855,33.859-35.855c19.176,0,34.195,16.074,34.195,36.578
		C635.124,189.639,620.577,205.045,601.284,205.045z"/>
	<path class="letter" d="M709.718,202.693c-0.984,0-1.832,0.262-2.863,0.598c-1.496,0.48-3.781,1.215-7.625,1.215
		c-10.144,0-14.656-4.348-14.656-14.105v-55.773h25.144c4.328,0,7.992-3.574,7.992-7.816c0-4.32-3.664-7.984-7.992-7.984h-25.144
		V96.931c0-4.684-3.684-8.359-8.359-8.359c-4.656,0-8.184,3.598-8.184,8.359v21.895h-6.121c-4.34,0-8.004,3.566-8.004,7.801
		c0,4.262,3.742,8,8.004,8h6.121v56.672c0,18.008,11.406,29.203,29.754,29.203c6.16,0,10.902-1.391,14.43-2.633
		c3.394-1.352,5.332-4.039,5.332-7.367C717.546,206.271,713.948,202.693,709.718,202.693z"/>
	<path class="letter" d="M526.683,78.236c-4.75,0-8.348,3.598-8.348,8.359v44.301c-9.352-8.984-21.461-14.23-33.215-14.23h-1.012
		c-23.957,0-48.742,19.391-48.742,51.82v0.617c0.145,32.5,24.891,51.938,48.742,51.938h1.012c26.504,0,49.75-24.391,49.75-52.195
		V86.595C534.87,81.833,531.351,78.236,526.683,78.236z M485.12,204.42c-18.52,0-33.586-15.965-33.586-35.574
		c0-19.613,15.066-35.566,33.586-35.566c15.859,0,33.59,15.211,33.59,35.566C518.71,187.787,503.015,204.42,485.12,204.42z"/>
	<path class="letter" d="M200.019,78.236c-4.59,0-8.184,3.676-8.184,8.359v124.641c0,4.762,3.594,8.34,8.355,8.34c4.668,0,8.176-3.578,8.176-8.34
		V86.595C208.366,81.912,204.702,78.236,200.019,78.236z"/>
	<path class="letter" d="M374.491,116.666c-26.715,0-47.656,22.996-47.656,52.351c0,29.645,21.113,52.023,49.102,52.023
		c15.832,0,27.43-4.832,38.766-16.148c2.113-2.133,2.566-4.34,2.566-5.805c0-4.406-3.664-7.992-8.176-7.992
		c-2.082,0-4.012,0.828-5.582,2.371c-8.07,7.895-16.707,11.578-27.207,11.578c-16.496,0-29.098-11.461-31.93-28.75h68.172
		c4.348,0,8.156-3.738,8.156-8C420.702,138.377,401.265,116.666,374.491,116.666z M374.136,132.451
		c18.113,0,26.695,14.191,28.875,28.219h-58.598C347.312,143.939,359.277,132.451,374.136,132.451z"/>
	<path class="letter" d="M125.476,116.01l-0.703-0.008c-11.773,0-23.883,5.246-33.234,14.219v-44.29c0-4.773-3.586-8.359-8.359-8.359
		c-4.656,0-8.176,3.586-8.176,8.359v80.704l0.02,0.773l-0.02,0.77c0,27.797,23.254,52.188,49.77,52.188h0.98
		c23.863,0,48.629-19.457,48.754-52.004v-0.539C174.507,135.4,149.577,116.01,125.476,116.01z M158.351,168.178
		c0,19.609-15.07,35.578-33.578,35.578c-17.895,0-33.602-16.633-33.602-35.578c0-20.359,17.742-35.574,33.602-35.574
		C143.28,132.604,158.351,148.561,158.351,168.178z"/>
	<path class="letter" d="M302.253,118.104c-4.754,0-8.352,3.598-8.352,8.348v51.098c0,16.777-9.031,27.102-24.023,27.621
		c-15.438-0.527-24.297-10.594-24.297-27.621v-51.098c0-4.75-3.594-8.348-8.348-8.348c-4.668,0-8.188,3.598-8.188,8.348v52.727
		c0,25.348,15.977,41.777,40.695,41.863h0.039c24.699-0.086,40.656-16.516,40.656-41.863v-52.727
		C310.437,121.701,306.917,118.104,302.253,118.104z"/>
</g>
</svg>
