<?xml version="1.0" encoding="utf-8"?>
<!-- Generator: Adobe Illustrator 22.0.1, SVG Export Plug-In . SVG Version: 6.00 Build 0)  -->
<svg version="1.1" id="Layer_1" xmlns="http://www.w3.org/2000/svg" xmlns:xlink="http://www.w3.org/1999/xlink" x="0px" y="0px"
	 viewBox="0 0 643.9 144.4" style="enable-background:new 0 0 643.9 144.4;" xml:space="preserve">
<g>
	<path class="letter" d="M526.8,39.4c-28.9,0-51.5,23.1-51.5,52.5c0,29.1,22.5,51.8,51.1,51.8c28.9,0,51.5-23.1,51.5-52.6
		C577.9,62.1,555.5,39.4,526.8,39.4z M526.8,127.8c-19.2,0-34.2-16.1-34.2-36.6c0-20.4,14.6-35.9,33.9-35.9
		c19.2,0,34.2,16.1,34.2,36.6C560.6,112.4,546.1,127.8,526.8,127.8z"/>
	<path class="letter" d="M635.2,125.4c-1,0-1.8,0.3-2.9,0.6c-1.5,0.5-3.8,1.2-7.6,1.2c-10.1,0-14.7-4.3-14.7-14.1V57.3h25.1c4.3,0,8-3.6,8-7.8
		c0-4.3-3.7-8-8-8h-25.1V19.6c0-4.7-3.7-8.4-8.4-8.4c-4.7,0-8.2,3.6-8.2,8.4v21.9h-6.1c-4.3,0-8,3.6-8,7.8c0,4.3,3.7,8,8,8h6.1V114
		c0,18,11.4,29.2,29.8,29.2c6.2,0,10.9-1.4,14.4-2.6c3.4-1.4,5.3-4,5.3-7.4C643.1,129,639.5,125.4,635.2,125.4z"/>
	<path class="letter" d="M452.2,1c-4.8,0-8.3,3.6-8.3,8.4v44.3c-9.4-9-21.5-14.2-33.2-14.2h-1c-24,0-48.7,19.4-48.7,51.8v0.6
		c0.1,32.5,24.9,51.9,48.7,51.9h1c26.5,0,49.8-24.4,49.8-52.2V9.3C460.4,4.6,456.9,1,452.2,1z M410.6,127.1
		c-18.5,0-33.6-16-33.6-35.6C377,72,392.1,56,410.6,56c15.9,0,33.6,15.2,33.6,35.6C444.2,110.5,428.5,127.1,410.6,127.1z"/>
	<path class="letter" d="M125.5,1c-4.6,0-8.2,3.7-8.2,8.4V134c0,4.8,3.6,8.3,8.4,8.3c4.7,0,8.2-3.6,8.2-8.3V9.3C133.9,4.6,130.2,1,125.5,1z"/>
	<path class="letter" d="M300,39.4c-26.7,0-47.7,23-47.7,52.4c0,29.6,21.1,52,49.1,52c15.8,0,27.4-4.8,38.8-16.1c2.1-2.1,2.6-4.3,2.6-5.8
		c0-4.4-3.7-8-8.2-8c-2.1,0-4,0.8-5.6,2.4c-8.1,7.9-16.7,11.6-27.2,11.6c-16.5,0-29.1-11.5-31.9-28.8h68.2c4.3,0,8.2-3.7,8.2-8
		C346.2,61.1,326.8,39.4,300,39.4z M299.6,55.2c18.1,0,26.7,14.2,28.9,28.2h-58.6C272.8,66.7,284.8,55.2,299.6,55.2z"/>
	<path class="letter" d="M51,38.7l-0.7,0c-11.8,0-23.9,5.2-33.2,14.2V8.6c0-4.8-3.6-8.4-8.4-8.4C4,0.3,0.5,3.9,0.5,8.6v80.7l0,0.8l0,0.8
		c0,27.8,23.3,52.2,49.8,52.2h1c23.9,0,48.6-19.5,48.8-52v-0.5C100,58.1,75.1,38.7,51,38.7z M83.9,90.9c0,19.6-15.1,35.6-33.6,35.6
		c-17.9,0-33.6-16.6-33.6-35.6c0-20.4,17.7-35.6,33.6-35.6C68.8,55.3,83.9,71.3,83.9,90.9z"/>
	<path class="letter" d="M227.8,40.8c-4.8,0-8.4,3.6-8.4,8.3v51.1c0,16.8-9,27.1-24,27.6c-15.4-0.5-24.3-10.6-24.3-27.6V49.2c0-4.8-3.6-8.3-8.3-8.3
		c-4.7,0-8.2,3.6-8.2,8.3v52.7c0,25.3,16,41.8,40.7,41.9h0c24.7-0.1,40.7-16.5,40.7-41.9V49.2C235.9,44.4,232.4,40.8,227.8,40.8z"/>
</g>
</svg>
